<svg height="512pt" viewBox="0 0 512 512" width="512pt" xmlns="http://www.w3.org/2000/svg"><path d="m452 61.507812v-61.507812h-347c-57.898438 0-105 47.101562-105 105v302c0 57.898438 47.101562 105 105 105h332c41.355469 0 75-33.644531 75-75v-302c0-36.21875-25.808594-66.523438-60-73.492188zm-422 43.492188c0-41.355469 33.644531-75 75-75h317v272h-317c-29.351562 0-55.929688 12.105469-75 31.585938zm407 377h-332c-41.355469 0-75-33.644531-75-75s33.644531-75 75-75h347v-239.421875c17.460938 6.195313 30 22.867187 30 42.421875v242.039062c-12.542969-9.4375-28.128906-15.039062-45-15.039062h-332c-24.8125 0-45 20.1875-45 45s20.1875 45 45 45h347v-30h-347c-8.269531 0-15-6.730469-15-15s6.730469-15 15-15h332c24.8125 0 45 20.1875 45 45s-20.1875 45-45 45zm0 0"/></svg>