<svg height="512pt" viewBox="-77 0 512 512" width="512pt" xmlns="http://www.w3.org/2000/svg"><path d="m294.785156 305.6875c35.40625 0 64.214844-28.78125 64.214844-64.152344v-61.039062c0-35.375-28.804688-64.152344-64.214844-64.152344h-13.460937l.203125-8.207031c10.171875-1.183594 18.09375-9.820313 18.09375-20.277344 0-8.433594-5.15625-15.691406-12.484375-18.804687v-11.070313c0-13.554687-11.054688-24.582031-24.640625-24.582031h-29.113282v-9.132813c0-13.382812-10.898437-24.269531-24.292968-24.269531h-74.046875c-13.410157 0-24.324219 10.886719-24.324219 24.269531v9.132813h-29.085938c-13.585937 0-24.636718 11.027344-24.636718 24.585937v10.375c-8.308594 2.597657-14.351563 10.355469-14.351563 19.5 0 11.222657 9.113281 20.359375 20.335938 20.421875l4.785156 190.277344c0 .066406-.007813.132812-.007813.199219 0 .203125.015626.402343.027344.597656l1.097656 43.601563h-4.8125c-7.921874 0-14.367187 6.4375-14.367187 14.347656v24.355468h-1.449219c-12.136718 0-21.539062 8.753907-25.789062 24l-19.253906 68.601563c-.167969.585937-.347657 1.203125-.539063 1.847656-2.109375 7.152344-5.296875 17.957031 1.175781 26.601563 4.675782 6.246094 12.90625 9.285156 25.152344 9.285156h286.503906c11.507813 0 17.9375-5.28125 21.308594-9.714844 6.640625-8.734375 6.566406-20.542968 4.484375-28.015625l-19.28125-68.59375c-5.824219-20.894531-18.660156-24.011719-25.796875-24.011719h-6.757812v-24.355468c0-7.726563-6.144532-14.027344-13.808594-14.324219l.933594-37.300781h18.199218zm0-174.175781c27.035156 0 49.03125 21.972656 49.03125 48.984375v61.039062c0 27.011719-21.996094 48.984375-49.03125 48.984375h-17.820312l.300781-12.042969h17.519531c20.386719 0 36.976563-16.570312 36.976563-36.941406v-61.039062c0-20.371094-16.589844-36.941406-36.976563-36.941406h-14.144531l.300781-12.042969zm-14.519531 27.210937h14.519531c12.019532 0 21.796875 9.765625 21.796875 21.773438v61.039062c0 12.007813-9.777343 21.777344-21.796875 21.777344h-17.136718zm-154.363281-134.453125c0-5.019531 4.101562-9.101562 9.140625-9.101562h74.046875c5.023437 0 9.113281 4.082031 9.113281 9.101562v9.132813h-92.296875v-9.132813zm-44.269532 24.296875h180.867188c5.214844 0 9.457031 4.226563 9.457031 9.417969v9.449219h-199.777343v-9.449219c0-5.191406 4.242187-9.417969 9.453124-9.417969zm1.519532 257.777344h19.605468c4.191407 0 7.589844-3.394531 7.589844-7.582031s-3.398437-7.582031-7.589844-7.582031h-19.988281l-.730469-29.101563h18.621094c4.195313 0 7.59375-3.394531 7.59375-7.582031s-3.398437-7.585938-7.59375-7.585938h-19.003906l-.800781-31.789062 18.621093-.117188c4.191407-.027344 7.570313-3.445312 7.542969-7.636718-.027343-4.167969-3.421875-7.53125-7.589843-7.53125-.019532 0-.035157 0-.050782 0l-18.902344.121093-.878906-34.8125h20.519532c4.191406 0 7.589843-3.398437 7.589843-7.585937s-3.398437-7.582032-7.589843-7.582032h-20.898438l-1.050781-41.6875h77.050781c4.191406 0 7.59375-3.394531 7.59375-7.582031s-3.402344-7.582031-7.59375-7.582031h-92.125c-2.902344 0-5.265625-2.359375-5.265625-5.261719 0-2.851562 2.414063-5.261719 5.265625-5.261719h216.050781c2.871094 0 5.296875 2.410157 5.296875 5.261719 0 2.902344-2.378906 5.261719-5.296875 5.261719h-88.855469c-4.191406 0-7.589843 3.394531-7.589843 7.582031s3.398437 7.582031 7.589843 7.582031h76.046876l-5.871094 234.671876h-176.390625zm105.617187 75.320312c-4.191406 0-7.59375 3.394532-7.59375 7.582032s3.402344 7.582031 7.59375 7.582031h107.449219c5.023438 0 8.78125 4.347656 11.175781 12.933594l19.28125 68.59375c1.234375 4.429687.960938 10.921875-1.957031 14.753906-1.902344 2.503906-4.914062 3.722656-9.210938 3.722656h-286.507812c-6.636719 0-11.492188-1.195312-12.996094-3.203125-1.914062-2.5625-.019531-8.980468 1.230469-13.230468.210937-.707032.410156-1.382813.59375-2.035157l19.257813-68.621093c2.390624-8.566407 6.148437-12.914063 11.171874-12.914063h105.46875c4.191407 0 7.589844-3.394531 7.589844-7.582031s-3.398437-7.585938-7.589844-7.585938h-88.839843v-23.535156h201.390625c.453125.09375.917968.15625 1.398437.167969.0625 0 .128907.003906.191407.003906.546874 0 1.078124-.0625 1.59375-.175781h4.816406v23.539062h-85.507813zm0 0"/><path d="m147.191406 421.324219c-7 6.613281-11.015625 15.90625-11.015625 25.492187 0 2.453125.269531 4.972656.808594 7.5625 2.925781 13.296875 13.433594 23.78125 26.710937 26.699219 2.394532.542969 4.941407.816406 7.566407.816406 8.953125 0 17.484375-3.363281 24.027343-9.484375 7.152344-6.71875 11.085938-15.808594 11.085938-25.59375 0-3.742187-.589844-7.4375-1.757812-10.972656 0-.003906 0-.007812-.003907-.007812-3.261719-9.855469-10.644531-17.707032-20.222656-21.535157-4.152344-1.679687-8.570313-2.535156-13.128906-2.535156-8.972657.003906-17.515625 3.390625-24.070313 9.558594zm43.007813 19.269531c.660156 2.003906.996093 4.097656.996093 6.222656 0 5.558594-2.242187 10.726563-6.292968 14.535156-3.710938 3.46875-8.550782 5.378907-13.636719 5.378907-1.496094 0-2.910156-.148438-4.257813-.453125-7.570312-1.664063-13.535156-7.609375-15.175781-15.074219-.316406-1.515625-.472656-2.949219-.472656-4.386719 0-5.515625 2.226563-10.65625 6.253906-14.460937 3.714844-3.496094 8.5625-5.421875 13.652344-5.421875 2.59375 0 5.089844.480468 7.453125 1.4375 5.441406 2.175781 9.625 6.628906 11.480469 12.222656zm0 0"/><path d="m104.09375 425.320312c-2.765625-1.097656-5.667969-1.65625-8.625-1.65625-5.949219 0-11.597656 2.246094-15.859375 6.285157-4.648437 4.339843-7.316406 10.488281-7.316406 16.867187 0 1.789063.183593 3.449219.5625 5.066406 1.9375 8.738282 8.851562 15.640626 17.679687 17.601563 1.582032.339844 3.242188.511719 4.933594.511719 5.921875 0 11.558594-2.222656 15.855469-6.253906 4.667969-4.355469 7.347656-10.523438 7.347656-16.925782 0-2.503906-.390625-4.945312-1.160156-7.253906-2.148438-6.511719-7.035157-11.703125-13.417969-14.242188zm-3.144531 27.347657c-1.488281 1.394531-3.433594 2.160156-5.480469 2.160156-.613281 0-1.195312-.054687-1.683594-.164063-3.050781-.675781-5.453125-3.0625-6.113281-6.085937-.007813-.039063-.019531-.082031-.027344-.125-.113281-.480469-.167969-1.015625-.167969-1.636719 0-2.226562.886719-4.28125 2.539063-5.824218 1.472656-1.394532 3.40625-2.160157 5.453125-2.160157 1.03125 0 2.050781.195313 3.015625.578125 2.160156.859375 3.882813 2.691406 4.609375 4.902344.003906.007812.007812.015625.011719.027344.253906.765625.382812 1.597656.382812 2.476562 0 2.246094-.898437 4.320313-2.539062 5.851563zm0 0"/><path d="m242.125 469.480469c1.582031.34375 3.242188.515625 4.933594.515625 5.921875 0 11.554687-2.226563 15.855468-6.253906 4.667969-4.355469 7.347657-10.523438 7.347657-16.925782 0-2.503906-.390625-4.945312-1.160157-7.253906-2.144531-6.511719-7.03125-11.699219-13.417968-14.242188-2.765625-1.097656-5.667969-1.65625-8.625-1.65625-5.949219 0-11.597656 2.246094-15.859375 6.285157-4.648438 4.339843-7.316407 10.488281-7.316407 16.867187 0 1.6875.171876 3.351563.527344 5.039063 1.957032 8.753906 8.894532 15.667969 17.714844 17.625zm-.519531-28.484375c1.472656-1.394532 3.410156-2.164063 5.453125-2.164063 1.03125 0 2.046875.195313 3.015625.578125 2.160156.863282 3.882812 2.695313 4.609375 4.902344.003906.007812.007812.019531.011718.03125.253907.765625.382813 1.597656.382813 2.472656 0 2.246094-.894531 4.320313-2.535156 5.851563-1.488281 1.394531-3.4375 2.164062-5.484375 2.164062-.613282 0-1.191406-.058593-1.683594-.164062-3.054688-.679688-5.46875-3.082031-6.128906-6.03125-.121094-.578125-.179688-1.171875-.179688-1.820313 0-2.226562.886719-4.28125 2.539063-5.820312zm0 0"/></svg>