<svg xmlns="http://www.w3.org/2000/svg" width="318" height="148.325" viewBox="0 0 318 148.325">
  <g id="Building_listing" data-name="Building listing" transform="translate(0 0)">
    <path id="Path_437" data-name="Path 437" d="M155.992,463.15l-.545-.123A124.019,124.019,0,0,1,397.3,462.7l-.544.124a122.746,122.746,0,0,0-120.346-95.9C219.174,366.919,168.53,407.39,155.992,463.15Z" transform="translate(-120.836 -315.554)" fill="#3f3d56"/>
    <path id="Path_438" data-name="Path 438" d="M1038.526,480.338l.838,6.143-5.864.558.838-7.54Z" transform="translate(-744.901 -345.603)" fill="#a0616a"/>
    <path id="Path_439" data-name="Path 439" d="M968.944,364.916s.558,7.54.558,7.819-3.909,19.547-3.909,19.547-5.585,10.611,0,10.332,3.909-10.053,3.909-10.053l5.864-16.2-2.513-11.449Z" transform="translate(-702.965 -314.512)" fill="#a0616a"/>
    <path id="Path_440" data-name="Path 440" d="M983.338,480.338l-.838,6.143,5.864.558-.838-7.54Z" transform="translate(-708.143 -345.603)" fill="#a0616a"/>
    <path id="Path_441" data-name="Path 441" d="M989.435,457.312l-1.4,1.955s-.838,8.377,0,11.17,2.513,15.638,2.513,16.475.279,1.4,0,1.675-1.117.279-.558.838.558,2.234.558,2.234v1.4l3.63,20.664s-2.234,2.513-.559,2.513,7.819,0,7.54-2.792l-.559-.279s-.838-18.43-.558-19.268a7.129,7.129,0,0,0,0-2.513s-.558-.838,0-1.117.558-2.513.558-2.513l2.513-17.034s2.234,11.449,3.63,12.566,1.117,3.909,1.117,3.909l1.117,24.573s-1.117,2.793,0,3.351,5.864,2.513,6.143-.279,1.675-27.087,1.675-28.2-.279-1.675,0-2.513-.279-.838,0-.838-.558-.838-.558-1.4V468.2a20.641,20.641,0,0,1,.558-3.351c.279-.558-.279-1.117,0-1.955s-.558-3.63-.558-3.63l-12.566-3.351Z" transform="translate(-720.663 -380.101)" fill="#2f2e41"/>
    <path id="Path_442" data-name="Path 442" d="M1008.521,681.312s1.4-1.4-.558-1.4a9.091,9.091,0,0,0-3.63.838l-1.4,5.026s-5.724,4.608.7,4.049,5.445-.14,5.445-.14,1.955-.558,2.234-1.117-.558-8.657-.558-8.657S1009.917,682.15,1008.521,681.312Z" transform="translate(-729.975 -541.551)" fill="#2f2e41"/>
    <path id="Path_443" data-name="Path 443" d="M1062.549,681.312s-1.4-1.4.558-1.4a9.09,9.09,0,0,1,3.63.838l1.4,5.026s5.724,4.608-.7,4.049-6.283-.14-6.283-.14-1.955-.558-2.234-1.117,1.4-8.657,1.4-8.657S1061.153,682.15,1062.549,681.312Z" transform="translate(-771.996 -541.551)" fill="#2f2e41"/>
    <rect id="Rectangle_275" data-name="Rectangle 275" width="2.486" height="98.197" transform="translate(79.903 49.547)" fill="#3f3d56"/>
    <path id="Path_444" data-name="Path 444" d="M283.332,246.477c.158,34.337-24,62.285-24,62.285S234.918,281.038,234.76,246.7s24-62.285,24-62.285S283.174,212.14,283.332,246.477Z" transform="translate(-178 -184.416)" fill="#3657ff"/>
    <rect id="Rectangle_276" data-name="Rectangle 276" width="192.399" height="40.77" transform="translate(62.969 107.09)" fill="#f2f2f2"/>
    <path id="Path_445" data-name="Path 445" d="M203.5,286.341,224.443,242.5H391.71l15.638,43.841Z" transform="translate(-146.674 -174.783)" fill="#3f3d56"/>
    <rect id="Rectangle_277" data-name="Rectangle 277" width="77.63" height="25.69" transform="translate(109.045 70.509)" fill="#f2f2f2"/>
    <path id="Path_446" data-name="Path 446" d="M376.787,177.5,364.5,203.19h92.15l-7.26-25.69Z" transform="translate(-262.716 -127.934)" fill="#3f3d56"/>
    <rect id="Rectangle_278" data-name="Rectangle 278" width="61.294" height="32.672" transform="translate(115.886 115.188)" fill="#ccc"/>
    <rect id="Rectangle_279" data-name="Rectangle 279" width="32.672" height="31.555" transform="translate(70.509 116.305)" fill="#ccc"/>
    <rect id="Rectangle_280" data-name="Rectangle 280" width="16.894" height="29.6" transform="translate(187.791 118.26)" fill="#3f3d56"/>
    <rect id="Rectangle_281" data-name="Rectangle 281" width="318" height="1" transform="translate(0 146.969)" fill="#3f3d56"/>
    <rect id="Rectangle_282" data-name="Rectangle 282" width="1.64" height="64.8" transform="translate(50.237 82.952)" fill="#3f3d56"/>
    <path id="Path_447" data-name="Path 447" d="M188.765,405.342c.1,22.659-15.837,41.1-15.837,41.1s-16.111-18.295-16.215-40.953,15.837-41.1,15.837-41.1S188.66,382.684,188.765,405.342Z" transform="translate(-121.747 -314.133)" fill="#6c63ff"/>
    <path id="Path_448" data-name="Path 448" d="M188.765,405.342c.1,22.659-15.837,41.1-15.837,41.1s-16.111-18.295-16.215-40.953,15.837-41.1,15.837-41.1S188.66,382.684,188.765,405.342Z" transform="translate(-121.747 -314.133)" fill="#1c3cdd"/>
    <rect id="Rectangle_283" data-name="Rectangle 283" width="1.64" height="64.8" transform="translate(28.911 82.952)" fill="#3f3d56"/>
    <path id="Path_449" data-name="Path 449" d="M112.393,405.342c.1,22.659-15.837,41.1-15.837,41.1S80.445,428.149,80.34,405.49s15.837-41.1,15.837-41.1S112.288,382.684,112.393,405.342Z" transform="translate(-66.702 -314.133)" fill="#3657ff"/>
    <rect id="Rectangle_284" data-name="Rectangle 284" width="8.238" height="7.679" transform="translate(222.976 119.935)" fill="#3f3d56"/>
    <rect id="Rectangle_285" data-name="Rectangle 285" width="8.238" height="7.679" transform="translate(234.006 119.935)" fill="#3f3d56"/>
    <rect id="Rectangle_286" data-name="Rectangle 286" width="8.238" height="7.958" transform="translate(222.976 130.407)" fill="#3f3d56"/>
    <rect id="Rectangle_287" data-name="Rectangle 287" width="8.238" height="7.958" transform="translate(234.006 130.407)" fill="#3f3d56"/>
    <rect id="Rectangle_288" data-name="Rectangle 288" width="6.447" height="6.01" transform="translate(116.165 77.539)" fill="#3f3d56"/>
    <rect id="Rectangle_289" data-name="Rectangle 289" width="6.447" height="6.01" transform="translate(124.798 77.539)" fill="#3f3d56"/>
    <rect id="Rectangle_290" data-name="Rectangle 290" width="6.447" height="6.228" transform="translate(116.165 85.734)" fill="#3f3d56"/>
    <rect id="Rectangle_291" data-name="Rectangle 291" width="6.447" height="6.228" transform="translate(124.798 85.734)" fill="#3f3d56"/>
    <rect id="Rectangle_292" data-name="Rectangle 292" width="6.447" height="6.01" transform="translate(164.475 77.539)" fill="#3f3d56"/>
    <rect id="Rectangle_293" data-name="Rectangle 293" width="6.447" height="6.01" transform="translate(173.107 77.539)" fill="#3f3d56"/>
    <rect id="Rectangle_294" data-name="Rectangle 294" width="6.447" height="6.228" transform="translate(164.475 85.734)" fill="#3f3d56"/>
    <rect id="Rectangle_295" data-name="Rectangle 295" width="6.447" height="6.228" transform="translate(173.107 85.734)" fill="#3f3d56"/>
    <rect id="Rectangle_296" data-name="Rectangle 296" width="6.447" height="6.01" transform="translate(140.46 77.539)" fill="#3f3d56"/>
    <rect id="Rectangle_297" data-name="Rectangle 297" width="6.447" height="6.01" transform="translate(149.092 77.539)" fill="#3f3d56"/>
    <rect id="Rectangle_298" data-name="Rectangle 298" width="6.447" height="6.228" transform="translate(140.46 85.734)" fill="#3f3d56"/>
    <rect id="Rectangle_299" data-name="Rectangle 299" width="6.447" height="6.228" transform="translate(149.092 85.734)" fill="#3f3d56"/>
    <rect id="Rectangle_300" data-name="Rectangle 300" width="4.059" height="3.784" transform="translate(191.561 121.259)" fill="#f2f2f2"/>
    <rect id="Rectangle_301" data-name="Rectangle 301" width="4.059" height="3.784" transform="translate(196.996 121.259)" fill="#f2f2f2"/>
    <rect id="Rectangle_302" data-name="Rectangle 302" width="4.059" height="3.922" transform="translate(191.561 126.419)" fill="#f2f2f2"/>
    <rect id="Rectangle_303" data-name="Rectangle 303" width="4.059" height="3.922" transform="translate(196.996 126.419)" fill="#f2f2f2"/>
    <circle id="Ellipse_24" data-name="Ellipse 24" cx="1" cy="1" r="1" transform="translate(202 133.969)" fill="#f2f2f2"/>
    <rect id="Rectangle_304" data-name="Rectangle 304" width="62" height="1" transform="translate(115 118.969)" fill="#f2f2f2"/>
    <rect id="Rectangle_305" data-name="Rectangle 305" width="62" height="1" transform="translate(115 120.969)" fill="#f2f2f2"/>
    <rect id="Rectangle_306" data-name="Rectangle 306" width="62" transform="translate(115 123.969)" fill="#f2f2f2"/>
    <rect id="Rectangle_307" data-name="Rectangle 307" width="62" transform="translate(115 126.969)" fill="#f2f2f2"/>
    <rect id="Rectangle_308" data-name="Rectangle 308" width="62" transform="translate(115 128.969)" fill="#f2f2f2"/>
    <rect id="Rectangle_309" data-name="Rectangle 309" width="62" height="1" transform="translate(115 130.969)" fill="#f2f2f2"/>
    <rect id="Rectangle_310" data-name="Rectangle 310" width="62" height="1" transform="translate(115 132.969)" fill="#f2f2f2"/>
    <rect id="Rectangle_311" data-name="Rectangle 311" width="62" height="1" transform="translate(115 135.969)" fill="#f2f2f2"/>
    <rect id="Rectangle_312" data-name="Rectangle 312" width="62" height="1" transform="translate(115 138.969)" fill="#f2f2f2"/>
    <rect id="Rectangle_313" data-name="Rectangle 313" width="62" height="1" transform="translate(115 140.969)" fill="#f2f2f2"/>
    <rect id="Rectangle_314" data-name="Rectangle 314" width="62" height="1" transform="translate(115 143.969)" fill="#f2f2f2"/>
    <rect id="Rectangle_315" data-name="Rectangle 315" width="32.672" height="0.558" transform="translate(70.509 118.679)" fill="#f2f2f2"/>
    <rect id="Rectangle_316" data-name="Rectangle 316" width="32.672" height="0.558" transform="translate(70.509 121.192)" fill="#f2f2f2"/>
    <rect id="Rectangle_317" data-name="Rectangle 317" width="32.672" height="0.558" transform="translate(70.509 123.705)" fill="#f2f2f2"/>
    <rect id="Rectangle_318" data-name="Rectangle 318" width="32.672" height="0.558" transform="translate(70.509 126.218)" fill="#f2f2f2"/>
    <rect id="Rectangle_319" data-name="Rectangle 319" width="32.672" height="0.558" transform="translate(70.509 128.731)" fill="#f2f2f2"/>
    <rect id="Rectangle_320" data-name="Rectangle 320" width="32.672" height="0.558" transform="translate(70.509 131.245)" fill="#f2f2f2"/>
    <rect id="Rectangle_321" data-name="Rectangle 321" width="32.672" height="0.558" transform="translate(70.509 133.758)" fill="#f2f2f2"/>
    <rect id="Rectangle_322" data-name="Rectangle 322" width="32.672" height="0.558" transform="translate(70.509 136.271)" fill="#f2f2f2"/>
    <rect id="Rectangle_323" data-name="Rectangle 323" width="32.672" height="0.558" transform="translate(70.509 138.784)" fill="#f2f2f2"/>
    <rect id="Rectangle_324" data-name="Rectangle 324" width="32.672" height="0.558" transform="translate(70.509 141.297)" fill="#f2f2f2"/>
    <rect id="Rectangle_325" data-name="Rectangle 325" width="32.672" height="0.558" transform="translate(70.509 143.811)" fill="#f2f2f2"/>
    <circle id="Ellipse_25" data-name="Ellipse 25" cx="23" cy="23" r="23" transform="translate(222 43.969)" fill="#3657ff"/>
    <path id="Path_450" data-name="Path 450" d="M854.483,203.007H842.475V191h-4.468v12.007H826v4.468h12.007v12.008h4.468V207.475h12.007Z" transform="translate(-595.345 -137.664)" fill="#fff"/>
    <circle id="Ellipse_26" data-name="Ellipse 26" cx="7.26" cy="7.26" r="7.26" transform="translate(265.142 13.823)" fill="#a0616a"/>
    <path id="Path_451" data-name="Path 451" d="M998,271.708s1.117,5.585,1.117,6.423,4.747,3.351,4.747,3.351l5.306-6.7s-3.351-4.747-3.351-5.864Z" transform="translate(-728.111 -245.32)" fill="#a0616a"/>
    <path id="Path_452" data-name="Path 452" d="M984.891,289.826s-2.434-.648-3.172-1.72c0,0-7.719,7.584-7.719,8.98l6.143,10.891s0,3.909.558,4.189,0,0,0,1.117-1.675,8.377-1.117,9.494,1.117.279.559,1.955-1.955,10.611-1.955,10.611,5.026-1.675,12.287,1.117,15.917-1.117,15.917-1.117-2.234-5.026-1.675-6.7-1.4-4.747-1.4-4.747l-1.4-25.69s1.955-11.449.558-12.007l-2.792-1.117-8.943-1.1S988.521,289.547,984.891,289.826Z" transform="translate(-710.813 -256.177)" fill="#d0cde1"/>
    <path id="Path_453" data-name="Path 453" d="M975.191,323.916l-2.792,1.955s-1.4,4.189,0,6.143a14.319,14.319,0,0,1,1.955,4.747l5.585-.559Z" transform="translate(-709.211 -284.961)" fill="#d0cde1"/>
    <path id="Path_454" data-name="Path 454" d="M987.163,332.916a21.36,21.36,0,0,0-1.279,8.272,4.358,4.358,0,0,0,.721,2.06h0l-19.811,9.405s-8.951.927-6.717,4.836,10.332-1.955,10.332-1.955,21.223-3.072,22.9-6.143,2.792-15.917,2.792-15.917Z" transform="translate(-700.519 -291.448)" fill="#a0616a"/>
    <path id="Path_455" data-name="Path 455" d="M980.849,220.89l-1.259-.5a8.592,8.592,0,0,1,6.3-2.647l-1.031-1.134a4.38,4.38,0,0,1,4.809,1.639,22.348,22.348,0,0,1,3.465,4.87h1.349l-.563,1.239,1.97,1.239-2.022-.223a6.855,6.855,0,0,1-.191,3.21l.054.98s-2.344-3.627-2.344-4.131v1.26s-1.259-1.134-1.259-1.891l-.687.882-.344-1.387-4.236,1.387.687-1.134-2.633.378,1.03-1.387s-2.977,1.639-3.091,3.025a7.436,7.436,0,0,1-1.6,3.151l-.687-1.26S977.529,222.781,980.849,220.89Z" transform="translate(-713.99 -207.48)" fill="#2f2e41"/>
    <path id="Path_456" data-name="Path 456" d="M1055.955,291.916h4.188s3.072.558,3.909,6.143,1.676,6.981.838,6.981-10.89-.279-10.89-.558S1055.955,291.916,1055.955,291.916Z" transform="translate(-768.473 -261.897)" fill="#d0cde1"/>
  </g>
</svg>
