<svg height="512pt" viewBox="0 -50 512 512" width="512pt" xmlns="http://www.w3.org/2000/svg"><path d="m256 95.183594c5.511719 0 10-4.488282 10-9.996094 0-5.503906-4.488281-9.992188-10-9.992188s-10 4.488282-10 9.992188c0 5.507812 4.488281 9.996094 10 9.996094zm0 0"/><path d="m99.644531 58.890625-46-17.992187c-5.140625-2.011719-10.945312.527343-12.957031 5.667968s.523438 10.9375 5.667969 12.949219l46 17.988281c1.195312.46875 2.429687.691406 3.640625.691406 3.996094 0 7.773437-2.414062 9.316406-6.355468 2.011719-5.140625-.527344-10.9375-5.667969-12.949219zm0 0"/><path d="m458.355469 40.898438-46 17.992187c-5.140625 2.011719-7.679688 7.808594-5.667969 12.949219 1.542969 3.945312 5.320312 6.355468 9.316406 6.355468 1.210938 0 2.445313-.222656 3.640625-.691406l46-17.988281c5.144531-2.011719 7.679688-7.808594 5.667969-12.949219s-7.8125-7.675781-12.957031-5.667968zm0 0"/><path d="m489.289062 8.953125c-14.222656-9.652344-32.253906-11.628906-48.230468-5.292969l-66.96875 26.558594h-236.179688l-66.964844-26.558594c-15.980468-6.339844-34.011718-4.359375-48.230468 5.292969-14.222656 9.652344-22.714844 25.671875-22.714844 42.851563 0 21.367187 12.839844 40.265624 32.710938 48.144531l95.96875 38.0625 90.015624 111.835937c-7.886718 8.835938-12.695312 20.480469-12.695312 33.226563 0 11.449219 3.882812 22.007812 10.390625 30.441406l-63.179687 78.496094h-17.210938c-5.523438 0-10 4.472656-10 9.992187 0 5.519532 4.476562 9.996094 10 9.996094h70c5.523438 0 10-4.476562 10-9.992188 0-5.519531-4.476562-9.996093-10-9.996093h-27.121094l52.632813-65.394531c7.246093 4.085937 15.59375 6.429687 24.488281 6.429687s17.242188-2.34375 24.488281-6.429687l52.632813 65.394531h-27.121094c-5.523438 0-10 4.476562-10 9.996093 0 5.515626 4.476562 9.992188 10 9.992188h70c5.523438 0 10-4.476562 10-9.992188 0-5.519531-4.476562-9.996093-10-9.996093h-17.210938l-63.179687-78.492188c6.507813-8.4375 10.390625-18.996093 10.390625-30.445312 0-12.746094-4.804688-24.386719-12.695312-33.226563l90.015624-111.835937 95.96875-38.0625c19.871094-7.878907 32.710938-26.777344 32.710938-48.144531 0-17.179688-8.492188-33.199219-22.710938-42.851563zm-233.289062 224.148437c-7.605469 0-14.820312 1.714844-21.28125 4.765626l-78.644531-97.710938h199.851562l-78.644531 97.710938c-6.460938-3.050782-13.675781-4.765626-21.28125-4.765626zm110-157.910156h-70c-5.511719 0-10 4.488282-10 9.996094 0 5.503906 4.488281 9.992188 10 9.992188h70v24.988281h-220v-24.988281h70c5.511719 0 10-4.488282 10-9.992188 0-5.507812-4.488281-9.996094-10-9.996094h-70v-24.984375h220zm-346-23.386718c0-10.710938 5.085938-20.300782 13.949219-26.316407 5.414062-3.675781 11.546875-5.546875 17.777343-5.546875 3.960938 0 7.964844.757813 11.839844 2.296875l62.433594 24.761719v68.441406l-85.914062-34.070312c-12.199219-4.839844-20.085938-16.445313-20.085938-29.566406zm206 231.269531c0-16.535157 13.457031-29.984375 30-29.984375s30 13.449218 30 29.984375c0 16.53125-13.457031 29.984375-30 29.984375s-30-13.453125-30-29.984375zm245.910156-201.703125-85.910156 34.074218v-68.445312l62.433594-24.761719c9.957031-3.953125 20.753906-2.765625 29.621094 3.25 8.859374 6.015625 13.945312 15.609375 13.945312 26.316407 0 13.121093-7.886719 24.726562-20.089844 29.566406zm0 0"/><path d="m266 283.074219c0-5.519531-4.476562-9.996094-10-9.996094s-10 4.476563-10 9.996094 4.476562 9.992187 10 9.992187 10-4.472656 10-9.992187zm0 0"/></svg>