<svg height="496pt" viewBox="0 0 496 496" width="496pt" xmlns="http://www.w3.org/2000/svg"><path d="m448 48v48h-32c0-44.113281-35.886719-80-80-80-11.054688 0-22 2.449219-32.097656 6.878906-14.429688-14.125-34.160156-22.878906-55.902344-22.878906-29.59375 0-55.425781 16.191406-69.265625 40.144531-10.839844-5.265625-22.65625-8.144531-34.734375-8.144531-38.414062 0-70.921875 27.054688-78.390625 64h-17.609375v-48h-48v448h48v-16h400v16h48v-448zm-48 48h-16c0-26.472656-21.527344-48-48-48-4.679688 0-9.289062.800781-13.808594 2.222656-2.054687-5.09375-4.582031-9.949218-7.597656-14.460937 6.839844-2.449219 13.992188-3.761719 21.40625-3.761719 35.289062 0 64 28.710938 64 64zm-73.367188-30.425781c3.085938-1.007813 6.214844-1.574219 9.367188-1.574219 17.648438 0 32 14.351562 32 32h-41.671875c1.070313-5.246094 1.671875-10.585938 1.671875-16 0-4.929688-.511719-9.734375-1.367188-14.425781zm-78.632812-49.574219c35.289062 0 64 28.710938 64 64 0 5.441406-.679688 10.800781-2.023438 16h-16.769531c1.808594-5.089844 2.792969-10.457031 2.792969-16 0-26.472656-21.527344-48-48-48s-48 21.527344-48 48c0 5.535156.984375 10.910156 2.792969 16h-16.769531c-1.34375-5.199219-2.023438-10.558594-2.023438-16 0-35.289062 28.710938-64 64-64zm-27.632812 80c-2.816407-4.847656-4.367188-10.289062-4.367188-16 0-17.648438 14.351562-32 32-32s32 14.351562 32 32c0 5.710938-1.550781 11.152344-4.375 16zm-51.398438-3.808594c.191406 1.28125.4375 2.542969.695312 3.808594h-53.320312c5.609375-9.640625 16.023438-16 27.648438-16 9.734374 0 18.910156 4.550781 24.976562 12.191406zm-24.96875-44.191406c9.792969 0 19.375 2.382812 28.160156 6.726562-1.734375 5.183594-2.96875 10.59375-3.601562 16.195313-7.351563-4.417969-15.796875-6.921875-24.558594-6.921875-20.464844 0-38.441406 13.152344-45.136719 32h-16.785156c7.144531-27.894531 32.3125-48 61.921875-48zm304 64v16h-400v-16zm-128 320v32h-16v-64h16v16h16v-16h16v64h-16v-32zm-224-32v64h-16v-64zm16 0h16v64h-16zm32 0h16v64h-16zm32 0h16v64h-16zm32 0h16v64h-16zm32 0h16v64h-16zm32 0h16v64h-16zm96 0h16v64h-16zm32 0h16v64h-16zm-352-16v-16h400v16zm120-48c0-35.289062 28.710938-64 64-64 13.023438 0 25.671875 4.007812 36.304688 11.335938-2.761719 4.664062-5.097657 9.601562-6.96875 14.769531-8.304688-6.425781-18.550782-10.105469-29.335938-10.105469-26.472656 0-48 21.527344-48 48 0 5.542969.976562 10.910156 2.777344 16h-16.753906c-1.335938-5.191406-2.023438-10.550781-2.023438-16zm243.816406 16h-17.257812c3.539062-7.441406 5.441406-15.625 5.441406-24.015625 0-30.871094-25.128906-56-56-56s-56 25.128906-56 56c0 8.390625 1.894531 16.574219 5.441406 24.015625h-17.25c-2.734375-7.6875-4.191406-15.726562-4.191406-24.015625 0-39.703125 32.296875-72 72-72s72 32.296875 72 72c0 8.289063-1.457031 16.328125-4.183594 24.015625zm-99.59375 0c-5.230468-6.910156-8.222656-15.265625-8.222656-24.015625 0-22.054687 17.945312-40 40-40s40 17.945313 40 40c0 8.742187-2.984375 17.085937-8.214844 24.015625zm-107.855468 0c-2.816407-4.847656-4.367188-10.289062-4.367188-16 0-17.648438 14.351562-32 32-32 9.753906 0 18.855469 4.457031 24.910156 11.992188-.535156 3.9375-.910156 7.917968-.910156 11.992187 0 8.222656 1.214844 16.246094 3.414062 24.015625zm224.21875 0c2.207031-7.769531 3.414062-15.792969 3.414062-24.015625 0-48.519531-39.480469-88-88-88-26.480469 0-50.199219 11.808594-66.34375 30.367187-13.351562-9.28125-29.273438-14.351562-45.65625-14.351562-44.113281 0-80 35.886719-80 80 0 5.414062.609375 10.761719 1.671875 16h-105.671875v-128h400v128zm-316.585938-176v-32h16v64h-16v-16h-16v16h-16v-64h16v32zm256 32v-64h16v64zm-16 0h-16v-64h16zm-32 0h-16v-64h16zm-32 0h-16v-64h16zm-32 0h-16v-64h16zm-32 0h-16v-64h16zm-32 0h-16v-64h16zm-32 0h-16v-64h16zm-96 0h-16v-64h16zm368 0v-32h-16v32h-16v-64h16v16h16v-16h16v64zm-400 272h-16v-416h16zm16-80h16v64h-16zm384 64v-64h16v64zm48 16h-16v-416h16zm0 0"/></svg>