<svg height="482pt" viewBox="-1 0 482 482.2" width="482pt" xmlns="http://www.w3.org/2000/svg"><path d="m119.796875 328h-57.066406l-13.039063-91.289062c-1.984375-12.929688-13.910156-21.921876-26.886718-20.277344-12.976563 1.648437-22.277344 13.335937-20.96875 26.351562l10.839843 97.597656c1.332031 12.054688 8.074219 22.84375 18.320313 29.328126l-30.894532 108.089843 15.390626 4.398438 30.511718-106.800781c2.113282.371093 4.253906.574218 6.398438.601562h59.394531v104h16v-105.472656c11.011719-3.878906 17.621094-15.132813 15.640625-26.640625-1.976562-11.507813-11.964844-19.910157-23.640625-19.886719zm0 32h-67.359375c-12.222656-.007812-22.488281-9.195312-23.839844-21.34375l-10.839844-97.601562c-.269531-2.296876.457032-4.601563 1.996094-6.332032 1.539063-1.730468 3.742188-2.71875 6.058594-2.722656 4.023438.03125 7.417969 2.996094 8 6.976562l14.0625 98.160157c.566406 3.9375 3.941406 6.863281 7.921875 6.863281h64c4.417969 0 8 3.582031 8 8s-3.582031 8-8 8zm0 0"/><path d="m448.597656 369.710938c10.230469-6.480469 16.964844-17.257813 18.300782-29.296876l10.839843-97.597656c1.324219-13.023437-7.976562-24.722656-20.960937-26.371094-12.984375-1.652343-24.917969 7.351563-26.894532 20.289063l-13.023437 91.265625h-57.0625c-11.675781-.023438-21.664063 8.378906-23.644531 19.886719-1.976563 11.507812 4.632812 22.761719 15.644531 26.640625v105.472656h16v-104h59.359375c2.144531-.027344 4.285156-.230469 6.398438-.601562l30.511718 106.800781 15.394532-4.398438zm-21.441406-9.710938h-67.359375c-4.417969 0-8-3.582031-8-8s3.582031-8 8-8h64c3.980469 0 7.355469-2.925781 7.917969-6.863281l14.023437-98.160157c.582031-3.980468 3.980469-6.945312 8-6.976562 2.3125 0 4.515625.984375 6.054688 2.707031 1.542969 1.722657 2.277343 4.019531 2.019531 6.316407l-10.816406 97.625c-1.347656 12.148437-11.613282 21.34375-23.839844 21.351562zm0 0"/><path d="m287.796875 432h-24v-168h96c4.417969 0 8-3.582031 8-8v-32c0-4.417969-3.582031-8-8-8h-240c-4.417969 0-8 3.582031-8 8v32c0 4.417969 3.582031 8 8 8h96v168h-24c-4.417969 0-8 3.582031-8 8v32c0 4.417969 3.582031 8 8 8h96c4.417969 0 8-3.582031 8-8v-32c0-4.417969-3.582031-8-8-8zm-160-184v-16h224v16zm120 16v168h-16v-168zm32 200h-80v-16h80zm0 0"/><path d="m199.796875 112h80c3.234375 0 6.152344-1.949219 7.386719-4.9375 1.238281-2.988281.554687-6.429688-1.730469-8.71875l-37.65625-37.65625v-60.6875h-16v60.6875l-37.65625 37.65625c-2.289063 2.289062-2.972656 5.730469-1.734375 8.71875s4.15625 4.9375 7.390625 4.9375zm40-36.6875 20.6875 20.6875h-41.375zm0 0"/></svg>