<svg id="kitchen_x5F_dining_x5F_table" enable-background="new 0 0 300 300" height="512" viewBox="0 0 300 300" width="512" xmlns="http://www.w3.org/2000/svg"><path d="m198 262h-9.418l-33.471-50.423 19.635-29.577h55.34c2.211 0 4-1.789 4-4v-12c0-2.211-1.789-4-4-4h-63.107l2.998-27.566c.121-1.129-.242-2.258-1-3.105-.758-.844-1.84-1.328-2.977-1.328h-6.452l9.448-14.91c1.184-1.867.629-4.336-1.238-5.52-1.871-1.191-4.34-.629-5.52 1.238l-5.695 8.987v-9.796c0-2.211-1.789-4-4-4s-4 1.789-4 4v11.51l-6.781-10.701c-1.18-1.863-3.648-2.426-5.52-1.238-1.867 1.184-2.422 3.652-1.238 5.52l9.448 14.91h-6.452c-1.137 0-2.219.484-2.977 1.328-.758.848-1.121 1.977-1 3.105l2.998 27.566h-63.021c-2.211 0-4 1.789-4 4v12c0 2.211 1.789 4 4 4h51.879l19.633 29.577-33.473 50.423h-9.414c-2.211 0-4 1.789-4 4s1.789 4 4 4h11.559c1.34 0 2.59-.672 3.332-1.789l32.796-49.403 32.794 49.403c.742 1.117 1.992 1.789 3.332 1.789h11.562c2.211 0 4-1.789 4-4s-1.789-4-4-4zm-55.543-124h19.086l-2.613 24h-13.86zm-64.457 32h63.48 21.039 63.566v4h-148.085zm57.479 12h29.668l-14.835 22.347z"/><path d="m266 134c-2.211 0-4 1.789-4 4v56h-36c-11.027 0-20 8.973-20 20 0 2.211 1.789 4 4 4h4v48c0 2.211 1.789 4 4 4s4-1.789 4-4v-48h40v48c0 2.211 1.789 4 4 4s4-1.789 4-4v-52-16-60c0-2.211-1.789-4-4-4zm-51.316 76c1.652-4.656 6.102-8 11.316-8h36v8z"/><path d="m74 194h-36v-56c0-2.211-1.789-4-4-4s-4 1.789-4 4v60 16 52c0 2.211 1.789 4 4 4s4-1.789 4-4v-48h40v48c0 2.211 1.789 4 4 4s4-1.789 4-4v-48h4c2.211 0 4-1.789 4-4 0-11.027-8.973-20-20-20zm-36 8h36c5.215 0 9.664 3.344 11.316 8h-47.316z"/><path d="m90 54h1.082c2.525 7.095 9.324 12 16.918 12s14.396-4.905 16.919-12h10.166c2.52 7.137 9.188 12 16.915 12 7.671 0 14.412-4.931 16.924-12h6.17c2.522 7.123 9.228 12 16.906 12 7.671 0 14.412-4.931 16.924-12h5.076c11.027 0 20-8.973 20-20 0-2.211-1.789-4-4-4h-156c-2.211 0-4 1.789-4 4 0 11.027 8.973 20 20 20zm18 4c-3.183 0-6.112-1.554-7.97-4h15.938c-1.856 2.446-4.785 4-7.968 4zm44 0c-3.24 0-6.135-1.549-7.975-4h15.93c-1.847 2.435-4.747 4-7.955 4zm40 0c-3.218 0-6.124-1.551-7.97-4h15.925c-1.847 2.435-4.747 4-7.955 4zm33.316-20c-1.652 4.656-6.102 8-11.316 8h-124c-5.215 0-9.664-3.344-11.316-8z"/></svg>