<svg height="511pt" viewBox="0 0 511.99963 511" width="511pt" xmlns="http://www.w3.org/2000/svg"><path d="m278.554688 58.664062h28.53125v29.90625h-28.53125zm0 0"/><path d="m386.867188 88.570312c7.824218 0 15.316406-6.875 14.957031-14.953124-.363281-8.101563-6.574219-14.953126-14.957031-14.953126-7.820313 0-15.3125 6.878907-14.953126 14.953126.363282 8.101562 6.570313 14.953124 14.953126 14.953124zm0 0"/><path d="m341.582031 88.570312c7.820313 0 15.3125-6.875 14.953125-14.953124-.363281-8.101563-6.570312-14.953126-14.953125-14.953126-7.824219 0-15.316406 6.878907-14.957031 14.953126.363281 8.101562 6.570312 14.953124 14.957031 14.953124zm0 0"/><path d="m158.183594 234.253906h29.90625v28.242188h-29.90625zm0 0"/><path d="m158.183594 175.742188h29.90625v28.0625h-29.90625zm0 0"/><path d="m188.273438 204.164062h28.242187v29.90625h-28.242187zm0 0"/><path d="m129.761719 204.164062h28.285156v29.90625h-28.285156zm0 0"/><path d="m466.457031 415.386719c11.269531-2.886719 21.609375-8.976563 29.597657-17.667969 11.425781-12.4375 17.15625-29.21875 15.730468-46.046875l-5.042968-59.421875h-40.285157v-291.75h-466.457031v466.460938h22.917969c20.628906 26.671874 52.929687 43.878906 89.179687 43.878906 36.253906 0 68.554688-17.207032 89.183594-43.878906h95.152344v14.125h-30.589844v29.90625h91.089844v-29.90625h-30.59375v-14.125h110.210937v14.125h-30.589843v29.90625h91.089843v-29.90625h-30.589843v-65.699219zm15.527344-61.183594c.734375 8.632813-2.089844 16.902344-7.953125 23.28125-5.863281 6.382813-13.859375 9.894531-22.527344 9.894531-8.664062 0-16.664062-3.511718-22.523437-9.894531-5.863281-6.378906-8.6875-14.648437-7.953125-23.28125l2.71875-32.046875h55.519531zm-45.433594-323.796875v87.5625h-406.644531v-87.5625zm-324.453125 450.527344c-42.339844 0-77.335937-31.957032-82.191406-73.015625v-19.542969c4.855469-41.058594 39.851562-73.015625 82.191406-73.015625 45.652344 0 82.789063 37.136719 82.789063 82.785156 0 45.652344-37.136719 82.789063-82.789063 82.789063zm214.242188-43.882813v-21.664062c11.269531-2.882813 21.613281-8.976563 29.597656-17.667969 11.425781-12.4375 17.160156-29.21875 15.730469-46.046875l-5.042969-59.417969h-110.472656l-5.042969 59.417969c-1.429687 16.828125 4.304687 33.613281 15.730469 46.046875 7.984375 8.691406 18.324218 14.785156 29.59375 17.667969v21.664062h-78.566406c4.476562-12.128906 6.925781-25.238281 6.925781-38.902343 0-62.140626-50.554688-112.695313-112.695313-112.695313-32.382812 0-61.617187 13.734375-82.191406 35.679687v-173.257812h406.644531v144.378906h-40.28125l-5.042969 59.417969c-1.429687 16.828125 4.304688 33.613281 15.730469 46.046875 7.984375 8.691406 18.324219 14.785156 29.59375 17.667969v21.664062zm-14.953125-49.671875c-8.664063 0-16.664063-3.511718-22.527344-9.894531-5.859375-6.378906-8.683594-14.648437-7.953125-23.28125l2.722656-32.046875h55.519532l2.71875 32.046875c.734374 8.632813-2.089844 16.902344-7.953126 23.28125-5.863281 6.382813-13.863281 9.894531-22.527343 9.894531zm0 0"/><path d="m112.097656 355.558594c-23.480468 0-42.589844 19.105468-42.589844 42.589844 0 23.480468 19.109376 42.585937 42.589844 42.585937 23.484375 0 42.589844-19.105469 42.589844-42.585937 0-23.484376-19.105469-42.589844-42.589844-42.589844zm0 55.269531c-6.992187 0-12.679687-5.6875-12.679687-12.679687 0-6.996094 5.6875-12.683594 12.679687-12.683594 6.996094 0 12.683594 5.6875 12.683594 12.683594 0 6.992187-5.691406 12.679687-12.683594 12.679687zm0 0"/><path d="m211.523438 256.597656h28.289062v29.910156h-28.289062zm0 0"/></svg>