<?xml version="1.0"?>
<svg xmlns="http://www.w3.org/2000/svg" id="OutLine" viewBox="0 0 512 512" width="512" height="512"><path d="M248,223.6V272h-8a8,8,0,0,0-8,8V448H200a40.047,40.047,0,0,0-40,40,8,8,0,0,0,8,8H344a8,8,0,0,0,8-8,40.047,40.047,0,0,0-40-40H280V280a8,8,0,0,0-8-8h-8V223.6a104,104,0,1,0-16,0ZM248,288h16v16H248Zm0,32h16V448H248Zm64,144a24.051,24.051,0,0,1,22.633,16H177.367A24.051,24.051,0,0,1,200,464ZM256,32a88,88,0,1,1-88,88A88.1,88.1,0,0,1,256,32Z"/><path d="M224,152a7.973,7.973,0,0,0,4.8-1.6l13.914-10.437A23.888,23.888,0,0,0,248,142.525V184a8,8,0,0,0,8,8,40.047,40.047,0,0,0,40-40,8,8,0,0,0-1.6-4.8L280,128h40a8,8,0,0,0,8-8,40.047,40.047,0,0,0-40-40,8,8,0,0,0-4.8,1.6L264,96V56a8,8,0,0,0-8-8,40.047,40.047,0,0,0-40,40,8,8,0,0,0,1.6,4.8L226,104H192a8,8,0,0,0-8,8A40.047,40.047,0,0,0,224,152Zm66.492-55.871A24.079,24.079,0,0,1,310.633,112H278.6c-.051-.142-.147-.262-.2-.4a23.937,23.937,0,0,0-2.318-4.663ZM264.4,142.4a23.917,23.917,0,0,0,4.661-2.317L279.875,154.5A24.063,24.063,0,0,1,264,174.629V142.6C264.143,142.551,264.264,142.454,264.4,142.4ZM248.99,116.355a7.92,7.92,0,0,1,.775-1.149,8.125,8.125,0,0,1,1.151-1.245A8.223,8.223,0,0,1,256,112a7.829,7.829,0,0,1,4.842,1.8,8.1,8.1,0,0,1,1.178,1.09,8,8,0,0,1,1.112,1.65,7.772,7.772,0,0,1,.318.744,7.252,7.252,0,0,1-1.215,7.513,8.125,8.125,0,0,1-1.151,1.245,7.692,7.692,0,0,1-11.97-2.21,6.971,6.971,0,0,1-.53-.943,6.979,6.979,0,0,1-.07-5.426A8.682,8.682,0,0,1,248.99,116.355ZM248,65.371V97.4c-.142.051-.263.148-.4.2a23.877,23.877,0,0,0-4.663,2.317L232.125,85.5A24.063,24.063,0,0,1,248,65.371ZM232,120a23.6,23.6,0,0,0,.435,4.3c.091.5.225.987.348,1.48.116.46.182.934.326,1.386l-11.6,8.707A24.079,24.079,0,0,1,201.367,120Z"/></svg>
