<svg height="512" viewBox="0 0 46 60" width="512" xmlns="http://www.w3.org/2000/svg"><g id="024---Fire-Extinguisher"><path id="Shape" d="m5 0c-2.76005315.00330612-4.99669388 2.23994685-5 5v50c.00330612 2.7600532 2.23994685 4.9966939 5 5h36c2.7600532-.0033061 4.9966939-2.2399468 5-5v-50c-.0033061-2.76005315-2.2399468-4.99669388-5-5zm39 5v50c0 1.6568542-1.3431458 3-3 3h-36c-1.65685425 0-3-1.3431458-3-3v-50c0-1.65685425 1.34314575-3 3-3h36c1.6568542 0 3 1.34314575 3 3z"/><path id="Shape" d="m29.453 10.086c-.4949704.141561-.9160083.4690747-1.175.914h-2.278c-.674828.0012054-1.3035444.3426375-1.672.908l-15.2-1.9c-1.856-.241-3.247 5.283-.831 7.7.18667444.1862059.43933497.2911516.703.292.1 0-.852.114 15.328-1.908.3684556.5653625.997172.9067946 1.672.908h2v.424c-1.819948.7942884-2.9973877 2.5902764-3 4.576v28c.0033061 2.7600532 2.2399468 4.9966939 5 5h4c2.7600532-.0033061 4.9966939-2.2399468 5-5v-28c-.0026123-1.9857236-1.180052-3.7817116-3-4.576v-3.424h2c.9102648.0668036 1.7134051.6202056 2.1 1.447.2468713.4942949.8477051.6948713 1.342.448s.6948713-.8477051.448-1.342c-.7316004-1.4988906-2.2237716-2.4781999-3.89-2.553h-2c0-1.1045695-.8954305-2-2-2h-1.584c2.4247863-1.96890537 5.4606552-3.02990337 8.584-3 .5522847 0 1-.44771525 1-1s-.4477153-1-1-1c-4.4056854-.06556856-8.6213884 1.79128304-11.547 5.086zm-19.992 1.979 14.539 1.818v.234l-14.538 1.818c-.61731413-1.2160637-.61768559-2.6536175-.001-3.87zm16.539 2.935v-2h2v2zm11 27h-10v-14h10zm-3 11h-4c-1.6568542 0-3-1.3431458-3-3v-6h10v6c0 1.6568542-1.3431458 3-3 3zm3-31v4h-10v-4c0-1.6568542 1.3431458-3 3-3h4c1.6568542 0 3 1.3431458 3 3zm-3-5h-4v-5h4z"/><path id="Shape" d="m20.293 40.293c-.4559985.4960625-1.063791.8266904-1.728.94.4318051-.9737067.6238401-2.0367574.56-3.1-.0772915-1.6618328-.5339535-3.2839236-1.335-4.742-1.8249422-2.2584283-3.882248-4.3187507-6.138-6.147-.3410481-.2923616-.8351939-.32143-1.2081678-.0710713-.372974.2503588-.53323502.7186978-.3918322 1.1450713 2.774 8.331-6.052 10.631-6.052 17.412.07134437 5.1798319 4.3199752 9.3256011 9.5 9.27 5.1800248.0556011 9.4286556-4.0901681 9.5-9.27-.0289443-1.750103-.3762743-3.4803146-1.025-5.106-.135473-.3148223-.4174876-.5425825-.7537712-.6087596-.3362835-.066177-.6835694.0377434-.9282288.2777596zm-9.293 10.207c0-1.5 2.055-2.691 2.595-4.959 1.533 1.768 2.405 3.534 2.405 4.959 0 1.3807119-1.1192881 2.5-2.5 2.5s-2.5-1.1192881-2.5-2.5zm6.831 1.155c.892-3.332-2.112-7.121-4.7-9.405-.3378492-.2981522-.8333711-.3335271-1.2101479-.0863914s-.5417335.7157321-.4028521 1.1443914c1.157 3.576-3.445 4.264-2.352 8.347-1.96849212-1.3314671-3.15317171-3.5485317-3.166-5.925 0-4.938 7.075-7.89 6.577-15 1.2968569 1.1694146 2.4936906 2.4451898 3.578 3.814.5818516 1.138653.9132737 2.388646.972 3.666.1 2.658-1.359 3.042-1.094 4.048.0734663.2778222.2629032.5106111.52.639 1.292897.5598558 2.7768763.4588617 3.982-.271.297472 1.0082564.4539568 2.0528346.465 3.104-.0135034 2.3770302-1.1993672 4.5942101-3.169 5.925z"/></g></svg>