<svg xmlns="http://www.w3.org/2000/svg" height="512pt" version="1.1" viewBox="0 0 512 512.00075" width="512pt">
<g id="surface1">
<path d="M 14.898438 512 L 496.898438 512 C 505.183594 512 511.898438 505.285156 511.898438 497 L 511.898438 398.644531 C 511.898438 392.554688 508.21875 387.070312 502.585938 384.761719 C 498.535156 383.101562 494.628906 381.023438 490.96875 378.585938 C 461.25 358.773438 422.105469 357.265625 390.933594 374.039062 L 390.933594 358.925781 C 441.75 351.625 480.933594 307.804688 480.933594 255 C 480.933594 246.714844 474.21875 240 465.933594 240 C 436.582031 240 410.007812 252.113281 390.933594 271.597656 L 390.933594 238.925781 C 441.75 231.625 480.933594 187.804688 480.933594 135 C 480.933594 126.714844 474.21875 120 465.933594 120 C 436.582031 120 410.007812 132.113281 390.933594 151.597656 L 390.933594 141.210938 C 400.628906 130.898438 420.933594 105.640625 420.933594 75 C 420.933594 35.613281 387.371094 5.105469 385.941406 3.824219 C 380.246094 -1.273438 371.625 -1.273438 365.929688 3.824219 C 364.5 5.105469 330.933594 35.613281 330.933594 75 C 330.933594 105.640625 351.238281 130.898438 360.933594 141.210938 L 360.933594 151.597656 C 341.863281 132.113281 315.289062 120 285.933594 120 C 277.648438 120 270.933594 126.714844 270.933594 135 C 270.933594 187.804688 310.117188 231.625 360.933594 238.925781 L 360.933594 271.597656 C 341.863281 252.113281 315.289062 240 285.933594 240 C 277.648438 240 270.933594 246.714844 270.933594 255 C 270.933594 307.804688 310.117188 351.625 360.933594 358.925781 L 360.933594 388.160156 C 343.691406 391.992188 325.292969 388.800781 309.96875 378.585938 C 277.578125 356.992188 235.71875 356.992188 203.328125 378.585938 C 187.582031 389.082031 168.585938 392.152344 150.933594 387.816406 L 150.933594 358.925781 C 201.75 351.625 240.933594 307.804688 240.933594 255 C 240.933594 246.714844 234.21875 240 225.933594 240 C 196.578125 240 170.007812 252.113281 150.933594 271.597656 L 150.933594 238.925781 C 201.75 231.625 240.933594 187.804688 240.933594 135 C 240.933594 126.714844 234.21875 120 225.933594 120 C 196.578125 120 170.007812 132.113281 150.933594 151.597656 L 150.933594 141.210938 C 160.628906 130.898438 180.933594 105.640625 180.933594 75 C 180.933594 35.613281 147.367188 5.105469 145.9375 3.824219 C 140.246094 -1.273438 131.625 -1.273438 125.925781 3.824219 C 124.5 5.105469 90.933594 35.613281 90.933594 75 C 90.933594 105.640625 111.238281 130.898438 120.933594 141.210938 L 120.933594 151.597656 C 101.863281 132.113281 75.289062 120 45.933594 120 C 37.648438 120 30.933594 126.714844 30.933594 135 C 30.933594 187.804688 70.117188 231.625 120.933594 238.925781 L 120.933594 271.597656 C 101.863281 252.113281 75.289062 240 45.933594 240 C 37.648438 240 30.933594 246.714844 30.933594 255 C 30.933594 307.804688 70.117188 351.625 120.933594 358.925781 L 120.933594 373.273438 C 90.007812 357.308594 51.597656 359.074219 22.328125 378.585938 C 19.660156 380.367188 16.820312 381.359375 13.644531 381.628906 C 5.875 382.28125 0 388.777344 0 396.574219 L 0 497 C 0 505.285156 6.617188 512 14.898438 512 Z M 449.007812 271.925781 C 442.574219 299.71875 420.652344 321.640625 392.863281 328.074219 C 399.296875 300.285156 421.21875 278.359375 449.007812 271.925781 Z M 449.007812 151.925781 C 442.574219 179.71875 420.652344 201.640625 392.863281 208.074219 C 399.296875 180.285156 421.21875 158.359375 449.007812 151.925781 Z M 302.859375 151.925781 C 330.652344 158.359375 352.574219 180.285156 359.007812 208.074219 C 331.21875 201.640625 309.296875 179.71875 302.859375 151.925781 Z M 302.859375 271.925781 C 330.652344 278.359375 352.574219 300.285156 359.007812 328.074219 C 331.21875 321.640625 309.296875 299.71875 302.859375 271.925781 Z M 209.007812 271.925781 C 202.574219 299.71875 180.652344 321.640625 152.863281 328.074219 C 159.296875 300.285156 181.21875 278.359375 209.007812 271.925781 Z M 209.007812 151.925781 C 202.574219 179.71875 180.652344 201.640625 152.863281 208.074219 C 159.296875 180.285156 181.21875 158.359375 209.007812 151.925781 Z M 62.859375 151.925781 C 90.652344 158.359375 112.574219 180.285156 119.007812 208.074219 C 91.21875 201.640625 69.296875 179.71875 62.859375 151.925781 Z M 62.859375 271.925781 C 90.652344 278.359375 112.574219 300.285156 119.007812 328.074219 C 91.21875 321.640625 69.296875 299.71875 62.859375 271.925781 Z M 375.933594 37.433594 C 382.898438 46.5625 390.933594 60.28125 390.933594 75 C 390.933594 89.722656 382.898438 103.445312 375.933594 112.570312 C 368.96875 103.441406 360.933594 89.71875 360.933594 75 C 360.933594 60.28125 368.972656 46.554688 375.933594 37.433594 Z M 135.933594 37.433594 C 142.898438 46.5625 150.933594 60.28125 150.933594 75 C 150.933594 89.722656 142.898438 103.445312 135.933594 112.570312 C 128.96875 103.441406 120.933594 89.71875 120.933594 75 C 120.933594 60.28125 128.972656 46.554688 135.933594 37.433594 Z M 29.898438 408.316406 C 33.050781 407.066406 36.078125 405.476562 38.96875 403.546875 C 61.210938 388.722656 91.089844 388.722656 113.328125 403.546875 C 145.722656 425.144531 187.582031 425.144531 219.96875 403.546875 C 242.25 388.691406 271.046875 388.695312 293.328125 403.546875 C 325.722656 425.144531 367.582031 425.144531 399.96875 403.546875 C 422.207031 388.722656 452.089844 388.722656 474.328125 403.546875 C 476.78125 405.183594 479.40625 406.703125 482 408.109375 L 482 482 L 29.898438 482 Z M 29.898438 408.316406 " style=" stroke:none;fill-rule:nonzero;fill:rgb(0%,0%,0%);fill-opacity:1;" />
<path d="M 105.933594 421 L 75.933594 421 C 67.648438 421 60.933594 427.714844 60.933594 436 C 60.933594 444.285156 67.648438 451 75.933594 451 L 105.933594 451 C 114.21875 451 120.933594 444.285156 120.933594 436 C 120.933594 427.714844 114.21875 421 105.933594 421 Z M 105.933594 421 " style=" stroke:none;fill-rule:nonzero;fill:rgb(0%,0%,0%);fill-opacity:1;" />
<path d="M 435.933594 421 L 405.933594 421 C 397.648438 421 390.933594 427.714844 390.933594 436 C 390.933594 444.285156 397.648438 451 405.933594 451 L 435.933594 451 C 444.21875 451 450.933594 444.285156 450.933594 436 C 450.933594 427.714844 444.21875 421 435.933594 421 Z M 435.933594 421 " style=" stroke:none;fill-rule:nonzero;fill:rgb(0%,0%,0%);fill-opacity:1;" />
<path d="M 270.933594 421 L 240.933594 421 C 232.648438 421 225.933594 427.714844 225.933594 436 C 225.933594 444.285156 232.648438 451 240.933594 451 L 270.933594 451 C 279.21875 451 285.933594 444.285156 285.933594 436 C 285.933594 427.714844 279.21875 421 270.933594 421 Z M 270.933594 421 " style=" stroke:none;fill-rule:nonzero;fill:rgb(0%,0%,0%);fill-opacity:1;" />
</g>
</svg>