<svg height="512pt" viewBox="0 -100 512.00179 512" width="512pt" xmlns="http://www.w3.org/2000/svg"><path d="m511.855469 201.164062c-4.683594-42.121093-18.992188-83.820312-32.726563-115.996093l16.417969-6.34375c4.71875-1.820313 8.445313-5.371094 10.488281-9.996094 2.046875-4.625 2.171875-9.769531.351563-14.484375l-16.042969-41.53125c-3.765625-9.738281-14.746094-14.597656-24.484375-10.835938l-25.5625 9.875c-.390625-.625-.78125-1.253906-1.183594-1.894531-4.414062-7.078125-12.59375-10.90625-20.851562-9.753906l-70.417969 9.824219c-106.734375 12.671875-158.097656 35.683594-161.902344 37.441406-10.636718 4.445312-20.898437 9.53125-30.773437 15.226562-1.414063-10.769531-10.644531-19.113281-21.792969-19.113281h-25.386719c-12.125 0-21.984375 9.863281-21.984375 21.988281v54.445313c-15.046875 17.386719-28.300781 36.933594-39.503906 58.335937-21.617188 41.285157-28.851562 76.242188-30.269531 83.988282l-13.972657 22.210937c-.160156.261719-.308593.53125-.4375.808594-2.789062 5.933594-2.351562 12.785156 1.164063 18.320313 3.515625 5.535156 9.53125 8.839843 16.089844 8.839843h57.160156c4.136719 0 7.492187-3.355469 7.492187-7.492187 0-4.136719-3.355468-7.488282-7.492187-7.488282h-57.160156c-2.023438 0-3.082031-1.324218-3.441407-1.894531-.34375-.535156-1.023437-1.914062-.386718-3.597656l12.25-19.476563h393.582031v20.886719c0 2.25-1.828125 4.078125-4.078125 4.078125h-305.808594c-4.136718 0-7.492187 3.355469-7.492187 7.492188 0 4.136718 3.355469 7.488281 7.492187 7.488281h305.808594c10.507812 0 19.058594-8.550781 19.058594-19.058594v-56.875c0-4.886719 3.976562-8.863281 8.863281-8.863281h43.242187c6.765626 0 13.230469-2.890625 17.742188-7.929688 4.53125-5.0625 6.703125-11.851562 5.949219-18.625zm-40.59375-185.214843c.984375-.378907 2.054687-.355469 3.019531.070312.964844.429688 1.707031 1.207031 2.085938 2.191407l16.042968 41.53125c.382813.984374.355469 2.058593-.070312 3.023437-.429688.960937-1.207032 1.703125-2.191406 2.085937l-17.085938 6.597657c-.980469-2.136719-1.949219-4.222657-2.902344-6.242188-7.765625-16.457031-13.273437-26.367187-21.84375-40.394531zm-370.277344 49.621093c0-3.863281 3.140625-7.007812 7.007813-7.007812h25.382812c3.867188 0 7.007812 3.144531 7.007812 7.007812v6.316407c-14.066406 9.390625-27.226562 20.125-39.398437 32.136719zm393.757813 144.230469c-1.695313 1.894531-4.03125 2.9375-6.578126 2.9375h-43.242187c-13.148437 0-23.84375 10.695313-23.84375 23.84375v21.007813h-388.515625c3.171875-13.566406 11.023438-41.507813 27.453125-72.753906 13.441406-25.570313 29.921875-48.335938 48.984375-67.671876 23.746094-24.082031 51.621094-42.898437 82.851562-55.925781.097657-.042969.199219-.085937.296876-.132812.5-.234375 51.210937-23.59375 157.539062-36.210938.050781-.003906.101562-.011719.152344-.019531l70.492187-9.835938c2.402344-.332031 4.785157.78125 6.070313 2.84375 13.703125 21.96875 19.957031 31.996094 30.214844 53.722657 15.375 32.570312 34.855468 81.773437 40.351562 131.214843.285156 2.578126-.503906 5.054688-2.226562 6.980469zm0 0"/><path d="m400.328125 145.636719c-1.039063-4.003907-5.128906-6.410157-9.132813-5.367188-4.003906 1.039063-6.40625 5.128907-5.367187 9.132813 1.515625 5.824218 2.65625 11.402344 3.394531 16.578125.367188 2.574219-.375 5.074219-2.082031 7.039062-1.714844 1.976563-4.097656 3.066407-6.714844 3.066407h-41.53125v-13.832032c0-12.019531-9.78125-21.800781-21.804687-21.800781h-75.609375c-12.019531 0-21.800781 9.78125-21.800781 21.800781v13.832032h-54.136719c-3.398438 0-6.34375-1.800782-7.878907-4.816407-1.5625-3.074219-1.277343-6.585937.769532-9.390625 37.105468-50.976562 112.453125-82.515625 183.210937-76.707031 13.695313 1.125 21.921875 11.785156 30.761719 28.617187.675781 1.289063 1.363281 2.652344 2.03125 4.050782 1.789062 3.730468 6.265625 5.304687 9.992188 3.511718 3.730468-1.789062 5.304687-6.261718 3.515624-9.992187-.75-1.558594-1.515624-3.085937-2.277343-4.535156-6.339844-12.078125-18.144531-34.558594-42.796875-36.582031-35.273438-2.898438-73.71875 3.113281-108.261719 16.929687-37.214844 14.886719-67.746094 37.671875-88.289063 65.890625-5.347656 7.34375-6.117187 16.925781-2.007812 25 4.082031 8.023438 12.21875 13.003906 21.230469 13.003906h214.882812c6.921875 0 13.492188-2.996094 18.03125-8.226562 4.527344-5.21875 6.566407-12.128906 5.597657-18.964844-.816407-5.738281-2.070313-11.875-3.726563-18.238281zm-76.417969 30.449219h-89.25v-13.832032c0-3.757812 3.058594-6.820312 6.820313-6.820312h75.609375c3.761718 0 6.820312 3.0625 6.820312 6.820312zm0 0"/><path d="m374.675781 200.5c-13.195312 0-23.929687 10.734375-23.929687 23.929688 0 13.195312 10.734375 23.929687 23.929687 23.929687 13.195313 0 23.929688-10.734375 23.929688-23.929687 0-13.195313-10.734375-23.929688-23.929688-23.929688zm0 32.878906c-4.933593 0-8.949219-4.015625-8.949219-8.949218 0-4.933594 4.015626-8.949219 8.949219-8.949219 4.933594 0 8.949219 4.015625 8.949219 8.949219 0 4.933593-4.015625 8.949218-8.949219 8.949218zm0 0"/></svg>