<svg id="icons" enable-background="new 0 0 64 64" height="512" viewBox="0 0 64 64" width="512" xmlns="http://www.w3.org/2000/svg"><path d="m3 25.502h.002 1.498v2c0 .553.447 1 1 1h2.201l19.69 12.845-19.255 12.56c-.56.364-.944.925-1.082 1.578-.138.654-.013 1.322.353 1.88.463.712 1.246 1.137 2.095 1.137.482 0 .954-.14 1.364-.406l21.101-13.765 21.103 13.766c.408.266.88.405 1.362.405.849 0 1.632-.425 2.094-1.135.366-.56.491-1.228.354-1.882-.138-.653-.522-1.214-1.081-1.577l-19.257-12.562 19.69-12.844h2.268c.553 0 1-.447 1-1v-2h1.498.001.001c1.654 0 3-1.346 3-3s-1.346-3-3-3h-.001-.001-8.047c.033-.161.051-.327.051-.498 0-.566-.196-1.082-.515-1.502.318-.42.515-.936.515-1.502 0-.565-.195-1.082-.514-1.501.318-.419.514-.936.514-1.501 0-1.379-1.122-2.5-2.501-2.5h-14.999c-1.379 0-2.501 1.121-2.501 2.5 0 .565.196 1.082.514 1.501-.317.419-.514.936-.514 1.501 0 .566.196 1.082.515 1.502-.318.42-.515.936-.515 1.502 0 .171.018.337.051.498h-8.026v-5.004c0-.051-.021-.094-.028-.142-.054-3.8-2.224-7.231-5.573-8.768-.266-.121-.57-.121-.834 0-3.392 1.557-5.583 5.054-5.583 8.909v5.004h-10.006-.001-.001c-1.654 0-3 1.346-3 3s1.346 3.001 3 3.001zm8.362 3h1.829l16.945 11.054-.915.597zm20.606 9.859-15.116-9.859h30.23zm22.74 17.224c.15.097.199.237.215.313s.028.226-.071.378c-.146.221-.464.293-.691.145l-20.364-13.284.915-.597zm-44.933.834c-.233.151-.548.079-.694-.146-.099-.15-.086-.3-.07-.376.016-.075.064-.216.216-.313l41.516-27.082h1.829zm47.725-29.917h-51v-1h51zm-21.979-9.998c-.007 0-.013-.004-.02-.004-.276 0-.501-.225-.501-.5s.225-.5.501-.5h14.999c.276 0 .501.225.501.5s-.225.5-.501.5c-.007 0-.013.004-.02.004zm14.98-4.006c.276 0 .501.225.501.5s-.225.5-.501.5c-.003 0-.006.002-.01.002h-14.979c-.004 0-.006-.002-.01-.002-.276 0-.501-.225-.501-.5s.225-.5.501-.5zm-15.5 6.506c0-.275.225-.5.501-.5h14.999c.276 0 .501.225.501.5 0 .271-.22.492-.491.498h-15.019c-.271-.006-.491-.227-.491-.498zm-19.994-4.506c0-2.914 1.556-5.564 4-6.883 2.444 1.317 4 3.969 4 6.883 0 .032.016.061.019.092v4.912h-8.019zm-12.007 7.004h.002 32.48c.007 0 .013.002.02.002.004 0 .006-.002.01-.002h14.979c.004 0 .007.002.01.002.007 0 .013-.002.02-.002h10.478.001c.552 0 1 .448 1 1s-.448 1-1 1h-.001-.001-57.996-.001-.001c-.552 0-1-.448-1-1s.448-1 1-1z"/><path d="m19.037 12.498c.552 0 1-.447 1-1s-.448-1-1-1h-.011c-.552 0-.994.447-.994 1s.452 1 1.005 1z"/><path d="m19.037 16.5h-.011c-.552 0-.994.447-.994 1s.452 1 1.005 1c.552 0 1-.447 1-1s-.448-1-1-1z"/><path d="m21.039 13.498h-.011c-.552 0-.994.447-.994 1s.452 1 1.005 1c.552 0 1-.447 1-1s-.448-1-1-1z"/><path d="m17.035 13.498h-.011c-.552 0-.994.447-.994 1s.452 1 1.005 1c.552 0 1-.447 1-1s-.448-1-1-1z"/></svg>