<svg height="512" viewBox="0 0 60 60" width="512" xmlns="http://www.w3.org/2000/svg"><g id="010---Herbal-Tea"><path id="Shape" d="m0 55c.00330612 2.7600532 2.23994685 4.9966939 5 5h50c2.7600532-.0033061 4.9966939-2.2399468 5-5 0-.5522847-.4477153-1-1-1h-5.246c2.8675115-6.7202308 2.9970471-14.294649.361-21.109-.1977682-.4837016-.2066904-1.0240326-.025-1.514l5.842-15.014c.1198862-.3077373.0800979-.6548211-.1063185-.9274451s-.4954165-.4356245-.8256815-.4355549h-8c-.2651948.0000566-.5195073.1054506-.707.293l-4.195 4.2c-.6980523.6831999-1.7841873.7710831-2.583.209-.421-.281-.855-.533-1.287-.79 1.1352362-1.1235232 1.7733861-2.654795 1.772-4.252v-8.66c-.0033074-3.31233757-2.6876624-5.99669262-6-6h-20c-3.3123376.00330738-5.9966926 2.68766243-6 6v8.66c.0005428 1.6119659.6521634 3.1553727 1.807 4.28-12.12138058 7.1171995-17.06840629 22.1312855-11.552 35.06h-1.255c-.26521649 0-.5195704.1053568-.70710678.2928932s-.29289322.4418903-.29289322.7071068zm28-40c-1.1045695 0-2-.8954305-2-2s.8954305-2 2-2 2 .8954305 2 2-.8954305 2-2 2zm9.488 3.8c-1.251 1.072-4.738 2.2-9.488 2.2-4.72 0-8.2-1.114-9.467-2.179 6.0846292-2.4231097 12.8650166-2.4306216 18.955-.021zm-22.048-1.068c-.9130246-.7588503-1.4408089-1.8847902-1.44-3.072v-8.66c0-2.209139 1.790861-4 4-4h20c2.209139 0 4 1.790861 4 4v8.66c-.0014731 1.2779051-.60791 2.4796516-1.635 3.24-2.8321467-1.4103824-5.885566-2.3236684-9.027-2.7 1.1032617-1.6719464.799669-3.9021674-.7103602-5.2183751-1.5100292-1.31620773-3.7608158-1.31249579-5.2664955.00868537-1.5056797 1.32118113-1.8019146 3.55239133-.6931443 5.22068973-3.1333925.3820814-6.1777507 1.3001246-9 2.714zm1.169 1.944c3.344 4.431 19.508 4.422 22.8-.024 1.0336648.5022059 2.0328605 1.072459 2.991 1.707 1.5949469 1.0821492 3.7314335.8910405 5.109-.457l3.9-3.9h6.124l-5.307 13.65c-.3714952.9551684-.3621885 2.0164932.026 2.965 2.5530125 6.6051917 2.3038506 13.9655793-.69 20.383h-47.124c-5.96573828-12.8467475-.55520033-28.1052558 12.171-34.324zm41.22 36.324c-.4253536 1.1977017-1.5580112 1.9984494-2.829 2h-50c-1.27098879-.0015506-2.40364643-.8022983-2.829-2z"/><path id="Shape" d="m9.031 28.386c-5.0887996 6.5194038-6.42834005 15.2131652-3.538 22.962.12504296.3349365.4192739.5777209.77185889.6368988s.70995797-.0742414.9375-.35.29068407-.6519623.16564111-.9868988c-2.65288557-7.0996048-1.42464967-15.0677994 3.243-21.039.3388267-.436305.2598049-1.0646733-.1765-1.4035-.43630496-.3388267-1.0646733-.2598049-1.4035.1765z"/><circle id="Oval" cx="13" cy="26" r="1"/></g></svg>