<svg height="512" viewBox="0 0 512 512" width="512" xmlns="http://www.w3.org/2000/svg"><path d="m176 176h48a8 8 0 0 0 6.4-12.8l-24-32a8.282 8.282 0 0 0 -12.8 0l-24 32a8 8 0 0 0 6.4 12.8zm24-26.664 8 10.664h-16z"/><path d="m289.6 172.8a7.992 7.992 0 0 0 12.8 0l24-32a8 8 0 0 0 -6.4-12.8h-48a8 8 0 0 0 -6.4 12.8zm14.4-28.8-8 10.664-8-10.664z"/><path d="m488 16h-464a8 8 0 0 0 -8 8v464a8 8 0 0 0 8 8h464a8 8 0 0 0 8-8v-464a8 8 0 0 0 -8-8zm-104 80h-272v-16h272zm-32 112v272h-96v-272zm0-16h-208v-80h208zm-240-80h16v368h-16zm32 368v-272h96v272zm224 0v-368h16v368zm112 0h-80v-400a16.021 16.021 0 0 0 -16-16h-272a16.021 16.021 0 0 0 -16 16v400h-64v-448h448z"/><path d="m440 264a24 24 0 1 0 -24-24 24.027 24.027 0 0 0 24 24zm0-32a8 8 0 1 1 -8 8 8.005 8.005 0 0 1 8-8z"/><path d="m440 328a24 24 0 1 0 -24-24 24.027 24.027 0 0 0 24 24zm0-32a8 8 0 1 1 -8 8 8.005 8.005 0 0 1 8-8z"/></svg>