<svg xmlns="http://www.w3.org/2000/svg" width="20" height="19.76" viewBox="0 0 20 19.76">
  <g id="Listings" transform="translate(-50 -204.121)">
    <path id="Path_380" data-name="Path 380" d="M69.589,209.215,62.9,204.121l-6.686,5.094a1.054,1.054,0,0,0-.135.124,1.6,1.6,0,0,0-.921-.3,1.615,1.615,0,0,0-1.58,1.29h-1v.645H50.968a.969.969,0,0,0-.968.968v10.967a.969.969,0,0,0,.968.968h8.387a.969.969,0,0,0,.968-.968v-1.619l4.516.007a1.29,1.29,0,0,0,0-2.581H60.323v-1.613h7.742v-6.222l.252.2A1.043,1.043,0,0,0,70,210.258v-.213A1.05,1.05,0,0,0,69.589,209.215Zm-16.364,1.763h.968v-.323a.968.968,0,0,1,1.936,0v.323H57.1v1.935H53.226Zm4.516,2.581v-.646h.645v5.807H57.1l-2.036.569a.75.75,0,0,0,0,1.443l1.948.556,1.379,0v.655H51.936v-9.033h.645v.646Zm-.323,7.1v-1.29H62.9v1.29Zm-.645-.1-1.537-.439a.105.105,0,0,1-.076-.1.1.1,0,0,1,.076-.1l1.537-.44Zm2.9,2.363a.323.323,0,0,1-.323.323H50.968a.322.322,0,0,1-.323-.323V211.946a.323.323,0,0,1,.323-.323h1.613v.645H51.29v10.323h7.742v-1.3h.645Zm5.807-2.9a.646.646,0,0,1-.645.645h-1.29v-1.29h1.29A.646.646,0,0,1,65.484,220.01Zm-6.452-1.29v-6.452h-1.29v-.645h1.613a.323.323,0,0,1,.323.323v6.774Zm2.581-2.258v-3.226h2.581v3.226Zm5.807,0H64.839v-3.871H60.968v3.871h-.645v-4.516a.969.969,0,0,0-.968-.968H57.742v-.093l5.161-4.014,4.516,3.512Zm1.935-6.2a.4.4,0,0,1-.642.314l-5.81-4.519-5.5,4.28h-.659a1.607,1.607,0,0,0-.21-.525.442.442,0,0,1,.076-.08l6.3-4.8,6.295,4.8a.4.4,0,0,1,.157.316Z" fill="#3657ff"/>
    <path id="Path_381" data-name="Path 381" d="M65.161,209.365H63.226V211.3h1.936Zm-.645,1.29h-.645v-.645h.645Z" fill="#3657ff"/>
    <path id="Path_382" data-name="Path 382" d="M60.645,211.3h1.935v-1.936H60.645Zm.645-1.291h.645v.645H61.29Z" fill="#3657ff"/>
    <path id="Path_383" data-name="Path 383" d="M53.871,211.623h.645v.645h-.645Z" fill="#3657ff"/>
    <path id="Path_384" data-name="Path 384" d="M55.806,211.623h.645v.645h-.645Z" fill="#3657ff"/>
    <path id="Path_385" data-name="Path 385" d="M52.581,218.72h3.226v-2.447l1.518-1.519-.456-.456-1.2,1.2H52.581Zm.645-2.581h1.8l-.834.834-.417-.417-.456.457.873.873.968-.968v1.157H53.226Z" fill="#3657ff"/>
  </g>
</svg>
