<?xml version="1.0" encoding="iso-8859-1"?>
<!-- Generator: Adobe Illustrator 19.0.0, SVG Export Plug-In . SVG Version: 6.00 Build 0)  -->
<svg version="1.1" id="Capa_1" xmlns="http://www.w3.org/2000/svg" xmlns:xlink="http://www.w3.org/1999/xlink" x="0px" y="0px"
	 viewBox="0 0 480 480" style="enable-background:new 0 0 480 480;" xml:space="preserve">
<g>
	<g>
		<path d="M456,195.392V176h-16v16h-32v-32h16v-16h-24h-64h-24v16h16v32h-32c-22.056,0-40,17.944-40,40v8h-32v-8
			c0-22.056-17.944-40-40-40h-64c-22.056,0-40,17.944-40,40v8H40c-22.056,0-40,17.944-40,40v128c0,22.056,17.944,40,40,40v8
			c0,13.232,10.768,24,24,24h16c13.232,0,24-10.768,24-24v-8h96v8c0,13.232,10.768,24,24,24h16c13.232,0,24-10.768,24-24v-8
			c13.032,0,24.52-6.36,31.824-16.032c0.064,0,0.112,0.032,0.176,0.032h16v8c0,13.232,10.768,24,24,24s24-10.768,24-24v-8h24v8
			c0,13.232,10.768,24,24,24s24-10.768,24-24v-8h8c22.056,0,40-17.944,40-40V232C480,215.64,470.104,201.584,456,195.392z M344,160
			h48v32h-48V160z M96,232c0-13.232,10.768-24,24-24h64c13.232,0,24,10.768,24,24v8H96V232z M40,432c-13.232,0-24-10.768-24-24V280
			c0-13.232,10.768-24,24-24h24v176H48H40z M88,456c0,4.416-3.592,8-8,8H64c-4.408,0-8-3.584-8-8v-8h32V456z M96,432H80V256h8h128h8
			v176h-16H96z M248,456c0,4.416-3.592,8-8,8h-16c-4.408,0-8-3.584-8-8v-8h32V456z M288,408c0,13.232-10.768,24-24,24h-8h-16V256h24
			c13.232,0,24,10.768,24,24V408z M344,440c0,4.416-3.592,8-8,8c-4.408,0-8-3.584-8-8v-8h16V440z M416,440c0,4.416-3.592,8-8,8
			c-4.408,0-8-3.584-8-8v-8h16V440z M464,392c0,13.232-10.768,24-24,24h-16h-32h-40h-32h-16v-8v-56h160V392z M464,336H304v-48h160
			V336z M464,272H303.192c-0.136-0.68-0.424-1.296-0.6-1.96c-0.424-1.624-0.872-3.232-1.48-4.768
			c-0.352-0.88-0.784-1.704-1.192-2.552c-0.656-1.36-1.352-2.688-2.152-3.96c-0.52-0.832-1.088-1.616-1.664-2.4
			c-0.872-1.176-1.792-2.296-2.784-3.376c-0.664-0.72-1.328-1.416-2.04-2.088c-1.08-1.016-2.24-1.936-3.432-2.832
			c-0.752-0.568-1.488-1.152-2.28-1.664c-1.352-0.872-2.784-1.6-4.248-2.304c-0.744-0.36-1.448-0.784-2.216-1.096
			c-2.136-0.872-4.352-1.576-6.656-2.072c-0.144-0.032-0.28-0.096-0.424-0.128c-0.008,0-0.016-0.008-0.024-0.008V232
			c0-13.232,10.768-24,24-24h40h64h40c13.232,0,24,10.768,24,24V272z"/>
	</g>
</g>
<g>
	<g>
		<path d="M182.4,339.2l-24-32c-3.016-4.032-9.784-4.032-12.8,0l-24,32c-2.136,2.84-2.136,6.752,0,9.592l24,32
			c1.504,2.016,3.88,3.2,6.4,3.2c2.52,0,4.888-1.184,6.4-3.2l24-32C184.536,345.952,184.536,342.04,182.4,339.2z M152,362.664
			L138,344l14-18.664L166,344L152,362.664z"/>
	</g>
</g>
<g>
	<g>
		<path d="M288,56h-8V40c0-22.056-17.944-40-40-40c-22.056,0-40,17.944-40,40v16h-8c-4.416,0-8,3.576-8,8v96c0,4.424,3.584,8,8,8h96
			c4.416,0,8-3.576,8-8V64C296,59.576,292.416,56,288,56z M216,40c0-13.232,10.768-24,24-24s24,10.768,24,24v16h-48V40z M280,152
			h-80V72h8h64h8V152z"/>
	</g>
</g>
<g>
	<g>
		<path d="M240,88c-13.232,0-24,10.768-24,24s10.768,24,24,24s24-10.768,24-24S253.232,88,240,88z M240,120c-4.408,0-8-3.584-8-8
			s3.592-8,8-8s8,3.584,8,8S244.408,120,240,120z"/>
	</g>
</g>
<g>
	<g>
		<rect x="48" y="144" width="16" height="16"/>
	</g>
</g>
<g>
	<g>
		<rect x="48" y="112" width="16" height="16"/>
	</g>
</g>
<g>
	<g>
		<rect x="48" y="80" width="16" height="16"/>
	</g>
</g>
<g>
	<g>
		<rect x="80" y="80" width="16" height="16"/>
	</g>
</g>
<g>
	<g>
		<rect x="112" y="80" width="16" height="16"/>
	</g>
</g>
<g>
	<g>
		<rect x="144" y="80" width="16" height="16"/>
	</g>
</g>
<g>
	<g>
		<rect x="312" y="80" width="16" height="16"/>
	</g>
</g>
<g>
	<g>
		<rect x="48" y="176" width="16" height="16"/>
	</g>
</g>
<g>
	<g>
		<rect x="344" y="80" width="16" height="16"/>
	</g>
</g>
<g>
	<g>
		<rect x="376" y="80" width="16" height="16"/>
	</g>
</g>
<g>
	<g>
		<rect x="408" y="80" width="16" height="16"/>
	</g>
</g>
<g>
	<g>
		<rect x="440" y="80" width="16" height="16"/>
	</g>
</g>
<g>
	<g>
		<rect x="440" y="112" width="16" height="16"/>
	</g>
</g>
<g>
	<g>
		<rect x="440" y="144" width="16" height="16"/>
	</g>
</g>
<g>
	<g>
		<rect x="48" y="208" width="16" height="16"/>
	</g>
</g>
<g>
</g>
<g>
</g>
<g>
</g>
<g>
</g>
<g>
</g>
<g>
</g>
<g>
</g>
<g>
</g>
<g>
</g>
<g>
</g>
<g>
</g>
<g>
</g>
<g>
</g>
<g>
</g>
<g>
</g>
</svg>
