<svg xmlns="http://www.w3.org/2000/svg" width="24" height="39.205" viewBox="0 0 24 39.205">
  <g id="Group_391" data-name="Group 391" transform="translate(-592 -479.757)">
    <g id="map_location" data-name="map location" transform="translate(592 479.757)">
      <path id="Path_265" data-name="Path 265" d="M4.909,14.267c0,7.58,11.455,24.177,11.455,24.177s11.455-16.6,11.455-24.177S22.69.545,16.364.545,4.909,6.689,4.909,14.267ZM16.364,5.773l7.091,6.534H21.273v7.841H11.455V12.307H9.273Z" transform="translate(-4.364 0.108)" fill="#3657ff"/>
      <path id="Path_266" data-name="Path 266" d="M11.455,19.284h3.273V14.057H18v5.227h3.273V11.443h2.182L16.364,4.909,9.273,11.443h2.182Z" transform="translate(-4.364 0.972)" fill="#3657ff"/>
      <path id="Path_267" data-name="Path 267" d="M14.727,12.545H18v5.227H14.727Z" transform="translate(-4.364 2.483)" fill="#bddbff"/>
      <g id="Group_389" data-name="Group 389">
        <path id="Path_268" data-name="Path 268" d="M16.364,39.205a.516.516,0,0,1-.421-.237C15.47,38.283,4.364,22.1,4.364,14.375,4.364,6.436,9.736,0,16.364,0s12,6.436,12,14.375c0,7.725-11.107,23.908-11.579,24.593A.516.516,0,0,1,16.364,39.205Zm0-37.9c-6.022.008-10.9,5.854-10.909,13.068,0,6.451,8.857,20.069,10.909,23.138,2.053-3.07,10.909-16.689,10.909-23.138C27.266,7.161,22.386,1.315,16.364,1.307Z" transform="translate(-4.364)" fill="#fff"/>
        <path id="Path_269" data-name="Path 269" d="M23.787,11.034,16.7,4.5a.476.476,0,0,0-.665,0L8.94,11.034a.743.743,0,0,0-.1.916.52.52,0,0,0,.432.255h1.636v7.188a.607.607,0,0,0,.545.653h9.818a.607.607,0,0,0,.545-.653V12.2h1.636A.607.607,0,0,0,24,11.551.706.706,0,0,0,23.787,11.034Zm-8.515,7.705V14.818h2.182v3.921Zm6-7.841a.607.607,0,0,0-.545.653v7.188H18.545V14.165A.607.607,0,0,0,18,13.511H14.727a.607.607,0,0,0-.545.653v4.574H12V11.551a.607.607,0,0,0-.545-.653h-.578l5.487-5.056L21.851,10.9Z" transform="translate(-4.364 0.864)" fill="#fff"/>
      </g>
    </g>
  </g>
</svg>
