<svg xmlns="http://www.w3.org/2000/svg" width="18.125" height="19.376" viewBox="0 0 18.125 19.376">
  <path id="Member" d="M66.632,278.932a2.5,2.5,0,1,0-2.643,0,3.763,3.763,0,0,0-1.922,1.633,3.689,3.689,0,0,0-.748-.38,2.5,2.5,0,1,0-2.639,0,3.739,3.739,0,0,0-.748.38,3.761,3.761,0,0,0-1.922-1.632,2.5,2.5,0,1,0-2.643,0,3.752,3.752,0,0,0-2.43,3.506v2.5a1.251,1.251,0,0,0,1.25,1.25H52.5v5a1.245,1.245,0,0,0,2.188.818,1.245,1.245,0,0,0,2.188-.818v-3.924a1.242,1.242,0,0,0,.625.174h.313v5a1.245,1.245,0,0,0,2.188.818,1.245,1.245,0,0,0,2.188-.818v-5H62.5a1.242,1.242,0,0,0,.625-.174v3.924a1.245,1.245,0,0,0,2.188.818,1.245,1.245,0,0,0,2.188-.818v-5h.313a1.251,1.251,0,0,0,1.25-1.25v-2.5A3.752,3.752,0,0,0,66.632,278.932Zm-1.993.462a3.144,3.144,0,0,1,.674-.082,3.094,3.094,0,0,1,.678.077l-.678.949Zm.265,1.447-.409.409-.6-1.589c.041-.021.079-.045.121-.064Zm.816,0,.888-1.243.123.059-.6,1.593Zm-2.283-4.029a1.875,1.875,0,1,1,1.875,1.876A1.876,1.876,0,0,1,63.438,276.812Zm-3.132,6.166-.306.459-.306-.459.177-2.409c.043,0,.085-.007.128-.007s.085,0,.128.007Zm-2.181-4.916A1.875,1.875,0,1,1,60,279.938,1.876,1.876,0,0,1,58.125,278.062Zm-3.437,1.25a3.165,3.165,0,0,1,.57.059c-.1.332-.32.567-.57.567s-.473-.237-.571-.571A3.157,3.157,0,0,1,54.688,279.312Zm-1.875-2.5a1.875,1.875,0,1,1,1.875,1.876A1.876,1.876,0,0,1,52.813,276.812Zm3.438,14.376a.625.625,0,0,1-1.25,0v-6.563h-.625v6.563a.625.625,0,0,1-1.25,0v-10H52.5v4.374h-.312a.625.625,0,0,1-.625-.624v-2.5a3.128,3.128,0,0,1,1.956-2.9,1.179,1.179,0,0,0,2.336.005,3.124,3.124,0,0,1,1.578,1.414,3.736,3.736,0,0,0-1.183,2.727v7.5Zm6.25-4.376h-.312v-4.374h-.625v10a.625.625,0,0,1-1.25,0v-6.563h-.625v6.563a.625.625,0,0,1-1.25,0v-10h-.625v4.374H57.5a.625.625,0,0,1-.625-.624v-2.5a3.128,3.128,0,0,1,2.364-3.028l-.183,2.487L60,284.563l.944-1.416-.183-2.487a3.128,3.128,0,0,1,2.364,3.028v2.5A.625.625,0,0,1,62.5,286.812Zm5.938-1.874a.625.625,0,0,1-.625.624H67.5V281.5h-.625v9.688a.625.625,0,0,1-1.25,0v-6.563H65v6.563a.625.625,0,0,1-1.25,0v-7.5a3.736,3.736,0,0,0-1.183-2.727,3.11,3.11,0,0,1,.791-.953l.9,2.368,1.058-1.059,1.058,1.059.9-2.372a3.122,3.122,0,0,1,1.169,2.434Z" transform="translate(-50.938 -274.312)" fill="#363636"/>
</svg>
