<svg id="Layer_1" height="512" viewBox="0 0 512 512" width="512" xmlns="http://www.w3.org/2000/svg" data-name="Layer 1"><path d="m225.713 374.128v75.95h-110.892a27.831 27.831 0 0 0 -22.555 11.571l-14.553 20.268a7 7 0 0 0 5.687 11.083h345.2a7 7 0 0 0 5.686-11.083l-14.552-20.267a27.83 27.83 0 0 0 -22.555-11.572h-110.892v-75.95c96.566-14.65 170.807-98.224 170.807-198.815a29.223 29.223 0 0 0 -46.553-23.549c-11.391-75.058-76.352-132.764-154.541-132.764s-143.15 57.706-154.541 132.764a29.223 29.223 0 0 0 -46.553 23.549c0 100.587 74.241 184.165 170.807 198.815zm171.466 89.95a13.8 13.8 0 0 1 11.183 5.737l6.595 9.185h-317.914l6.595-9.185a13.8 13.8 0 0 1 11.183-5.737zm-157.466-14v-74.333q8.06.649 16.287.662t16.287-.662v74.333zm188.138-290.007a15.243 15.243 0 1 1 -15.242 15.242 15.26 15.26 0 0 1 15.242-15.242zm-171.851-127.071c78.472 0 142.314 63.841 142.314 142.313s-63.842 142.314-142.314 142.314-142.314-63.841-142.314-142.314 63.842-142.313 142.314-142.313zm-171.851 127.071a15.243 15.243 0 1 1 -15.243 15.242 15.259 15.259 0 0 1 15.243-15.242zm0 44.485a29.079 29.079 0 0 0 17.31-5.693c11.391 75.059 76.353 132.764 154.541 132.764s143.15-57.7 154.541-132.764a29.153 29.153 0 0 0 30.743 2.412c-12.678 90.919-90.929 161.132-185.284 161.132s-172.606-70.213-185.284-161.132a29.048 29.048 0 0 0 13.433 3.281z"/></svg>