<svg height="512pt" viewBox="0 -23 512 512" width="512pt" xmlns="http://www.w3.org/2000/svg"><path d="m504.5 217.03125c4.144531 0 7.5-3.355469 7.5-7.5v-40.40625c0-4.140625-3.355469-7.5-7.5-7.5h-111.699219v-63.210938c0-4.140624-3.355469-7.5-7.5-7.5h-40.40625c-4.140625 0-7.5 3.359376-7.5 7.5v63.210938h-13.285156v-73.3125c0-1.621094-.523437-3.203125-1.5-4.5l-13.652344-18.203125v-58.109375c0-4.144531-3.355469-7.5-7.5-7.5h-30.304687c-4.140625 0-7.5 3.355469-7.5 7.5v58.109375l-13.652344 18.203125c-.972656 1.296875-1.5 2.878906-1.5 4.5v73.3125h-163.21875c4.144531 0 7.5-3.355469 7.5-7.5 0-4.140625-3.355469-7.5-7.5-7.5h-7.652344v-20.355469h6.460938c6.710937 0 12.742187-3.726562 15.742187-9.726562l17.410157-34.824219c1.164062-2.324219 1.039062-5.085938-.328126-7.296875-1.363281-2.210937-3.777343-3.558594-6.378906-3.558594h-80.8125c-2.597656 0-5.011718 1.347657-6.378906 3.558594s-1.492188 4.972656-.328125 7.296875l17.410156 34.824219c3.003907 6 9.035157 9.726562 15.746094 9.726562h6.457031v20.355469h-7.652344c-4.140624 0-7.5 3.359375-7.5 7.5 0 4.144531 3.359376 7.5 7.5 7.5h-47.476562c-4.144531 0-7.5 3.359375-7.5 7.5v40.40625c0 4.144531 3.355469 7.5 7.5 7.5h3v26.917969c-6.175781 2.734375-10.5 8.914062-10.5 16.089843v20.203126c0 7.179687 4.324219 13.359374 10.5 16.09375v18.972656c0 4.140625 3.355469 7.5 7.5 7.5s7.5-3.359375 7.5-7.5v-17.464844h35.109375v45.609375h-14.722656c-4.144531 0-7.5 3.359375-7.5 7.5 0 4.144531 3.355469 7.5 7.5 7.5h14.722656v61.773437h-11.15625c-10.199219 0-19.222656 6.5-22.445313 16.179688l-1.507812 4.519531v-90.660156c0-4.144531-3.355469-7.5-7.5-7.5s-7.5 3.355469-7.5 7.5v107.769531c0 4.144532 3.355469 7.5 7.5 7.5h476c4.144531 0 7.5-3.355468 7.5-7.5v-107.769531c0-4.144531-3.355469-7.5-7.5-7.5s-7.5 3.355469-7.5 7.5v90.660156l-1.507812-4.519531c-3.226563-9.679688-12.246094-16.179688-22.445313-16.179688h-11.15625v-61.773437h14.722656c4.144531 0 7.5-3.355469 7.5-7.5 0-4.140625-3.355469-7.5-7.5-7.5h-14.722656v-45.609375h35.109375v17.464844c0 4.140625 3.355469 7.5 7.5 7.5s7.5-3.359375 7.5-7.5v-18.972656c6.175781-2.734376 10.5-8.914063 10.5-16.09375v-20.203126c0-7.175781-4.324219-13.355468-10.5-16.089843v-26.917969zm-450.65625-107.199219-11.984375-23.96875h56.542969l-11.984375 23.96875c-.441407.886719-1.335938 1.4375-2.328125 1.4375h-27.917969c-.992187 0-1.886719-.550781-2.328125-1.4375zm323.957031-3.917969v15.304688h-25.40625v-15.304688zm-25.40625 30.304688h25.40625v25.40625h-25.40625zm-88.894531-30.304688h45.609375v29.449219h-45.609375zm30.457031-90.914062v15.304688h-15.304687v-15.304688zm-16.804687 57.609375c.972656-1.296875 1.5-2.875 1.5-4.5v-22.804687h15.304687v22.804687c0 1.625.527344 3.203125 1.5 4.5l13.652344 18.203125v.101562h-45.609375v-.101562zm-13.652344 77.753906h45.609375v11.261719h-45.609375zm-248.5 26.261719h482v25.40625h-482zm2.601562 106.222656c-1.433593 0-2.601562-1.167968-2.601562-2.605468v-20.203126c0-1.433593 1.167969-2.601562 2.601562-2.601562h101.015626c1.4375 0 2.605468 1.167969 2.605468 2.601562v20.203126c0 1.4375-1.167968 2.605468-2.605468 2.605468zm31.851563 152.378906h37.3125c3.734375 0 7.039063 2.382813 8.21875 5.925782l3.128906 9.382812h-60.003906l3.125-9.382812c1.183594-3.542969 4.484375-5.925782 8.21875-5.925782zm225.203125 0c3.734375 0 7.035156 2.378907 8.214844 5.925782l3.128906 9.382812h-60.003906l3.128906-9.386718c1.183594-3.542969 4.484375-5.921876 8.21875-5.921876zm196.109375 5.925782 3.125 9.382812h-60l3.125-9.382812c1.183594-3.542969 4.484375-5.925782 8.21875-5.925782h37.3125c3.734375 0 7.035156 2.382813 8.21875 5.925782zm23.632813-183.714844c1.433593 0 2.601562 1.167969 2.601562 2.601562v20.203126c0 1.4375-1.167969 2.605468-2.601562 2.605468h-101.015626c-1.4375 0-2.601562-1.167968-2.601562-2.605468v-20.203126c0-1.433593 1.164062-2.601562 2.601562-2.601562zm-7.898438-15h-93.117188c-9.707031 0-17.601562 7.898438-17.601562 17.601562v20.203126c0 9.707031 7.894531 17.605468 17.601562 17.605468h43.007813v45.609375h-14.722656c-4.144531 0-7.5 3.355469-7.5 7.5 0 4.140625 3.355469 7.5 7.5 7.5h14.722656v61.769531h-11.15625c-10.199219 0-19.222656 6.503907-22.449219 16.179688l-4.707031 14.128906h-96.265625l-4.707031-14.128906c-3.226563-9.675781-12.246094-16.179688-22.449219-16.179688h-11.15625v-61.769531h14.722656c4.144532 0 7.5-3.359375 7.5-7.5 0-4.144531-3.355468-7.5-7.5-7.5h-14.722656v-45.609375h43.007812c9.707032 0 17.601563-7.898437 17.601563-17.605468v-20.203126c0-9.703124-7.894531-17.601562-17.601563-17.601562h-32.992187c-4.144531 0-7.5 3.359375-7.5 7.5 0 4.144531 3.355469 7.5 7.5 7.5h32.992187c1.433594 0 2.601563 1.167969 2.601563 2.601562v20.203126c0 1.4375-1.167969 2.605468-2.601563 2.605468h-101.015624c-1.433594 0-2.601563-1.167968-2.601563-2.605468v-20.203126c0-1.433593 1.167969-2.601562 2.601563-2.601562h32.992187c4.144531 0 7.5-3.355469 7.5-7.5 0-4.140625-3.355469-7.5-7.5-7.5h-32.992187c-9.707032 0-17.601563 7.898438-17.601563 17.601562v20.203126c0 9.707031 7.894531 17.605468 17.601563 17.605468h43.007812v45.609375h-14.722656c-4.144532 0-7.5 3.355469-7.5 7.5 0 4.140625 3.355468 7.5 7.5 7.5h14.722656v61.769531h-11.15625c-10.199219 0-19.222656 6.503907-22.445312 16.179688l-4.710938 14.128906h-96.261719l-4.710937-14.128906c-3.226563-9.675781-12.25-16.179688-22.449219-16.179688h-11.15625v-61.769531h14.722656c4.144531 0 7.5-3.359375 7.5-7.5 0-4.144531-3.355469-7.5-7.5-7.5h-14.722656v-45.609375h43.007813c9.707031 0 17.601562-7.898437 17.601562-17.605468v-20.203126c0-9.703124-7.894531-17.601562-17.601562-17.601562h-93.117188v-25.40625h461zm0 0"/></svg>