<svg id="Layer_1" enable-background="new 0 0 512 512" height="512" viewBox="0 0 512 512" width="512" xmlns="http://www.w3.org/2000/svg"><path d="m473.499 20.065h-326.816c-4.142 0-7.5 3.358-7.5 7.5s3.358 7.5 7.5 7.5h326.816c12.958 0 23.501 10.542 23.501 23.501v394.867c0 12.958-10.542 23.501-23.501 23.501h-434.998c-12.959.001-23.501-10.542-23.501-23.5v-394.868c0-12.958 10.542-23.501 23.501-23.501h77.604c4.142 0 7.5-3.358 7.5-7.5s-3.358-7.5-7.5-7.5h-77.604c-21.23 0-38.501 17.272-38.501 38.501v394.867c0 21.229 17.271 38.501 38.501 38.501h434.998c21.229 0 38.501-17.271 38.501-38.501v-394.867c0-21.229-17.271-38.501-38.501-38.501z"/><path d="m62.511 235.451v169.363c0 21.229 17.271 38.501 38.501 38.501h309.977c21.229 0 38.501-17.271 38.501-38.501v-169.363c0-21.229-17.271-38.501-38.501-38.501h-309.977c-21.23 0-38.501 17.272-38.501 38.501zm348.477 192.864h-309.976c-12.958 0-23.501-10.542-23.501-23.501v-117.532h113.911c3.418 13.95 16.021 24.335 31.011 24.335h67.135c14.989 0 27.593-10.384 31.011-24.335h113.911v117.532c-.001 12.959-10.543 23.501-23.502 23.501zm-205.487-148.629c0-9.335 7.595-16.931 16.931-16.931h67.135c9.336 0 16.931 7.595 16.931 16.931 0 9.335-7.595 16.931-16.931 16.931h-67.135c-9.335 0-16.931-7.595-16.931-16.931zm228.988-44.235v36.831h-113.866c-3.349-14.047-15.997-24.527-31.055-24.527h-67.135c-15.058 0-27.706 10.48-31.055 24.527h-113.867v-36.831c0-12.958 10.542-23.501 23.501-23.501h309.977c12.958 0 23.5 10.543 23.5 23.501z"/><path d="m244.923 115.212c0-20.549-16.717-37.266-37.266-37.266s-37.266 16.717-37.266 37.266 16.717 37.266 37.266 37.266 37.266-16.717 37.266-37.266zm-59.532 0c0-12.277 9.989-22.266 22.266-22.266s22.266 9.989 22.266 22.266-9.989 22.266-22.266 22.266-22.266-9.989-22.266-22.266z"/><path d="m107.173 77.946c-20.549 0-37.266 16.717-37.266 37.266s16.717 37.266 37.266 37.266 37.267-16.717 37.267-37.266-16.718-37.266-37.267-37.266zm0 59.532c-12.277 0-22.266-9.989-22.266-22.266s9.989-22.266 22.266-22.266c12.278 0 22.267 9.989 22.267 22.266s-9.989 22.266-22.267 22.266z"/><path d="m407.914 149.391c18.847 0 34.179-15.333 34.179-34.179s-15.333-34.179-34.179-34.179h-96.89c-18.847 0-34.179 15.333-34.179 34.179s15.333 34.179 34.179 34.179zm-116.069-34.179c0-10.576 8.604-19.179 19.179-19.179h96.89c10.576 0 19.179 8.604 19.179 19.179s-8.604 19.179-19.179 19.179h-96.89c-10.576 0-19.179-8.603-19.179-19.179z"/></svg>