<svg xmlns="http://www.w3.org/2000/svg" width="20" height="16.328" viewBox="0 0 20 16.328">
  <g id="Payment" transform="translate(-50 -485.836)">
    <path id="Path_399" data-name="Path 399" d="M60.663,497.166h5.332a.315.315,0,0,0,.333-.333v-3a.315.315,0,0,0-.333-.333H60.663a.315.315,0,0,0-.333.333v3A.315.315,0,0,0,60.663,497.166Zm.333-3h4.665V496.5H61Z" fill="#363636"/>
    <path id="Path_400" data-name="Path 400" d="M51.666,492.834h2.666a.334.334,0,0,0,0-.667H51.666a.334.334,0,0,0,0,.667Z" fill="#363636"/>
    <path id="Path_401" data-name="Path 401" d="M55.665,492.834h2.666a.334.334,0,0,0,0-.667H55.665a.334.334,0,0,0,0,.667Z" fill="#363636"/>
    <path id="Path_402" data-name="Path 402" d="M51.666,494.167H56a.333.333,0,0,0,0-.667H51.666a.333.333,0,0,0,0,.667Z" fill="#363636"/>
    <path id="Path_403" data-name="Path 403" d="M58.331,493.5h-1a.333.333,0,0,0,0,.667h1a.333.333,0,0,0,0-.667Z" fill="#363636"/>
    <path id="Path_404" data-name="Path 404" d="M69.694,489.368a1.243,1.243,0,0,0-.9-.5l-.8-.1v-1.6a1.337,1.337,0,0,0-1.333-1.333H51.333A1.337,1.337,0,0,0,50,487.169v10.663a1.338,1.338,0,0,0,.955,1.278,1.3,1.3,0,0,0,1.178,1.321l15.4,1.733h.133a1.334,1.334,0,0,0,1.333-1.133l1-10.7A1.3,1.3,0,0,0,69.694,489.368Zm-19.027-1.2H67.328v2H50.667Zm.666-1.667H66.661a.669.669,0,0,1,.667.667v.333H50.667v-.333A.669.669,0,0,1,51.333,486.5Zm-.666,11.33v-7H67.328v7a.669.669,0,0,1-.666.667H51.333A.669.669,0,0,1,50.667,497.832ZM69.327,490.2l-1,10.7a.673.673,0,0,1-.733.6l-15.362-1.733a.674.674,0,0,1-.6-.6H66.661a1.337,1.337,0,0,0,1.333-1.333V489.4l.767.067a.57.57,0,0,1,.433.233A.677.677,0,0,1,69.327,490.2Z" fill="#363636"/>
  </g>
</svg>
