<?xml version="1.0" encoding="iso-8859-1"?>
<!-- Generator: Adobe Illustrator 19.0.0, SVG Export Plug-In . SVG Version: 6.00 Build 0)  -->
<svg xmlns="http://www.w3.org/2000/svg" xmlns:xlink="http://www.w3.org/1999/xlink" version="1.1" id="Layer_1" x="0px" y="0px" viewBox="0 0 512 512" style="enable-background:new 0 0 512 512;" xml:space="preserve" width="512" height="512">
<g>
	<path d="M96,272h50c5.523,0,10-4.477,10-10v-40c0-5.523-4.477-10-10-10H96c-5.523,0-10,4.477-10,10v40   C86,267.523,90.477,272,96,272z M106,232h30v20h-30V232z"/>
	<path d="M96,352h50c5.523,0,10-4.477,10-10v-40c0-5.523-4.477-10-10-10H96c-5.523,0-10,4.477-10,10v40   C86,347.523,90.477,352,96,352z M106,312h30v20h-30V312z"/>
	<path d="M96,432h50c5.523,0,10-4.477,10-10v-40c0-5.523-4.477-10-10-10H96c-5.523,0-10,4.477-10,10v40   C86,427.523,90.477,432,96,432z M106,392h30v20h-30V392z"/>
	<path d="M186,272h50c5.523,0,10-4.477,10-10v-40c0-5.523-4.477-10-10-10h-50c-5.523,0-10,4.477-10,10v40   C176,267.523,180.477,272,186,272z M196,232h30v20h-30V232z"/>
	<path d="M186,352h50c5.523,0,10-4.477,10-10v-40c0-5.523-4.477-10-10-10h-50c-5.523,0-10,4.477-10,10v40   C176,347.523,180.477,352,186,352z M196,312h30v20h-30V312z"/>
	<path d="M186,432h50c5.523,0,10-4.477,10-10v-40c0-5.523-4.477-10-10-10h-50c-5.523,0-10,4.477-10,10v40   C176,427.523,180.477,432,186,432z M196,392h30v20h-30V392z"/>
	<path d="M276,272h50c5.523,0,10-4.477,10-10v-40c0-5.523-4.477-10-10-10h-50c-5.523,0-10,4.477-10,10v40   C266,267.523,270.477,272,276,272z M286,232h30v20h-30V232z"/>
	<path d="M276,352h50c5.523,0,10-4.477,10-10v-40c0-5.523-4.477-10-10-10h-50c-5.523,0-10,4.477-10,10v40   C266,347.523,270.477,352,276,352z M286,312h30v20h-30V312z"/>
	<path d="M276,432h50c5.523,0,10-4.477,10-10v-40c0-5.523-4.477-10-10-10h-50c-5.523,0-10,4.477-10,10v40   C266,427.523,270.477,432,276,432z M286,392h30v20h-30V392z"/>
	<path d="M366,272h50c5.523,0,10-4.477,10-10v-40c0-5.523-4.477-10-10-10h-50c-5.523,0-10,4.477-10,10v40   C356,267.523,360.477,272,366,272z M376,232h30v20h-30V232z"/>
	<path d="M366,352h50c5.523,0,10-4.477,10-10v-40c0-5.523-4.477-10-10-10h-50c-5.523,0-10,4.477-10,10v40   C356,347.523,360.477,352,366,352z M376,312h30v20h-30V312z"/>
	<path d="M366,432h50c5.523,0,10-4.477,10-10v-40c0-5.523-4.477-10-10-10h-50c-5.523,0-10,4.477-10,10v40   C356,427.523,360.477,432,366,432z M376,392h30v20h-30V392z"/>
	<path d="M396,152h40c5.523,0,10-4.477,10-10v-20c0-16.542-13.458-30-30-30s-30,13.458-30,30v20C386,147.523,390.477,152,396,152z    M406,122c0-5.514,4.486-10,10-10s10,4.486,10,10v10h-20V122z"/>
	<path d="M76,152h40c5.523,0,10-4.477,10-10v-20c0-16.542-13.458-30-30-30s-30,13.458-30,30v20C66,147.523,70.477,152,76,152z    M86,122c0-5.514,4.486-10,10-10s10,4.486,10,10v10H86V122z"/>
	<path d="M512,102V10c0-5.523-4.477-10-10-10H10C4.477,0,0,4.477,0,10v92c0,5.523,4.477,10,10,10h16.726   c-0.47,3.268-0.726,6.604-0.726,10v330H10c-5.523,0-10,4.477-10,10v40c0,5.523,4.477,10,10,10h492c5.523,0,10-4.477,10-10v-40   c0-5.523-4.477-10-10-10h-16V122c0-3.396-0.256-6.732-0.726-10H502C507.523,112,512,107.523,512,102z M492,20v32H296   c-5.51,0-10,4.49-10,10c0,5.51,4.49,10,10,10h71.073c-5.867,5.744-10.734,12.505-14.305,20H159.232   c-3.57-7.495-8.438-14.256-14.305-20H216c5.51,0,10-4.49,10-10c0-5.51-4.49-10-10-10H20V20H492z M466,122v50H366v-50   c0-27.57,22.43-50,50-50S466,94.43,466,122z M96,72c27.57,0,50,22.43,50,50v50H46v-50C46,94.43,68.43,72,96,72z M466,192v260H46   V192H466z M316,132H196c-5.523,0-10,4.477-10,10v30h-20v-60h180v60h-20v-30C326,136.477,321.523,132,316,132z M306,152v20h-20v-20   H306z M266,152v20h-20v-20H266z M226,152v20h-20v-20H226z M20,92V72h27.073c-5.867,5.744-10.734,12.505-14.305,20H20z M492,472v20   H20v-20H492z M479.232,92c-3.57-7.495-8.438-14.256-14.305-20H492v20H479.232z"/>
	<path d="M256,72c5.51,0,10-4.49,10-10c0-5.51-4.49-10-10-10c-5.51,0-10,4.49-10,10C246,67.51,250.49,72,256,72z"/>
</g>















</svg>
