<svg height="511pt" viewBox="0 -76 511.99997 511" width="511pt" xmlns="http://www.w3.org/2000/svg"><path d="m506.925781 70.144531c-3.121093-28.160156-6.738281-41.726562-11.40625-47.910156-1.363281-2.625-4.015625-4.332031-6.972656-4.480469-.714844-.121094-1.441406-.183594-2.164063-.1875-.128906 0-.25 0-.367187 0-47.785156-10.546875-135.738281-17.066406-230.015625-17.066406s-182.25 6.542969-230.023438 17.066406h-.359374c-.757813.003906-1.519532.074219-2.269532.210938-2.875.226562-5.441406 1.886718-6.824218 4.421875-4.683594 6.167969-8.300782 19.753906-11.433594 47.945312-3.605469 36.398438-5.296875 72.964844-5.0703128 109.539063-.2304692 36.578125 1.4531248 73.144531 5.0546878 109.542968 4.90625 44.199219 11.003906 52.578126 20.542969 52.578126.570312.003906 1.140624-.03125 1.707031-.101563.128906 0 .25.085937.375.09375 48.125 10.691406 133.375 17.066406 228.386719 17.066406 93.558593 0 180.890624-6.535156 228.339843-17.066406.128907 0 .257813-.085937.394531-.09375.515626.0625 1.039063.097656 1.5625.101563 9.539063 0 15.636719-8.378907 20.542969-52.578126 3.601563-36.398437 5.285157-72.964843 5.054688-109.542968.230469-36.574219-1.453125-73.140625-5.054688-109.539063zm-20.542969 242.121094c-6.507812-43.882813-9.363281-88.226563-8.535156-132.582031-.828125-44.351563 2.027344-88.695313 8.535156-132.578125 6.503907 43.882812 9.359376 88.226562 8.53125 132.578125.828126 44.355468-2.027343 88.699218-8.53125 132.582031zm-469.296874-132.582031c-.828126-44.351563 2.027343-88.695313 8.53125-132.578125 6.507812 43.882812 9.363281 88.226562 8.535156 132.578125.828125 44.355468-2.027344 88.699218-8.535156 132.582031-6.503907-43.882813-9.359376-88.226563-8.53125-132.582031zm22.457031 147.113281c3.332031-12.289063 5.546875-24.855469 6.621093-37.542969 3.601563-36.410156 5.285157-72.984375 5.054688-109.570312.230469-36.574219-1.453125-73.140625-5.054688-109.539063-1.070312-12.800781-3.316406-25.472656-6.714843-37.859375 48.339843-9.128906 129.519531-14.71875 216.550781-14.71875s168.210938 5.585938 216.550781 14.71875c-3.398437 12.386719-5.644531 25.058594-6.714843 37.859375-3.601563 36.398438-5.285157 72.964844-5.054688 109.539063-.230469 36.578125 1.453125 73.144531 5.054688 109.542968 1.074218 12.703126 3.292968 25.28125 6.628906 37.585938-47.800782 9.292969-129.160156 14.992188-216.421875 14.992188-87.265625 0-168.707031-5.699219-216.5-15.007813zm0 0"/></svg>