<svg xmlns="http://www.w3.org/2000/svg" width="15.333" height="20" viewBox="0 0 15.333 20">
  <path id="Profile" d="M66,568.3,62.82,566.7a.876.876,0,0,1-.487-.788v-1.127c.076-.093.157-.2.24-.317a7.63,7.63,0,0,0,.985-1.933,1.324,1.324,0,0,0,.776-1.206V560a1.329,1.329,0,0,0-.333-.875v-1.773a2.988,2.988,0,0,0-.7-2.175A4.2,4.2,0,0,0,60,554a4.2,4.2,0,0,0-3.3,1.177,2.988,2.988,0,0,0-.7,2.175v1.773a1.329,1.329,0,0,0-.333.875v1.333a1.327,1.327,0,0,0,.5,1.037,6.988,6.988,0,0,0,1.168,2.412v1.1a.879.879,0,0,1-.459.773L53.9,568.28a3.006,3.006,0,0,0-1.567,2.641V572c0,1.582,5.015,2,7.667,2s7.667-.418,7.667-2v-1.014A2.992,2.992,0,0,0,66,568.3Zm1,3.7c0,.452-2.471,1.333-7,1.333s-7-.881-7-1.333v-1.079a2.339,2.339,0,0,1,1.22-2.055l2.974-1.622A1.549,1.549,0,0,0,58,565.885v-1.34l-.078-.092a6.3,6.3,0,0,1-1.137-2.355l-.03-.132-.114-.074a.663.663,0,0,1-.308-.559V560a.66.66,0,0,1,.223-.492l.11-.1v-2.076l0-.043a2.316,2.316,0,0,1,.535-1.674,3.581,3.581,0,0,1,2.8-.949,3.591,3.591,0,0,1,2.8.942,2.348,2.348,0,0,1,.541,1.681l0,2.119.11.1a.656.656,0,0,1,.223.491v1.333a.663.663,0,0,1-.474.633l-.166.051-.053.165a6.977,6.977,0,0,1-.945,1.9,4.407,4.407,0,0,1-.279.359l-.083.1v1.375a1.539,1.539,0,0,0,.855,1.384l3.184,1.592A2.328,2.328,0,0,1,67,570.986Z" transform="translate(-52.333 -554)" fill="#363636"/>
</svg>
