<svg xmlns="http://www.w3.org/2000/svg" width="20" height="20" viewBox="0 0 20 20">
  <g id="Settings" transform="translate(-50 -624)">
    <path id="Path_405" data-name="Path 405" d="M68.97,631.778H67.1a.719.719,0,0,1-.508-1.227l1.323-1.322a1.031,1.031,0,0,0,0-1.457l-1.686-1.686a1.054,1.054,0,0,0-1.457,0l-1.323,1.323a.719.719,0,0,1-1.226-.508V625.03a1.031,1.031,0,0,0-1.03-1.03H58.807a1.031,1.031,0,0,0-1.03,1.03V626.9a.719.719,0,0,1-1.226.508l-1.323-1.323a1.054,1.054,0,0,0-1.457,0l-1.686,1.686a1.031,1.031,0,0,0,0,1.457l1.323,1.322a.719.719,0,0,1-.508,1.227H51.03A1.031,1.031,0,0,0,50,632.807v2.385a1.031,1.031,0,0,0,1.03,1.03H52.9a.719.719,0,0,1,.508,1.227l-1.323,1.322a1.031,1.031,0,0,0,0,1.457l1.686,1.686a1.054,1.054,0,0,0,1.457,0l1.323-1.323a.719.719,0,0,1,1.226.508v1.871a1.031,1.031,0,0,0,1.03,1.03h2.385a1.031,1.031,0,0,0,1.03-1.03V641.1a.719.719,0,0,1,1.226-.508l1.323,1.323a1.054,1.054,0,0,0,1.457,0l1.686-1.686a1.031,1.031,0,0,0,0-1.457l-1.323-1.322a.719.719,0,0,1,.509-1.227H68.97A1.031,1.031,0,0,0,70,635.193v-2.386A1.031,1.031,0,0,0,68.97,631.778Zm.289,3.415a.289.289,0,0,1-.289.288H67.1a1.46,1.46,0,0,0-1.032,2.492l1.323,1.322a.289.289,0,0,1,0,.409L65.7,641.39a.288.288,0,0,1-.409,0l-1.323-1.323a1.459,1.459,0,0,0-2.491,1.032v1.871a.289.289,0,0,1-.289.289H58.807a.289.289,0,0,1-.289-.289V641.1a1.437,1.437,0,0,0-.9-1.348,1.484,1.484,0,0,0-.568-.115,1.439,1.439,0,0,0-1.023.431L54.7,641.39a.289.289,0,0,1-.409,0L52.61,639.7a.289.289,0,0,1,0-.409l1.323-1.323a1.459,1.459,0,0,0-1.032-2.491H51.03a.289.289,0,0,1-.289-.288v-2.386a.289.289,0,0,1,.289-.288H52.9a1.46,1.46,0,0,0,1.032-2.492l-1.323-1.322a.289.289,0,0,1,0-.409L54.3,626.61a.289.289,0,0,1,.409,0l1.323,1.322a1.459,1.459,0,0,0,2.491-1.031V625.03a.289.289,0,0,1,.289-.289h2.385a.289.289,0,0,1,.289.289V626.9a1.459,1.459,0,0,0,2.491,1.032L65.3,626.61a.289.289,0,0,1,.409,0L67.39,628.3a.289.289,0,0,1,0,.409l-1.323,1.323a1.459,1.459,0,0,0,1.032,2.491H68.97a.289.289,0,0,1,.289.288Z" fill="#363636"/>
    <path id="Path_406" data-name="Path 406" d="M60,630.667A3.333,3.333,0,1,0,63.333,634,3.337,3.337,0,0,0,60,630.667Zm0,5.926A2.593,2.593,0,1,1,62.593,634,2.6,2.6,0,0,1,60,636.593Z" fill="#363636"/>
  </g>
</svg>
