<svg height="480pt" viewBox="0 0 480 480" width="480pt" xmlns="http://www.w3.org/2000/svg"><path d="m448 464v-456c0-4.417969-3.582031-8-8-8h-400c-4.417969 0-8 3.582031-8 8v456h-32v16h480v-16zm-16-448v314.640625c-1.023438-1.816406-2.089844-3.914063-3.238281-6.214844-5.089844-10.167969-11.417969-22.824219-25.5625-22.824219s-20.535157 12.671876-25.597657 22.847657c-4.226562 8.421875-7.289062 13.949219-11.242187 13.949219s-7.023437-5.535157-11.238281-13.972657c-5.089844-10.167969-11.417969-22.824219-25.5625-22.824219-.957032-.003906-1.914063.058594-2.863282.191407l32.449219-285.792969zm-200 0v448h-80v-120c0-13.253906-10.746094-24-24-24h-80v-264h12.6875l13.304688 13.304688c-7.710938 12.546874-5.773438 28.75 4.671874 39.128906 3.070313 3.53125 7.453126 5.648437 12.128907 5.863281h.6875c6.585937-1.210937 12.324219-5.222656 15.71875-10.992187 1.699219-2.15625 3.503906-4.21875 5.417969-6.183594 2.046874-2.050782 4.214843-3.800782 6.183593-5.417969 5.753907-3.398437 9.753907-9.128906 10.960938-15.703125.019531-4.914062-2.117188-9.59375-5.839844-12.800781-10.222656-10.152344-25.972656-12.210938-38.457031-5.023438l-15.808594-15.832031c-1.5-1.5-3.535156-2.34375-5.65625-2.34375h-16v-24zm-130.703125 53.816406c4.242187-.007812 8.3125 1.675782 11.3125 4.679688.285156.289062.519531.535156.703125.75-1.480469 1.441406-3.035156 2.804687-4.65625 4.082031-5.179688 4.011719-9.835938 8.660156-13.847656 13.839844-1.277344 1.621093-2.636719 3.175781-4.074219 4.65625-.214844-.183594-.460937-.410157-.75-.703125-4.570313-4.578125-5.933594-11.453125-3.457031-17.429688 2.472656-5.972656 8.300781-9.871094 14.769531-9.875zm-53.296875 394.183594v-128h80c4.417969 0 8 3.582031 8 8v120zm200 0v-448h95.039062l-34.191406 300.800781c-.414062 3.640625 1.703125 7.097657 5.132813 8.386719 3.429687 1.292969 7.296875.085938 9.386719-2.921875 3.199218-4.640625 5.199218-4.640625 6.152343-4.640625 4 0 7.023438 5.535156 11.25 13.976562 5.078125 10.167969 11.40625 22.824219 25.550781 22.824219 14.144532 0 20.457032-12.632812 25.542969-22.785156 4.25-8.464844 7.320313-14.015625 11.335938-14.015625s7.023437 5.535156 11.25 13.976562c3.222656 8.863282 9.425781 16.328126 17.550781 21.117188v111.28125zm0 0"/><path d="m264 224h16v32h-16zm0 0"/><path d="m200 224h16v32h-16zm0 0"/><path d="m114.34375 109.65625 11.3125-11.3125 32.003906 32-11.316406 11.316406zm0 0"/><path d="m130.34375 93.664062 11.3125-11.316406 32.003906 32-11.316406 11.316406zm0 0"/><path d="m98.34375 125.660156 11.3125-11.3125 32.003906 32-11.316406 11.3125zm0 0"/><path d="m154.34375 149.65625 11.3125-11.3125 15.996094 15.996094-11.3125 11.3125zm0 0"/><path d="m170.34375 133.660156 11.3125-11.3125 15.996094 15.996094-11.3125 11.316406zm0 0"/><path d="m138.34375 165.660156 11.3125-11.3125 15.996094 15.996094-11.3125 11.3125zm0 0"/><path d="m408 440h16v16h-16zm0 0"/><path d="m384 440h16v16h-16zm0 0"/><path d="m408 416h16v16h-16zm0 0"/><path d="m408 56h16v-24c0-4.417969-3.582031-8-8-8h-24v16h16zm0 0"/><path d="m120 344h-56c-4.417969 0-8 3.582031-8 8v96c0 4.417969 3.582031 8 8 8h56c4.417969 0 8-3.582031 8-8v-96c0-4.417969-3.582031-8-8-8zm-8 96h-40v-80h40zm0 0"/></svg>