<?xml version="1.0" encoding="iso-8859-1"?>
<!-- Generator: Adobe Illustrator 19.0.0, SVG Export Plug-In . SVG Version: 6.00 Build 0)  -->
<svg version="1.1" id="Layer_1" xmlns="http://www.w3.org/2000/svg" xmlns:xlink="http://www.w3.org/1999/xlink" x="0px" y="0px"
	 viewBox="0 0 512 512" style="enable-background:new 0 0 512 512;" xml:space="preserve">
<g>
	<g>
		<path d="M404.461,248.396v-30.572h-49.998v-13.108h32.035c8.747,0,17.115-3.732,22.959-10.24
			c5.844-6.508,8.657-15.227,7.72-23.924l-10.72-99.397C402.083,30.59,368.018,0,327.217,0s-74.867,30.59-79.24,71.155
			l-10.719,99.399c-0.938,8.696,1.877,17.416,7.72,23.923c5.844,6.507,14.212,10.24,22.959,10.24h33.131v13.108h-49.997v30.571
			h-60.135v-22.58h20.373v-51.681H96.929v36.473H76.558v37.788H45.796V428.97h23.616v40.841h12.254V512h52.914v-42.189h242.841V512
			h52.913v-42.189h13.692V428.97h22.177V248.396H404.461z M301.066,189.509h-33.131v-0.001c-4.501,0-8.636-1.844-11.642-5.193
			c-3.007-3.349-4.397-7.658-3.915-12.132l10.719-99.398c3.538-32.824,31.104-57.577,64.12-57.577s60.581,24.753,64.12,57.577
			l10.719,99.398c0.483,4.475-0.908,8.784-3.914,12.133c-3.007,3.349-7.142,5.193-11.642,5.193h-32.035H301.066z M339.255,204.716
			v13.108h-22.981v-13.108H339.255z M266.279,233.032h34.789h53.397h34.79v11.657H266.279V233.032z M139.712,189.343H196.1v21.265
			h-5.165h-51.223V189.343z M175.728,225.816v21.265H119.34v-21.265H175.728z M112.137,189.343h12.366v21.265h-12.366V189.343z
			 M91.766,225.816h5.165h7.202v21.265H91.766V225.816z M119.372,496.792h-0.001H96.873v-26.981h22.499V496.792z M415.127,496.792
			h-22.498v-26.981h22.498V496.792z M428.819,454.603h-51.398H134.579H84.62V428.97h344.199V454.603z M450.996,413.762h-6.969
			H69.412h-8.408V263.604h389.992V413.762z"/>
	</g>
</g>
<g>
	<g>
		<rect x="236.392" y="331.076" width="44.874" height="15.208"/>
	</g>
</g>
<g>
	<g>
		<path d="M111.687,290.155v97.056h288.626v-97.056H111.687z M385.105,372.003h-258.21v-66.64h258.21V372.003z"/>
	</g>
</g>
<g>
	<g>
		<rect x="294.821" y="330.509" width="15.208" height="15.388"/>
	</g>
</g>
<g>
	<g>
		<rect x="306.47" y="164.925" width="60.305" height="15.208"/>
	</g>
</g>
<g>
	<g>
		<rect x="372.959" y="165.087" width="15.208" height="14.874"/>
	</g>
</g>
<g>
	<g>
		<rect x="181.147" y="59.651" width="15.208" height="14.874"/>
	</g>
</g>
<g>
	<g>
		<rect x="432.716" y="142.103" width="15.208" height="14.874"/>
	</g>
</g>
<g>
	<g>
		<rect x="445.42" y="82.751" width="15.208" height="14.874"/>
	</g>
</g>
<g>
	<g>
		<rect x="434.227" y="12.913" width="15.208" height="14.874"/>
	</g>
</g>
<g>
	<g>
		<rect x="195.168" y="134.428" width="15.208" height="14.874"/>
	</g>
</g>
<g>
	<g>
		<rect x="204.901" y="17.589" width="15.208" height="14.874"/>
	</g>
</g>
<g>
</g>
<g>
</g>
<g>
</g>
<g>
</g>
<g>
</g>
<g>
</g>
<g>
</g>
<g>
</g>
<g>
</g>
<g>
</g>
<g>
</g>
<g>
</g>
<g>
</g>
<g>
</g>
<g>
</g>
</svg>
