<?xml version="1.0" encoding="iso-8859-1"?>
<!-- Generator: Adobe Illustrator 19.0.0, SVG Export Plug-In . SVG Version: 6.00 Build 0)  -->
<svg version="1.1" id="Capa_1" xmlns="http://www.w3.org/2000/svg" xmlns:xlink="http://www.w3.org/1999/xlink" x="0px" y="0px"
	 viewBox="0 0 512 512" style="enable-background:new 0 0 512 512;" xml:space="preserve">
<g>
	<g>
		<path d="M68.24,257.654c-14.502,0-26.301,11.799-26.301,26.301c0,14.502,11.799,26.3,26.301,26.3
			c14.503,0,26.301-11.798,26.301-26.3C94.541,269.453,82.743,257.654,68.24,257.654z M68.24,295.254
			c-6.231,0-11.301-5.069-11.301-11.3c0-6.231,5.07-11.301,11.301-11.301c6.232,0,11.301,5.069,11.301,11.301
			C79.541,290.185,74.472,295.254,68.24,295.254z"/>
	</g>
</g>
<g>
	<g>
		<path d="M494.5,338.404h-21.335l7.317-17.828c1.463-3.565,1.158-7.315-0.837-10.291c-1.306-1.948-3.202-3.339-5.432-4.076
			l6.269-15.274c1.463-3.565,1.158-7.316-0.837-10.292c-1.163-1.734-2.796-3.021-4.712-3.807l5.55-13.521
			c1.462-3.565,1.157-7.316-0.838-10.292c-1.995-2.975-5.349-4.681-9.202-4.681h-6.028c10.555-12.407,16.682-28.442,16.682-45.602
			c0-2.98-1.213-5.679-3.167-7.629c2.065-6.674,3.167-13.736,3.167-21.001c0-5.934-4.807-10.761-10.714-10.761H346.881
			c-5.908,0-10.714,4.827-10.714,10.761c0,7.265,1.102,14.327,3.168,21.001c-1.955,1.95-3.168,4.649-3.168,7.629
			c0,17.16,6.127,33.193,16.682,45.602h-72.916c-3.853,0-7.207,1.706-9.202,4.681c-1.995,2.976-2.301,6.727-0.838,10.293
			l5.549,13.52c-1.916,0.785-3.549,2.072-4.712,3.807c-1.995,2.976-2.3,6.727-0.837,10.292l6.269,15.274
			c-2.23,0.737-4.126,2.128-5.432,4.076c-1.995,2.975-2.3,6.725-0.837,10.291l7.317,17.828h-17.374v-27.189
			c0-6.893-5.607-12.5-12.5-12.5h-20.419c-6.893,0-12.5,5.607-12.5,12.5v4.232h-5.36v-22.753c0-6.892-5.607-12.5-12.5-12.5h-2.158
			v-97.151c0-2.531,2.016-4.591,4.494-4.591h36.08c2.857,0,4.493,1.707,4.493,2.172v13.919c-5.001,1.635-8.626,6.338-8.626,11.878
			v13.213c0,6.893,5.607,12.5,12.5,12.5H274c6.893,0,12.5-5.607,12.5-12.5v-13.213c0-5.323-3.35-9.867-8.048-11.666v-14.131
			c0-22.802-19.505-41.352-43.48-41.352h-36.08c-23.975,0-43.48,19.636-43.48,43.771V203c0,4.143,3.358,7.5,7.5,7.5
			c4.142,0,7.5-3.357,7.5-7.5v-19.957c0-15.864,12.776-28.771,28.48-28.771h36.08c15.704,0,28.48,11.821,28.48,26.352v13.297h-8.987
			v-13.297c0-9.469-8.745-17.172-19.493-17.172h-36.08c-10.749,0-19.494,8.788-19.494,19.591v97.151h-8.987V237
			c0-4.143-3.358-7.5-7.5-7.5c-4.142,0-7.5,3.357-7.5,7.5v43.194h-4.301c-6.892,0-12.5,5.608-12.5,12.5v22.753h-5.36v-4.232
			c0-6.893-5.607-12.5-12.5-12.5h-1.1c-2.334-14.844-6.829-28.536-13.141-39.604c6.032-5.758,9.434-12.753,9.748-20.111
			c0.016-0.372,0.002-2.069-0.004-2.152c-0.466-12.195-9.128-22.637-22.213-28.599c-0.004-0.053-0.003-0.104-0.008-0.157
			l-1.377-14.433c-0.63-6.597-6.314-11.765-12.941-11.765H56.767c-6.627,0-12.312,5.168-12.941,11.765l-1.379,14.434
			c-0.005,0.052-0.004,0.105-0.008,0.157c-13.076,5.958-21.735,16.392-22.21,28.578c-0.006,0.089-0.021,1.8-0.005,2.172
			c0.314,7.359,3.715,14.354,9.747,20.111c-9.56,16.765-14.99,39.527-14.99,63.227c0,5.463,0.29,10.857,0.845,16.151
			C6.959,339.336,0,346.82,0,355.904v9.24c0,9.649,7.851,17.5,17.5,17.5h19.377v44.223c0,21.492,17.371,38.977,38.723,38.977
			h192.654c21.353,0,38.725-17.484,38.725-38.977v-44.223h13.102v58.419c0,13.664,11.054,24.78,24.641,24.78h105.761
			c13.586,0,24.64-11.116,24.64-24.78v-58.419H494.5c9.649,0,17.5-7.851,17.5-17.5v-9.24C512,346.255,504.149,338.404,494.5,338.404
			z M245.839,208.921H271.5v8.213h-25.661V208.921z M465.938,178.351c-0.353,4.71-1.294,9.282-2.76,13.63H354.084
			c-1.466-4.348-2.406-8.92-2.76-13.63H465.938z M351.325,206.979h114.613c-1.27,16.925-10.093,32.077-23.753,41.362h-67.104
			C361.418,239.055,352.594,223.904,351.325,206.979z M412,275.961H291.297l-5.179-12.618h178.14l-5.179,12.618H450
			c-4.142,0-7.5,3.358-7.5,7.5c0,4.143,3.358,7.5,7.5,7.5h14.258l-6.01,14.643h-166.12l-6.01-14.643H412c4.142,0,7.5-3.357,7.5-7.5
			C419.5,279.318,416.142,275.961,412,275.961z M464.258,320.602l-7.306,17.801H293.425l-7.306-17.801H464.258z M229.417,313.714
			h15.419v24.689h-15.419V313.714z M209.057,330.446h5.36v7.957h-5.36V330.446z M153.611,295.193h40.446v43.21h-40.446V295.193z
			 M133.251,330.446h5.36v7.957h-5.36V330.446z M118.251,313.714v24.689h-15.42v-24.689H118.251z M58.585,196.893h19.311
			l0.651,6.816c-3.312-0.509-6.756-0.783-10.307-0.783c-3.55,0-6.994,0.274-10.307,0.783L58.585,196.893z M68.24,217.927
			c13.205,0,24.893,4.967,30.127,11.909H38.116C43.349,222.893,55.036,217.927,68.24,217.927z M42.359,250.002
			c-2.069-1.599-3.721-3.344-4.915-5.165h61.595c-1.195,1.821-2.848,3.566-4.917,5.166c-4.238,3.274-5.26,9.148-2.376,13.664
			c6.01,9.403,10.364,21.571,12.725,35.048h-4.139c-6.893,0-12.5,5.607-12.5,12.5v27.189H30.907
			c-0.609-5.243-0.926-10.613-0.926-16.066c0-22.616,5.378-44.001,14.754-58.67C47.621,259.153,46.6,253.278,42.359,250.002z
			 M460.123,441.063c0,5.393-4.324,9.78-9.64,9.78H344.722c-5.316,0-9.641-4.388-9.641-9.78v-58.419h125.042V441.063z M497,365.143
			c0,1.355-1.145,2.5-2.5,2.5H273c-4.142,0-7.5,3.358-7.5,7.5c0,4.143,3.358,7.5,7.5,7.5h18.979v44.223
			c0,13.221-10.643,23.977-23.725,23.977H75.601c-13.081,0-23.723-10.756-23.723-23.977v-44.223H233c4.142,0,7.5-3.357,7.5-7.5
			c0-4.142-3.358-7.5-7.5-7.5H17.5c-1.355,0-2.5-1.145-2.5-2.5v-9.24c0-1.355,1.145-2.5,2.5-2.5h477c1.355,0,2.5,1.145,2.5,2.5
			V365.143z"/>
	</g>
</g>
<g>
	<g>
		<path d="M341.558,127.459c-9.614-2.997-10.363-3.747-13.357-13.37c-1.29-4.161-5.083-6.956-9.439-6.956
			c-4.353,0-8.146,2.794-9.437,6.951c-2.994,9.627-3.743,10.377-13.355,13.374c-4.154,1.294-6.946,5.087-6.946,9.439
			c-0.001,4.352,2.791,8.146,6.943,9.439c9.615,2.998,10.364,3.748,13.357,13.374c1.292,4.157,5.084,6.95,9.438,6.95
			c4.355,0,8.148-2.795,9.437-6.947c2.996-9.63,3.745-10.38,13.359-13.377c4.153-1.295,6.943-5.088,6.943-9.439
			C348.501,132.547,345.711,128.753,341.558,127.459z M318.762,143.708c-1.803-2.852-3.957-5.005-6.809-6.81
			c2.853-1.805,5.005-3.958,6.809-6.81c1.804,2.853,3.956,5.005,6.809,6.81C322.719,138.703,320.567,140.855,318.762,143.708z"/>
	</g>
</g>
<g>
	<g>
		<path d="M386.175,65.141c-8.816-2.749-9.382-3.316-12.128-12.14c-1.269-4.094-5.001-6.844-9.286-6.844
			c-4.283,0-8.014,2.749-9.284,6.838c-2.745,8.829-3.312,9.396-12.122,12.144c-4.09,1.271-6.838,5.003-6.838,9.286
			c0,4.279,2.745,8.01,6.832,9.285c8.817,2.749,9.383,3.316,12.127,12.141c1.27,4.092,5.001,6.841,9.286,6.841
			c4.287,0,8.019-2.751,9.284-6.835c2.747-8.83,3.314-9.397,12.132-12.147c4.084-1.274,6.828-5.006,6.828-9.285
			C393.006,70.143,390.259,66.411,386.175,65.141z M364.762,79.917c-1.509-2.216-3.276-3.983-5.492-5.493
			c2.216-1.51,3.983-3.278,5.492-5.493c1.509,2.216,3.276,3.983,5.492,5.493C368.039,75.934,366.271,77.702,364.762,79.917z"/>
	</g>
</g>
<g>
</g>
<g>
</g>
<g>
</g>
<g>
</g>
<g>
</g>
<g>
</g>
<g>
</g>
<g>
</g>
<g>
</g>
<g>
</g>
<g>
</g>
<g>
</g>
<g>
</g>
<g>
</g>
<g>
</g>
</svg>
