<svg height="480pt" viewBox="0 0 480 480" width="480pt" xmlns="http://www.w3.org/2000/svg"><path d="m304 8c0-4.417969-3.582031-8-8-8h-288c-4.417969 0-8 3.582031-8 8v472h480v-16h-176zm-288 456v-448h272v448zm0 0"/><path d="m232 48h-192c-4.417969 0-8 3.582031-8 8v160c0 4.417969 3.582031 8 8 8h192c4.417969 0 8-3.582031 8-8v-160c0-4.417969-3.582031-8-8-8zm-8 160h-176v-144h176zm0 0"/><path d="m232 256h-192c-4.417969 0-8 3.582031-8 8v160c0 4.417969 3.582031 8 8 8h192c4.417969 0 8-3.582031 8-8v-160c0-4.417969-3.582031-8-8-8zm-8 160h-176v-144h176zm0 0"/><path d="m328 104h72v24c.003906 3.136719 1.839844 5.984375 4.695312 7.28125 1.035157.476562 2.164063.722656 3.304688.71875 1.9375 0 3.804688-.703125 5.265625-1.976562l64-56c1.738281-1.519532 2.734375-3.714844 2.734375-6.023438s-.996094-4.503906-2.734375-6.023438l-64-56c-2.363281-2.066406-5.714844-2.558593-8.574219-1.261718-2.855468 1.300781-4.691406 4.148437-4.691406 7.285156v24h-72c-4.417969 0-8 3.582031-8 8v48c0 4.417969 3.582031 8 8 8zm8-48h72c4.417969 0 8-3.582031 8-8v-14.398438l43.847656 38.398438-43.847656 38.398438v-14.398438c0-4.417969-3.582031-8-8-8h-72zm0 0"/><path d="m368.71875 308.152344c1.175781.652344 2.496094.992187 3.839844.992187 2.421875 0 4.714844-1.09375 6.234375-2.976562l75.421875-93.136719c1.941406-2.394531 2.328125-5.691406 1.003906-8.476562-1.328125-2.78125-4.136719-4.554688-7.21875-4.554688h-28.800781l26.402343-26.34375c2.289063-2.292969 2.972657-5.742188 1.722657-8.734375-1.246094-2.996094-4.179688-4.9375-7.421875-4.921875h-66.671875c-3.027344 0-5.796875 1.714844-7.152344 4.425781l-20 40c-1.238281 2.476563-1.105469 5.421875.351563 7.777344 1.457031 2.359375 4.03125 3.796875 6.800781 3.796875h11.570312l-12.640625 19.671875c-1.582031 2.457031-1.695312 5.578125-.300781 8.148437 1.394531 2.566407 4.074219 4.167969 6.996094 4.179688h23.152343l-17.023437 50.585938c-1.238281 3.671874.335937 7.703124 3.734375 9.566406zm4.800781-76.152344 12.648438-19.671875c1.585937-2.460937 1.695312-5.59375.292969-8.164063-1.40625-2.570312-4.101563-4.167968-7.027344-4.164062h-13.257813l12-24h42.398438l-26.34375 26.34375c-2.289063 2.289062-2.972657 5.734375-1.730469 8.726562 1.242188 2.988282 4.164062 4.933594 7.402344 4.929688h31.296875l-36.894531 45.601562 6.398437-19.007812c.835937-2.445312.445313-5.140625-1.054687-7.242188-1.5-2.101562-3.921876-3.347656-6.503907-3.351562zm0 0"/><path d="m472 352h-72v-24c0-3.136719-1.835938-5.984375-4.691406-7.285156-2.859375-1.296875-6.210938-.804688-8.574219 1.261718l-64 56c-1.738281 1.519532-2.734375 3.714844-2.734375 6.023438s.996094 4.503906 2.734375 6.023438l64 56c1.460937 1.273437 3.328125 1.976562 5.265625 1.976562 1.140625.003906 2.269531-.242188 3.304688-.71875 2.855468-1.296875 4.691406-4.144531 4.695312-7.28125v-24h72c4.417969 0 8-3.582031 8-8v-48c0-4.417969-3.582031-8-8-8zm-8 48h-72c-4.417969 0-8 3.582031-8 8v14.398438l-43.847656-38.398438 43.847656-38.398438v14.398438c0 4.417969 3.582031 8 8 8h72zm0 0"/><path d="m264 168h16v144h-16zm0 0"/></svg>