<?xml version="1.0" encoding="iso-8859-1"?>
<!-- Generator: Adobe Illustrator 19.0.0, SVG Export Plug-In . SVG Version: 6.00 Build 0)  -->
<svg version="1.1" id="Capa_1" xmlns="http://www.w3.org/2000/svg" xmlns:xlink="http://www.w3.org/1999/xlink" x="0px" y="0px"
	 viewBox="0 0 512.014 512.014" style="enable-background:new 0 0 512.014 512.014;" xml:space="preserve">
<g>
	<g>
		<path d="M460.8,39.155V17.074c-0.009-9.422-7.645-17.057-17.067-17.067h-409.6c-9.422,0.009-17.057,7.645-17.067,17.067v238.933
			H8.533c-4.713,0-8.533,3.82-8.533,8.533s3.82,8.533,8.533,8.533h8.533V494.94c0.009,9.422,7.645,17.057,17.067,17.067h409.6
			c9.422-0.009,17.057-7.645,17.067-17.067V273.074h8.533c4.713,0,8.533-3.82,8.533-8.533s-3.82-8.533-8.533-8.533H460.8v-69.789
			c0.404-0.155,0.826-0.215,1.229-0.378c10.122-3.933,19.311-9.936,26.979-17.625c7.678-7.601,13.662-16.74,17.558-26.817
			c1.377-3.357,2.455-6.829,3.221-10.375C519.18,92.401,498.104,52.877,460.8,39.155z M392.533,17.074h51.2v17.876
			c-17.802-2.347-35.871,1.473-51.2,10.824V17.074z M102.4,17.074h273.067v42.841c-18.842,20.731-25.215,49.929-16.725,76.626H102.4
			V17.074z M102.4,153.607h128v102.4h-128V153.607z M102.4,273.074h128v102.4h-128V273.074z M85.333,494.94h-51.2V273.074h51.2
			V494.94z M85.333,256.007h-51.2V17.074h51.2V256.007z M375.467,494.94H102.4v-102.4h273.067V494.94z M375.467,375.474h-128v-102.4
			h128V375.474z M375.467,256.007h-128v-102.4h119.084c2.589,4.225,5.575,8.195,8.916,11.855V256.007z M443.733,494.94h-51.2
			V273.074h51.2V494.94z M443.733,256.007h-51.2v-76.36c15.226,9.609,33.388,13.448,51.2,10.822V256.007z M463.761,166.092
			c-5.971-11.549-17.706-18.981-30.698-19.444c-16.128-0.631-29.063-13.552-29.712-29.679c-0.337-9.232,3.153-18.194,9.646-24.767
			c6.52-6.552,15.499-10.054,24.733-9.646c16.146,0.634,29.087,13.583,29.712,29.729c0.467,12.997,7.91,24.731,19.468,30.693
			C481.487,152.683,473.472,160.685,463.761,166.092z M493.21,126.922c-5.175-3.337-8.419-8.968-8.71-15.119
			c-0.98-25.143-21.128-45.306-46.27-46.304c-13.924-0.524-27.436,4.775-37.292,14.625c-9.855,9.85-15.162,23.359-14.646,37.283
			c0.986,25.146,21.142,45.307,46.288,46.3c6.155,0.287,11.791,3.53,15.133,8.706c-20.705,5.091-42.563-1.048-57.589-16.174
			l-0.22-0.22c-23.844-24.056-23.731-62.869,0.253-86.785c23.984-23.916,62.797-23.919,86.785-0.006
			C492.126,84.264,498.302,106.168,493.21,126.922z"/>
	</g>
</g>
<g>
</g>
<g>
</g>
<g>
</g>
<g>
</g>
<g>
</g>
<g>
</g>
<g>
</g>
<g>
</g>
<g>
</g>
<g>
</g>
<g>
</g>
<g>
</g>
<g>
</g>
<g>
</g>
<g>
</g>
</svg>
