<svg height="480pt" viewBox="0 -16 480 480" width="480pt" xmlns="http://www.w3.org/2000/svg"><path d="m472 256h-40v-40c-.050781-36.644531-27.585938-67.421875-64-71.527344v-65.277344c20.121094-4.109374 33.863281-22.78125 31.796875-43.214843-2.0625-20.429688-19.261719-35.980469-39.796875-35.980469h-272c-20.535156 0-37.734375 15.550781-39.796875 35.980469-2.066406 20.433593 11.675781 39.105469 31.796875 43.214843v64.804688h-8c-39.746094.042969-71.9570312 32.253906-72 72v192c0 2.121094.839844 4.15625 2.34375 5.65625 1.5 1.503906 3.535156 2.34375 5.65625 2.34375h24v24c0 2.121094.839844 4.15625 2.34375 5.65625 1.5 1.503906 3.535156 2.34375 5.65625 2.34375h32c2.121094 0 4.15625-.839844 5.65625-2.34375 1.503906-1.5 2.34375-3.535156 2.34375-5.65625v-24h272v24c0 2.121094.839844 4.15625 2.34375 5.65625 1.5 1.503906 3.535156 2.34375 5.65625 2.34375h32c2.121094 0 4.15625-.839844 5.65625-2.34375 1.503906-1.5 2.34375-3.535156 2.34375-5.65625v-24h24c2.121094 0 4.15625-.839844 5.65625-2.34375 1.503906-1.5 2.34375-3.535156 2.34375-5.65625v-104h40c2.121094 0 4.15625-.839844 5.65625-2.34375 1.503906-1.5 2.34375-3.535156 2.34375-5.65625v-32c0-2.121094-.839844-4.15625-2.34375-5.65625-1.5-1.503906-3.535156-2.34375-5.65625-2.34375zm-88-216c-.015625 13.25-10.75 23.984375-24 24-2.121094 0-4.15625.839844-5.65625 2.34375-1.503906 1.5-2.34375 3.535156-2.34375 5.65625v72h-48v-64.804688c18.609375-3.824218 31.976562-20.195312 32-39.195312-.03125-8.683594-2.914062-17.117188-8.203125-24h32.203125c13.25.015625 23.984375 10.75 24 24zm-296 24c-13.253906 0-24-10.746094-24-24s10.746094-24 24-24h208c13.253906 0 24 10.746094 24 24s-10.746094 24-24 24c-2.121094 0-4.15625.839844-5.65625 2.34375-1.503906 1.5-2.34375 3.535156-2.34375 5.65625v72h-192v-72c0-2.121094-.839844-4.15625-2.34375-5.65625-1.5-1.503906-3.535156-2.34375-5.65625-2.34375zm-24 368h-16v-16h16zm320 0h-16v-16h16zm32-32h-400v-184c.039062-30.914062 25.085938-55.960938 56-56h288c30.914062.039062 55.960938 25.085938 56 56zm48-112h-32v-16h32zm0 0"/><path d="m296 304h-160c-4.417969 0-8 3.582031-8 8s3.582031 8 8 8h160c4.417969 0 8-3.582031 8-8s-3.582031-8-8-8zm0 0"/><path d="m296 336h-160c-4.417969 0-8 3.582031-8 8s3.582031 8 8 8h160c4.417969 0 8-3.582031 8-8s-3.582031-8-8-8zm0 0"/><path d="m144 104c2.121094.003906 4.15625-.839844 5.65625-2.34375l48-48c3.117188-3.125 3.113281-8.183594-.007812-11.304688-3.121094-3.121093-8.179688-3.125-11.304688-.007812l-48 48c-2.285156 2.289062-2.972656 5.730469-1.734375 8.71875s4.15625 4.9375 7.390625 4.9375zm0 0"/><path d="m170.34375 125.65625c3.125 3.125 8.1875 3.125 11.3125 0l48-48c3.117188-3.125 3.113281-8.183594-.007812-11.304688-3.121094-3.121093-8.179688-3.125-11.304688-.007812l-48 48c-3.125 3.125-3.125 8.1875 0 11.3125zm0 0"/><path d="m88 336h-48c-2.121094 0-4.15625.839844-5.65625 2.34375-1.503906 1.5-2.34375 3.535156-2.34375 5.65625v32c0 2.121094.839844 4.15625 2.34375 5.65625 1.5 1.503906 3.535156 2.34375 5.65625 2.34375h48c2.121094 0 4.15625-.839844 5.65625-2.34375 1.503906-1.5 2.34375-3.535156 2.34375-5.65625v-32c0-2.121094-.839844-4.15625-2.34375-5.65625-1.5-1.503906-3.535156-2.34375-5.65625-2.34375zm-8 32h-32v-16h32zm0 0"/><path d="m64 256c-17.671875 0-32 14.328125-32 32s14.328125 32 32 32 32-14.328125 32-32c-.015625-17.664062-14.335938-31.984375-32-32zm0 48c-8.835938 0-16-7.164062-16-16s7.164062-16 16-16 16 7.164062 16 16c-.011719 8.832031-7.167969 15.988281-16 16zm0 0"/></svg>