<svg xmlns="http://www.w3.org/2000/svg" width="420" height="512" viewBox="0 0 420 512">
  <g id="treated-water" transform="translate(-17749 -11759)">
    <g id="treated-water-2" data-name="treated-water" transform="translate(17749 11759)">
      <path id="Path_246" data-name="Path 246" d="M380,243a10,10,0,0,0-20,0,60.066,60.066,0,0,1-60,60,10,10,0,0,0,0,20A80.089,80.089,0,0,0,380,243Zm0,0"/>
      <path id="Path_247" data-name="Path 247" d="M171.664,340.473C166.379,348.445,120,419.234,120,449c0,34.148,27.477,63,60,63s60-28.852,60-63c0-29.766-46.379-100.555-51.664-108.527a10,10,0,0,0-16.672,0ZM220,449c0,22.906-18.691,43-40,43s-40-20.094-40-43c0-15.41,21.965-55.629,40-84.5C198.035,393.371,220,433.59,220,449Zm0,0"/>
      <path id="Path_248" data-name="Path 248" d="M70,166a10,10,0,0,0-8.227,4.316C55.449,179.469,0,260.762,0,296a70,70,0,0,0,140,0c0-35.238-55.449-116.531-61.773-125.684A10,10,0,0,0,70,166Zm0,180a50.056,50.056,0,0,1-50-50c0-19.34,27.965-68.437,50-102.07,22.035,33.629,50,82.719,50,102.07A50.056,50.056,0,0,1,70,346Zm0,0"/>
      <path id="Path_249" data-name="Path 249" d="M200,233a10,10,0,1,1-10-10A10,10,0,0,1,200,233Zm0,0"/>
      <path id="Path_250" data-name="Path 250" d="M308.43,4.617a10,10,0,0,0-16.859,0c-2.879,4.512-70.852,111.309-99.227,186.6a10,10,0,0,0,18.715,7.055c21.852-57.992,69.605-137.965,88.969-169.418C334.215,84.141,400,199.508,400,243a100.016,100.016,0,0,1-196.289,27.09,10,10,0,0,0-19.258,5.406A120.017,120.017,0,0,0,420,243c0-55.121-83.047-193.785-111.57-238.383Zm0,0"/>
    </g>
    <g id="add" transform="translate(17821 11782.999)">
      <g id="Group_355" data-name="Group 355" transform="translate(0 0.001)">
        <path id="Path_251" data-name="Path 251" d="M123.311,56.1H74.29V7.076C74.29,4.843,71.258,0,65.193,0s-9.1,4.842-9.1,7.075V56.1H7.075C4.842,56.1,0,59.13,0,65.194s4.842,9.1,7.075,9.1H56.1v49.021c0,2.233,3.032,7.075,9.1,7.075s9.1-4.843,9.1-7.075V74.291h49.021c2.233,0,7.075-3.032,7.075-9.1S125.544,56.1,123.311,56.1Z" transform="translate(0 -0.001)"/>
      </g>
    </g>
  </g>
</svg>
