<svg height="464pt" viewBox="0 0 464 464" width="464pt" xmlns="http://www.w3.org/2000/svg"><path d="m128 384h16v64h-16zm0 0"/><path d="m160 384h16v64h-16zm0 0"/><path d="m96 384h16v64h-16zm0 0"/><path d="m192 384h16v64h-16zm0 0"/><path d="m384 384h16v64h-16zm0 0"/><path d="m224 384h16v64h-16zm0 0"/><path d="m64 384h16v64h-16zm0 0"/><path d="m320 400h-16v-16h-16v64h16v-32h16v32h16v-64h-16zm0 0"/><path d="m256 384h16v64h-16zm0 0"/><path d="m352 384h16v64h-16zm0 0"/><path d="m186.792969 80c-1.808594-5.089844-2.792969-10.464844-2.792969-16 0-26.472656 21.527344-48 48-48s48 21.527344 48 48c0 5.535156-.984375 10.910156-2.792969 16h16.769531c1.34375-5.191406 2.023438-10.550781 2.023438-16 0-35.289062-28.710938-64-64-64s-64 28.710938-64 64c0 5.449219.679688 10.808594 2.023438 16zm0 0"/><path d="m352 80c0-17.648438-14.351562-32-32-32-3.152344 0-6.28125.566406-9.375 1.574219.855469 4.691406 1.375 9.496093 1.375 14.425781 0 5.425781-.601562 10.761719-1.671875 16zm0 0"/><path d="m32 384h16v64h-16zm0 0"/><path d="m200 64c0 5.71875 1.542969 11.152344 4.375 16h55.25c2.824219-4.847656 4.375-10.289062 4.375-16 0-17.648438-14.351562-32-32-32s-32 14.351562-32 32zm0 0"/><path d="m320 32c26.472656 0 48 21.527344 48 48h16c0-35.289062-28.710938-64-64-64-7.414062 0-14.566406 1.3125-21.40625 3.761719 3.007812 4.519531 5.542969 9.367187 7.597656 14.46875 4.519532-1.421875 9.128906-2.230469 13.808594-2.230469zm0 0"/><path d="m128 48c8.761719 0 17.199219 2.496094 24.550781 6.910156.632813-5.589844 1.863281-11 3.601563-16.183594-8.777344-4.335937-18.351563-6.726562-28.152344-6.726562-29.601562 0-54.777344 20.105469-61.921875 48h16.792969c6.6875-18.847656 24.664062-32 45.128906-32zm0 0"/><path d="m32 128h16v64h-16zm0 0"/><path d="m0 48h16v416h-16zm0 0"/><path d="m128 64c-11.625 0-22.046875 6.359375-27.648438 16h53.320313c-.257813-1.265625-.511719-2.527344-.703125-3.808594-6.066406-7.640625-15.242188-12.191406-24.96875-12.191406zm0 0"/><path d="m64 128v64h16v-16h16v16h16v-64h-16v32h-16v-32zm0 0"/><path d="m320 128h16v64h-16zm0 0"/><path d="m256 128h16v64h-16zm0 0"/><path d="m288 128h16v64h-16zm0 0"/><path d="m224 128h16v64h-16zm0 0"/><path d="m192 128h16v64h-16zm0 0"/><path d="m352 128h16v64h-16zm0 0"/><path d="m448 48h16v416h-16zm0 0"/><path d="m32 96h400v16h-400zm0 0"/><path d="m416 144h-16v-16h-16v64h16v-32h16v32h16v-64h-16zm0 0"/><path d="m395.816406 336c2.726563-7.6875 4.183594-15.726562 4.183594-24.015625 0-39.703125-32.296875-72-72-72s-72 32.296875-72 72c0 8.289063 1.457031 16.328125 4.183594 24.015625h17.25c-3.539063-7.441406-5.433594-15.617188-5.433594-24.015625 0-30.871094 25.128906-56 56-56s56 25.128906 56 56c0 8.390625-1.894531 16.566406-5.441406 24.015625zm0 0"/><path d="m252.296875 267.335938c-10.625-7.320313-23.273437-11.335938-36.296875-11.335938-35.289062 0-64 28.710938-64 64 0 5.449219.6875 10.808594 2.023438 16h16.761718c-1.808594-5.089844-2.785156-10.464844-2.785156-16 0-26.472656 21.527344-48 48-48 10.792969 0 21.03125 3.679688 29.335938 10.113281 1.871093-5.175781 4.199218-10.105469 6.960937-14.777343zm0 0"/><path d="m216 288c-17.648438 0-32 14.351562-32 32 0 5.71875 1.542969 11.160156 4.375 16h55.050781c-2.21875-7.777344-3.425781-15.800781-3.425781-24.015625 0-4.082031.375-8.054687.910156-11.992187-6.0625-7.527344-15.15625-11.992188-24.910156-11.992188zm0 0"/><path d="m32 352h400v16h-400zm0 0"/><path d="m160 128h16v64h-16zm0 0"/><path d="m416 384h16v64h-16zm0 0"/><path d="m328 271.984375c-22.054688 0-40 17.945313-40 40 0 8.75 2.992188 17.105469 8.214844 24.015625h63.5625c5.238281-6.921875 8.222656-15.273438 8.222656-24.015625 0-22.054687-17.945312-40-40-40zm0 0"/><path d="m128 128h16v64h-16zm0 0"/></svg>