<svg height="480pt" viewBox="0 0 480 480.00004" width="480pt" xmlns="http://www.w3.org/2000/svg"><path d="m472 272h-456v-16h456c4.417969 0 8-3.582031 8-8s-3.582031-8-8-8h-8v-40c0-4.417969-3.582031-8-8-8h-24v-8c0-4.417969-3.582031-8-8-8v-40c0-4.417969-3.582031-8-8-8h-32c-4.417969 0-8 3.582031-8 8v40c-4.417969 0-8 3.582031-8 8v16h-32c-4.417969 0-8 3.582031-8 8v32h-16v-40c0-4.417969-3.582031-8-8-8h-48c-4.417969 0-8 3.582031-8 8v40h-152v-5.679688c5.226562-7.78125 8.011719-16.945312 8-26.320312-.015625-17.132812-9.164062-32.953125-24-41.519531v-22.480469c0-8.835938-7.164062-16-16-16h-16c-8.835938 0-16 7.164062-16 16v22.480469c-14.835938 8.566406-23.980469 24.386719-24 41.519531-.011719 9.375 2.773438 18.539062 8 26.320312v5.679688h-8c-4.417969 0-8 3.582031-8 8v32c0 4.417969 3.582031 8 8 8h8.640625l15.359375 184.640625c.335938 4.164063 3.820312 7.371094 8 7.359375h16c4.179688.011719 7.664062-3.195312 8-7.359375l15.359375-184.640625h360.640625v64h-176v-40c0-4.417969-3.582031-8-8-8s-8 3.582031-8 8v160c0 4.417969 3.582031 8 8 8h32c4.417969 0 8-3.582031 8-8v-24h112v24c0 4.417969 3.582031 8 8 8h32c4.417969 0 8-3.582031 8-8v-184h16c4.417969 0 8-3.582031 8-8s-3.582031-8-8-8zm-88-80h32v48h-32zm64 16v32h-16v-32zm-56-64h16v32h-16zm-48 72h24v24h-24zm-80-8h32v32h-32zm-208-32c12.726562.03125 24.222656 7.601562 29.28125 19.28125-9.351562.214844-18.601562 2-27.359375 5.277344-10.679687 4.058594-22.203125 5.378906-33.523437 3.839844 1.824218-16.101563 15.398437-28.296876 31.601562-28.398438zm-8-32h16v16.71875c-2.644531-.441406-5.320312-.679688-8-.71875-2.679688.039062-5.355469.277344-8 .71875zm-17.441406 83.199219c-1.453125-1.992188-2.6875-4.136719-3.679688-6.398438h6.480469c10.367187.015625 20.644531-1.882812 30.320313-5.601562 7.671874-2.882813 15.804687-4.347657 24-4.320313-.636719 5.804688-2.820313 11.328125-6.320313 16-1.285156 1.75-1.804687 3.941406-1.4375 6.082032v7.039062h-47.921875v-6.320312c.480469-2.265626-.042969-4.628907-1.441406-6.480469zm409.441406 140.800781v64h-176v-64zm-160 96h-16v-16h16zm160 0h-16v-16h16zm-391.359375 0h-1.28125l-14.640625-176h30.5625zm0 0"/><path d="m376 320c4.417969 0 8-3.582031 8-8s-3.582031-8-8-8h-48c-4.417969 0-8 3.582031-8 8s3.582031 8 8 8zm0 0"/><path d="m328 400h48c4.417969 0 8-3.582031 8-8s-3.582031-8-8-8h-48c-4.417969 0-8 3.582031-8 8s3.582031 8 8 8zm0 0"/><path d="m128 208c-4.417969 0-8 3.582031-8 8s3.582031 8 8 8h96c4.417969 0 8-3.582031 8-8s-3.582031-8-8-8zm0 0"/><path d="m272 176c4.417969 0 8-3.582031 8-8v-128c0-4.417969-3.582031-8-8-8h-176c-4.417969 0-8 3.582031-8 8v80c0 4.417969 3.582031 8 8 8s8-3.582031 8-8v-72h52.71875l107.28125 107.28125v12.71875c0 4.417969 3.582031 8 8 8zm-8-91.28125-36.71875-36.71875h36.71875zm-84.71875-36.71875h25.4375l59.28125 59.28125v25.4375zm0 0"/><path d="m64 112c4.417969 0 8-3.582031 8-8v-64c0-13.253906 10.746094-24 24-24h176c13.253906 0 24 10.746094 24 24v128c0 4.417969 3.582031 8 8 8s8-3.582031 8-8v-128c0-22.089844-17.910156-40-40-40h-176c-22.089844 0-40 17.910156-40 40v64c0 4.417969 3.582031 8 8 8zm0 0"/><path d="m216 352h-112c-4.417969 0-8 3.582031-8 8v112c0 4.417969 3.582031 8 8 8s8-3.582031 8-8v-72h96v72c0 4.417969 3.582031 8 8 8s8-3.582031 8-8v-112c0-4.417969-3.582031-8-8-8zm-104 16h96v16h-96zm0 0"/></svg>