<svg height="512" viewBox="0 0 64 64" width="512" xmlns="http://www.w3.org/2000/svg"><g id="Wardrobe-2" data-name="Wardrobe"><path d="m57 47h2v2h-2z"/><path d="m55 50h4v2h-4z"/><path d="m53 53h6v2h-6z"/><path d="m8 28h2v4h-2z"/><path d="m16 28h2v4h-2z"/><path d="m54 28h2v4h-2z"/><path d="m46 28h2v4h-2z"/><path d="m30 36h4v2h-4z"/><path d="m30 44h4v2h-4z"/><path d="m30 52h4v2h-4z"/><path d="m32.586 7.829h2v5.171h-2z" transform="matrix(.707 -.707 .707 .707 2.473 26.799)"/><path d="m35.586 4.829h2v5.171h-2z" transform="matrix(.707 -.707 .707 .707 5.473 28.042)"/><path d="m59 2h-54a3 3 0 0 0 -3 3v56a1 1 0 0 0 1 1h58a1 1 0 0 0 1-1v-56a3 3 0 0 0 -3-3zm1 3v51h-8v-52h7a1 1 0 0 1 1 1zm-36 29h16v6h-16zm0 8h16v6h-16zm16-10h-16v-28h16zm-18 24h-8v-52h8zm2-6h16v6h-16zm18-46h8v52h-8zm-37 0h7v52h-8v-51a1 1 0 0 1 1-1zm-1 56v-2h56v2z"/></g></svg>