<svg height="479pt" viewBox="-43 0 479 479.99998" width="479pt" xmlns="http://www.w3.org/2000/svg"><path d="m56.5 344.007812h48v16h-48zm0 0"/><path d="m56.5 408.007812h48v16h-48zm0 0"/><path d="m392.5 336v-100c0-17.386719-8.6875-33.621094-23.15625-43.265625-14.464844-9.644531-32.792969-11.421875-48.84375-4.734375v-44c0-13.253906-10.746094-24-24-24h-160c-13.253906 0-24 10.746094-24 24v96c0 13.253906 10.746094 24 24 24h45.753906l-4 16h-96l6.078125-30.398438c.480469-2.355468-.121093-4.796874-1.640625-6.660156-1.515625-1.859375-3.789062-2.941406-6.191406-2.941406v-24c0-17.671875-14.328125-32-32-32s-32 14.328125-32 32v24c-2.402344 0-4.679688 1.078125-6.199219 2.941406-1.519531 1.859375-2.121093 4.304688-1.640625 6.660156l6.078125 30.398438h-6.238281c-4.417969 0-8 3.582031-8 8v32c0 4.417969 3.582031 8 8 8h16v120c0 4.417969 3.582031 8 8 8v24h16v-24h64v24h16v-24c4.417969 0 8-3.582031 8-8v-120h92.449219c-2.882813 4.84375-4.417969 10.367188-4.449219 16 0 17.671875 14.328125 32 32 32h56v40h-2.0625c-16.527344.023438-29.914062 13.410156-29.9375 29.9375v10.0625c0 4.417969 3.582031 8 8 8h8v8c0 4.417969 3.582031 8 8 8s8-3.582031 8-8v-8h48v8c0 4.417969 3.582031 8 8 8s8-3.582031 8-8v-8h8c4.417969 0 8-3.582031 8-8v-10.0625c-.023438-16.527344-13.410156-29.914062-29.9375-29.9375h-2.0625v-40.800781c18.609375-3.828125 31.976562-20.199219 32-39.199219zm-16-24h-24v-2.097656c.03125-13.558594 9.597656-25.230469 22.886719-27.925782l1.113281-.222656zm0-76v29.441406l-4.246094.847656c-20.765625 4.203126-35.703125 22.429688-35.753906 43.613282v2.097656h-32v-76c0-19.882812 16.117188-36 36-36s36 16.117188 36 36zm-88 29.441406-4.246094.847656c-9.261718 1.890626-17.671875 6.699219-24 13.71875h-5.53125l-4-16h37.777344zm-24 46.558594v-2.097656c0-4.871094 1.265625-9.660156 3.664062-13.902344h20.335938v16zm-128-176h160c4.417969 0 8 3.582031 8 8v54.574219c-5.148438 4.929687-9.234375 10.859375-12 17.425781h-164v-72c0-4.417969 3.582031-8 8-8zm-8 104v-8h160.199219c-.09375 1.328125-.199219 2.648438-.199219 4v12h-152c-4.417969 0-8-3.582031-8-8zm70.246094 24h35.507812l4 16h-43.507812zm-166.246094-48c0-8.835938 7.164062-16 16-16s16 7.164062 16 16v24h-32zm-6.238281 40h44.476562l-4.796875 24h-34.882812zm-9.761719 40h234.335938c-1.519532 4.480469-2.308594 9.175781-2.335938 13.902344v2.097656h-232zm104 144h-80v-48h80zm0-64h-80v-48h80zm120-32c0-8.804688 7.113281-15.957031 15.921875-16h120.078125v8c0 13.253906-10.746094 24-24 24h-96c-8.835938 0-16-7.164062-16-16zm136 101.9375v2.0625h-80v-2.0625c.007812-7.695312 6.242188-13.929688 13.9375-13.9375h52.125c7.695312.007812 13.929688 6.242188 13.9375 13.9375zm-48-29.9375v-40h16v40zm0 0"/><path d="m160.5 400c-2.292969 0-4.476562.984375-5.996094 2.707031-1.519531 1.71875-2.222656 4.007813-1.941406 6.285157l8 64c.5 4.003906 3.902344 7.007812 7.9375 7.007812h48c4.035156 0 7.4375-3.003906 7.9375-7.007812l8-64c.28125-2.277344-.421875-4.566407-1.941406-6.285157-1.519532-1.722656-3.703125-2.707031-5.996094-2.707031zm48.9375 64h-33.875l-6-48h45.875zm0 0"/><path d="m212.5625 104c22.707031-.023438 42.769531-14.769531 49.566406-36.433594 6.796875-21.660156-1.246094-45.230468-19.867187-58.21875-18.621094-12.988281-43.519531-12.390625-61.496094 1.472656-17.980469 13.859376-24.890625 37.785157-17.066406 59.101563 7.453125 20.542969 27.011719 34.183594 48.863281 34.078125zm-12.445312-85.792969c18.664062-6.84375 39.347656 2.734375 46.191406 21.402344 6.847656 18.664063-2.730469 39.347656-21.394532 46.195313-18.667968 6.847656-39.347656-2.730469-46.199218-21.398438-6.820313-18.664062 2.753906-39.332031 21.402344-46.199219zm0 0"/><path d="m222.898438 73.664062 11.304687-11.328124-13.703125-13.632813v-20.695313h-16v24c0 2.125.847656 4.164063 2.351562 5.664063zm0 0"/></svg>