<svg id="cancel" xmlns="http://www.w3.org/2000/svg" width="15" height="15" viewBox="0 0 15 15">
  <g id="Group_611" data-name="Group 611">
    <path id="Path_588" data-name="Path 588" d="M7.5,15A7.5,7.5,0,1,1,15,7.5,7.509,7.509,0,0,1,7.5,15ZM7.5.857A6.643,6.643,0,1,0,14.143,7.5,6.651,6.651,0,0,0,7.5.857Z" fill="red"/>
  </g>
  <g id="Group_612" data-name="Group 612" transform="translate(4.977 4.977)">
    <path id="Path_589" data-name="Path 589" d="M17.031,21.646a.429.429,0,0,1-.3-.733l2.579-2.579.006-.005,1.6-1.6a.429.429,0,0,1,.607.606l-2.579,2.579-.006.006-1.6,1.6A.432.432,0,0,1,17.031,21.646Z" transform="translate(-16.602 -16.6)" fill="red"/>
  </g>
  <g id="Group_613" data-name="Group 613" transform="translate(4.977 4.977)">
    <path id="Path_590" data-name="Path 590" d="M21.218,21.646a.428.428,0,0,1-.3-.126l-1.6-1.6-.006-.006-2.579-2.579a.429.429,0,0,1,.607-.606l1.6,1.6.006.005,2.579,2.579a.429.429,0,0,1-.3.733Z" transform="translate(-16.602 -16.6)" fill="red"/>
  </g>
</svg>
