<svg xmlns="http://www.w3.org/2000/svg" width="15" height="15" viewBox="0 0 15 15">
  <g id="Group_614" data-name="Group 614" transform="translate(-17021.686 7139.648)">
    <path id="Path_603" data-name="Path 603" d="M275.686,266.858a7.5,7.5,0,1,0-12.511,5.573A7.507,7.507,0,0,0,275.686,266.858Zm-7.512,6.444a6.45,6.45,0,1,1,4.321-11.247A6.452,6.452,0,0,1,268.174,273.3Zm0,0" transform="translate(16761 -7399)" fill="#25d6e5"/>
    <path id="Path_604" data-name="Path 604" d="M307.55,290.473a.525.525,0,0,0-.525.525v4.3h-3.518a.525.525,0,1,0,0,1.05h4.044a.525.525,0,0,0,.525-.525V291A.525.525,0,0,0,307.55,290.473Zm0,0" transform="translate(16721.566 -7427.867)" fill="#25d6e5"/>
  </g>
</svg>
