<svg xmlns="http://www.w3.org/2000/svg" width="480" height="423" viewBox="0 0 480 423">
  <g id="bathroom" transform="translate(-248.11 -479.08)">
    <ellipse id="Ellipse_65" data-name="Ellipse 65" cx="177.656" cy="16.611" rx="177.656" ry="16.611" transform="translate(248.11 868.858)" fill="#e6edff"/>
    <ellipse id="Ellipse_66" data-name="Ellipse 66" cx="66.644" cy="14.954" rx="66.644" ry="14.954" transform="translate(594.822 818.324)" fill="#e6edff"/>
    <g id="Group_617" data-name="Group 617" transform="translate(252.529 789.126)">
      <path id="Path_655" data-name="Path 655" d="M1479.67,2548.027c0,5.472,2.011,13.842,15,13.842s32.046-8.372,32.046-13.842-10.532-9.907-23.524-9.907S1479.67,2542.556,1479.67,2548.027Z" transform="translate(-1253.006 -2462.498)" fill="#b6b7b2"/>
      <path id="Path_656" data-name="Path 656" d="M642.179,2548.027c0,5.472-2.011,13.842-15,13.842s-32.046-8.372-32.046-13.842,10.532-9.907,23.524-9.907S642.179,2542.556,642.179,2548.027Z" transform="translate(-534.436 -2462.498)" fill="#b6b7b2"/>
      <g id="Group_616" data-name="Group 616" transform="translate(0.015 9.856)">
        <path id="Path_657" data-name="Path 657" d="M306.841,2187.62c8.322,17.088,37.369,52.327,135.447,52.327S579.019,2204.706,592,2187.62H612.16c0,43.657-33.725,79.213-75.329,79.213H347.069c-41.6,0-75.329-35.557-75.329-79.213Z" transform="translate(-271.74 -2187.62)" fill="#e7e4e0"/>
        <path id="Path_658" data-name="Path 658" d="M594.257,2239.947c-98.078,0-127.126-35.241-135.447-52.327h285.16C730.988,2204.708,692.335,2239.947,594.257,2239.947Z" transform="translate(-423.709 -2187.62)" fill="#d8d9d3"/>
      </g>
      <path id="Path_659" data-name="Path 659" d="M271.66,2144.926c0,5.432,76.054,9.834,169.872,9.834s170.565-4.383,170.565-9.813-76.748-9.856-170.565-9.856S271.66,2139.494,271.66,2144.926Z" transform="translate(-271.66 -2135.09)" fill="#fefdff"/>
    </g>
    <g id="Group_624" data-name="Group 624" transform="translate(277.514 524.425)">
      <path id="Path_660" data-name="Path 660" d="M480.594,1960.234a5.284,5.284,0,0,0-5.284-5.284H431.554a5.284,5.284,0,0,0-5.284,5.284v0a5.284,5.284,0,0,0,5.284,5.284H475.31a5.284,5.284,0,0,0,5.284-5.284Z" transform="translate(-422.245 -1723.372)" fill="#948ea2"/>
      <g id="Group_618" data-name="Group 618" transform="translate(0 229.398)">
        <path id="Path_661" data-name="Path 661" d="M404.82,1948.923a9.833,9.833,0,0,1,3.169-5.575A9.854,9.854,0,0,0,421,1943.33a9.843,9.843,0,0,1,3.2,5.65,9.863,9.863,0,0,0-6.477,11.076,9.892,9.892,0,0,1-6.276.054,9.869,9.869,0,0,0-6.631-11.187Z" transform="translate(-404.82 -1943.33)" fill="#b6bccc"/>
      </g>
      <circle id="Ellipse_67" data-name="Ellipse 67" cx="3.314" cy="3.314" r="3.314" transform="translate(6.138 233.606)" fill="#f50003"/>
      <g id="Group_619" data-name="Group 619" transform="translate(42.552 229.398)">
        <path id="Path_662" data-name="Path 662" d="M631.6,1948.923a9.834,9.834,0,0,1,3.169-5.575,9.854,9.854,0,0,0,13.014-.019,9.843,9.843,0,0,1,3.2,5.65,9.863,9.863,0,0,0-6.477,11.076,9.892,9.892,0,0,1-6.276.054,9.869,9.869,0,0,0-6.631-11.187Z" transform="translate(-631.6 -1943.33)" fill="#b6bccc"/>
      </g>
      <circle id="Ellipse_68" data-name="Ellipse 68" cx="3.314" cy="3.314" r="3.314" transform="translate(48.689 233.606)" fill="#0100ff"/>
      <g id="Group_620" data-name="Group 620" transform="translate(27.536 242.245)">
        <path id="Path_663" data-name="Path 663" d="M607.3,2028.226s-21.221.034-29.633,0c-9.038-.036-7.205-9.776-7.205-9.776l.011-6.65H574v6.612l.015.193-.024.225c-.09.865-.073,3.539,1.107,4.852a3.128,3.128,0,0,0,2.571.856H607.3l.077.028a10.984,10.984,0,0,1,5.955,2.2c2.437,1.809,5.344,5.5,5.346,12.789l-3.576.006C615,2027.406,607.3,2028.226,607.3,2028.226Z" transform="translate(-566.792 -2011.8)" fill="#b6bccc"/>
        <path id="Path_664" data-name="Path 664" d="M551.67,2018.232V2011.8h3.584l-.011,6.65s-1.833,9.757,7.205,9.794c8.41.034,29.633-.009,29.633-.009s7.7-.82,7.8,11.343h-3.61c0-3.244-.771-5.625-2.227-6.86a3.967,3.967,0,0,0-2.085-.964H562.447a10.124,10.124,0,0,1-7.926-3.295C551.277,2024.8,551.471,2019.546,551.67,2018.232Z" transform="translate(-551.575 -2011.8)" fill="#948ea2"/>
      </g>
      <path id="Path_665" data-name="Path 665" d="M784.385,2147.4a1.366,1.366,0,0,0-1.366-1.366h-10.6a1.366,1.366,0,0,0-1.366,1.366v2.7a1.366,1.366,0,0,0,1.366,1.366h10.6a1.366,1.366,0,0,0,1.366-1.366Z" transform="translate(-702.333 -1878.599)" fill="#948ea2"/>
      <g id="Group_621" data-name="Group 621" transform="translate(27.458)">
        <path id="Path_666" data-name="Path 666" d="M594.575,739.934c22.88-.619,24.042,15.307,24.1,16.99l-3.591-.009a13.324,13.324,0,0,0-3.935-8.55c-3.494-3.411-9.036-5.038-16.478-4.837-8.29.225-14.279,5.852-17.8,16.728a67.1,67.1,0,0,0-2.925,17.923L573.9,967.93H570.31l.045-189.762S570.421,740.587,594.575,739.934Z" transform="translate(-566.717 -736.32)" fill="#b6bccc"/>
        <path id="Path_667" data-name="Path 667" d="M551.2,762.59a73.431,73.431,0,0,1,3.224-19.962,37.637,37.637,0,0,1,8-14.48,22.753,22.753,0,0,1,16.495-7.38,37.378,37.378,0,0,1,13.2,1.764,22.589,22.589,0,0,1,8.49,5.115,20.5,20.5,0,0,1,5.342,8.986,18.291,18.291,0,0,1,.762,4.728l-3.6-.009c-.058-1.683-1.221-17.609-24.1-16.99-24.154.653-24.22,38.234-24.22,38.234l-.045,189.762H551.16Z" transform="translate(-551.16 -720.75)" fill="#948ea2"/>
      </g>
      <g id="Group_623" data-name="Group 623" transform="translate(49.347 13.636)">
        <g id="Group_622" data-name="Group 622" transform="translate(0.754)">
          <path id="Path_668" data-name="Path 668" d="M691.477,800.524l20.039-6.017c7.738-2.323,23.178-1.105,27.031,5.618l-66.7,20.026C671.359,812.418,683.737,802.847,691.477,800.524Z" transform="translate(-671.835 -793.425)" fill="#b6bccc"/>
        </g>
        <ellipse id="Ellipse_69" data-name="Ellipse 69" cx="34.821" cy="2.906" rx="34.821" ry="2.906" transform="translate(0 24.143) rotate(-16.714)" fill="#948ea2"/>
        <path id="Path_669" data-name="Path 669" d="M997.775,834.711c.086.285.8.321,1.6.081s1.379-.666,1.293-.949-.8-.321-1.6-.081S997.69,834.427,997.775,834.711Z" transform="translate(-935.857 -826.064)" fill="#595563"/>
        <ellipse id="Ellipse_70" data-name="Ellipse 70" cx="1.512" cy="0.539" rx="1.512" ry="0.539" transform="translate(52.163 9.907) rotate(-16.714)" fill="#595563"/>
        <path id="Path_670" data-name="Path 670" d="M917.855,849.7c.086.285.8.321,1.6.081s1.379-.666,1.293-.949-.8-.321-1.6-.081S917.77,849.415,917.855,849.7Z" transform="translate(-870.932 -838.241)" fill="#595563"/>
        <path id="Path_671" data-name="Path 671" d="M889.143,858.321c.086.285.8.321,1.6.081s1.379-.666,1.293-.949-.8-.321-1.6-.081S889.057,858.035,889.143,858.321Z" transform="translate(-847.608 -845.244)" fill="#595563"/>
        <ellipse id="Ellipse_71" data-name="Ellipse 71" cx="1.512" cy="0.539" rx="1.512" ry="0.539" transform="translate(36.127 14.145) rotate(-16.714)" fill="#595563"/>
        <ellipse id="Ellipse_72" data-name="Ellipse 72" cx="1.512" cy="0.539" rx="1.512" ry="0.539" transform="translate(31.351 15.578) rotate(-16.714)" fill="#595563"/>
        <ellipse id="Ellipse_73" data-name="Ellipse 73" cx="1.512" cy="0.539" rx="1.512" ry="0.539" transform="translate(26.412 17.061) rotate(-16.714)" fill="#595563"/>
        <path id="Path_672" data-name="Path 672" d="M780.815,890.841c.086.285.8.321,1.6.081s1.379-.666,1.293-.949-.8-.321-1.6-.081S780.73,890.557,780.815,890.841Z" transform="translate(-759.606 -871.662)" fill="#595563"/>
        <path id="Path_673" data-name="Path 673" d="M754.063,898.881c.086.285.8.321,1.6.081s1.379-.666,1.293-.949-.8-.321-1.6-.081S753.977,898.6,754.063,898.881Z" transform="translate(-737.874 -878.193)" fill="#595563"/>
        <path id="Path_674" data-name="Path 674" d="M726.413,910.261c.086.285.8.321,1.6.081s1.379-.666,1.293-.949-.8-.321-1.6-.081S726.327,909.975,726.413,910.261Z" transform="translate(-715.412 -887.438)" fill="#595563"/>
        <path id="Path_675" data-name="Path 675" d="M701.163,920.931c.086.285.8.321,1.6.081s1.379-.666,1.293-.949-.8-.321-1.6-.081S701.077,920.645,701.163,920.931Z" transform="translate(-694.899 -896.106)" fill="#595563"/>
        <ellipse id="Ellipse_74" data-name="Ellipse 74" cx="1.512" cy="0.539" rx="1.512" ry="0.539" transform="translate(2.184 26.027) rotate(-16.714)" fill="#595563"/>
        <path id="Path_676" data-name="Path 676" d="M716.063,922.381c.086.285.8.321,1.6.081s1.379-.666,1.293-.949-.8-.321-1.6-.081S715.977,922.1,716.063,922.381Z" transform="translate(-707.004 -897.284)" fill="#595563"/>
        <ellipse id="Ellipse_75" data-name="Ellipse 75" cx="1.512" cy="0.539" rx="1.512" ry="0.539" transform="translate(14.177 23.583) rotate(-16.714)" fill="#595563"/>
        <path id="Path_677" data-name="Path 677" d="M769.553,909.4c.086.285.8.321,1.6.081s1.379-.666,1.293-.949-.8-.321-1.6-.081S769.467,909.117,769.553,909.4Z" transform="translate(-750.457 -886.739)" fill="#595563"/>
        <path id="Path_678" data-name="Path 678" d="M798.833,903.461c.086.285.8.321,1.6.081s1.379-.666,1.293-.949-.8-.321-1.6-.081S798.747,903.175,798.833,903.461Z" transform="translate(-774.243 -881.914)" fill="#595563"/>
        <ellipse id="Ellipse_76" data-name="Ellipse 76" cx="1.512" cy="0.539" rx="1.512" ry="0.539" transform="translate(30.58 19.236) rotate(-16.714)" fill="#595563"/>
        <ellipse id="Ellipse_77" data-name="Ellipse 77" cx="1.512" cy="0.539" rx="1.512" ry="0.539" transform="translate(35.641 17.716) rotate(-16.714)" fill="#595563"/>
        <path id="Path_679" data-name="Path 679" d="M881.555,878.851c.086.285.8.321,1.6.081s1.379-.666,1.293-.949-.8-.321-1.6-.081S881.47,878.567,881.555,878.851Z" transform="translate(-841.444 -861.921)" fill="#595563"/>
        <path id="Path_680" data-name="Path 680" d="M908.765,867.6c.086.285.8.321,1.6.081s1.379-.666,1.293-.949-.8-.321-1.6-.081S908.68,867.317,908.765,867.6Z" transform="translate(-863.548 -852.782)" fill="#595563"/>
        <path id="Path_681" data-name="Path 681" d="M935.455,859.351c.086.285.8.321,1.6.081s1.379-.666,1.293-.949-.8-.321-1.6-.081S935.37,859.067,935.455,859.351Z" transform="translate(-885.23 -846.08)" fill="#595563"/>
        <path id="Path_682" data-name="Path 682" d="M960.693,851.773c.086.285.8.321,1.6.081s1.379-.666,1.293-.949-.8-.321-1.6-.081S960.607,851.49,960.693,851.773Z" transform="translate(-905.733 -839.925)" fill="#595563"/>
        <path id="Path_683" data-name="Path 683" d="M904.113,859.991c.086.285.8.321,1.6.081s1.379-.666,1.293-.949-.8-.321-1.6-.081S904.027,859.705,904.113,859.991Z" transform="translate(-859.769 -846.6)" fill="#595563"/>
        <path id="Path_684" data-name="Path 684" d="M878.875,869.941c.086.285.8.321,1.6.081s1.379-.666,1.293-.949-.8-.321-1.6-.081S878.79,869.655,878.875,869.941Z" transform="translate(-839.267 -854.683)" fill="#595563"/>
        <path id="Path_685" data-name="Path 685" d="M850.075,879.063c.086.285.8.321,1.6.081s1.379-.666,1.293-.949-.8-.321-1.6-.081S849.99,878.778,850.075,879.063Z" transform="translate(-815.87 -862.095)" fill="#595563"/>
        <ellipse id="Ellipse_78" data-name="Ellipse 78" cx="1.512" cy="0.539" rx="1.512" ry="0.539" transform="translate(28.319 18.224) rotate(-16.714)" fill="#595563"/>
        <path id="Path_686" data-name="Path 686" d="M792.735,895.8c.086.285.8.321,1.6.081s1.379-.666,1.293-.949-.8-.321-1.6-.081S792.65,895.515,792.735,895.8Z" transform="translate(-769.289 -875.691)" fill="#595563"/>
        <ellipse id="Ellipse_79" data-name="Ellipse 79" cx="1.512" cy="0.539" rx="1.512" ry="0.539" transform="translate(18.485 20.599) rotate(-16.714)" fill="#595563"/>
        <path id="Path_687" data-name="Path 687" d="M973.578,838.837c.081.268.809.285,1.625.039s1.415-.661,1.336-.929-.809-.285-1.625-.039S973.5,838.569,973.578,838.837Z" transform="translate(-916.201 -829.42)" fill="#595563"/>
      </g>
    </g>
    <g id="Group_627" data-name="Group 627" transform="translate(594.822 685.042)">
      <g id="Group_625" data-name="Group 625" transform="translate(0.002 7.828)">
        <path id="Path_688" data-name="Path 688" d="M2118.909,1621.22c4.259,20.347,21.8,35.652,42.794,35.652s38.532-15.305,42.793-35.652h20.974c-3.019,25.68-17.365,45.768-63.76,45.768-52.08,0-60.741-20.086-63.76-45.768Z" transform="translate(-2097.95 -1621.22)" fill="#e7e4e0"/>
        <path id="Path_689" data-name="Path 689" d="M2252.444,1656.872c-20.992,0-38.532-15.305-42.794-35.652h85.585C2290.976,1641.567,2273.434,1656.872,2252.444,1656.872Z" transform="translate(-2188.691 -1621.22)" fill="#d8d9d3"/>
      </g>
      <ellipse id="Ellipse_80" data-name="Ellipse 80" cx="63.76" cy="9.149" rx="63.76" ry="9.149" fill="#fefdff"/>
      <g id="Group_626" data-name="Group 626" transform="translate(42.797 51.297)">
        <path id="Path_690" data-name="Path 690" d="M2334.725,1963.942c4.31-9.153,9.38-16.8,14.812-18.972v82.87a32.1,32.1,0,0,1-23.507-10.3C2334.759,2003.2,2335.915,1982.091,2334.725,1963.942Z" transform="translate(-2326.03 -1927.693)" fill="#e7e4e0"/>
        <path id="Path_691" data-name="Path 691" d="M2348.909,1889.139a226.248,226.248,0,0,0-5.419-36.241l20.231-.008v17.277C2358.289,1872.336,2353.221,1879.986,2348.909,1889.139Z" transform="translate(-2340.214 -1852.89)" fill="#d8d9d3"/>
        <path id="Path_692" data-name="Path 692" d="M2467.087,1950.475c-2.271,19.872-2.678,46.676,7.755,63.814a31.9,31.9,0,0,1-23.522,10.3v-82.87C2458.034,1939.046,2463.291,1943.919,2467.087,1950.475Z" transform="translate(-2427.812 -1924.447)" fill="#efedea"/>
        <path id="Path_693" data-name="Path 693" d="M2451.31,1870.167V1852.89l20.253.008a219.925,219.925,0,0,0-4.494,26.023C2463.274,1872.363,2458.025,1867.49,2451.31,1870.167Z" transform="translate(-2427.803 -1852.89)" fill="#dddddb"/>
      </g>
    </g>
    <g id="Group_631" data-name="Group 631" transform="translate(636.306 646.649)">
      <path id="Path_694" data-name="Path 694" d="M2378.563,1387.439a4.149,4.149,0,0,0-4.148-4.149h-34.767a4.149,4.149,0,0,0-4.149,4.149h0a4.149,4.149,0,0,0,4.149,4.149h34.767a4.149,4.149,0,0,0,4.148-4.149Z" transform="translate(-2332.409 -1381.491)" fill="#948ea2"/>
      <g id="Group_628" data-name="Group 628">
        <path id="Path_695" data-name="Path 695" d="M2319.03,1378.134a7.793,7.793,0,0,1,2.51-4.419,7.807,7.807,0,0,0,10.314-.015,7.79,7.79,0,0,1,2.537,4.477,7.813,7.813,0,0,0-5.257,7.384,7.937,7.937,0,0,0,.124,1.394,7.845,7.845,0,0,1-4.976.041,7.813,7.813,0,0,0-5.252-8.862Z" transform="translate(-2319.03 -1373.7)" fill="#b6bccc"/>
      </g>
      <circle id="Ellipse_81" data-name="Ellipse 81" cx="2.627" cy="2.627" r="2.627" transform="translate(3.77 5.965) rotate(-45)" fill="#f50003"/>
      <g id="Group_629" data-name="Group 629" transform="translate(33.725)">
        <path id="Path_696" data-name="Path 696" d="M2498.77,1378.134a7.8,7.8,0,0,1,2.51-4.419,7.807,7.807,0,0,0,10.314-.015,7.79,7.79,0,0,1,2.537,4.477,7.813,7.813,0,0,0-5.258,7.384,7.937,7.937,0,0,0,.124,1.394,7.845,7.845,0,0,1-4.976.041,7.81,7.81,0,0,0-5.252-8.862Z" transform="translate(-2498.77 -1373.7)" fill="#b6bccc"/>
      </g>
      <circle id="Ellipse_82" data-name="Ellipse 82" cx="2.627" cy="2.627" r="2.627" transform="translate(38.046 3.975) rotate(-13.286)" fill="#0100ff"/>
      <g id="Group_630" data-name="Group 630" transform="translate(21.752 10.097)">
        <path id="Path_697" data-name="Path 697" d="M2479.515,1440.616s-16.819.026-23.486,0c-7.164-.028-5.711-7.792-5.711-7.792l.01-5.314h2.844v5.331l-.013.152-.032.178c-.071.685-.064,2.846.87,3.888a2.446,2.446,0,0,0,2.03.72h23.486l.06-.021a8.615,8.615,0,0,1,4.721,1.726c1.933,1.434,4.235,4.349,4.237,10.127l-2.835,0C2485.62,1439.973,2479.515,1440.616,2479.515,1440.616Z" transform="translate(-2447.337 -1427.51)" fill="#b6bccc"/>
        <path id="Path_698" data-name="Path 698" d="M2434.964,1432.7v-5.186h2.983l-.01,5.314s-1.452,7.757,5.711,7.785c6.667.026,23.487,0,23.487,0s6.105-.646,6.182,9l-2.861,0c0-2.571-.612-4.458-1.766-5.436a3.138,3.138,0,0,0-1.653-.764h-23.39a8.193,8.193,0,0,1-6.351-2.612C2434.724,1437.9,2434.964,1433.738,2434.964,1432.7Z" transform="translate(-2434.958 -1427.51)" fill="#948ea2"/>
      </g>
      <path id="Path_699" data-name="Path 699" d="M2619.8,1535.443a1.082,1.082,0,0,0-1.083-1.083h-8.4a1.082,1.082,0,0,0-1.083,1.083v2.083a1.082,1.082,0,0,0,1.083,1.083h8.4a1.082,1.082,0,0,0,1.083-1.083v-2.083Z" transform="translate(-2554.779 -1504.215)" fill="#948ea2"/>
    </g>
    <path id="Path_700" data-name="Path 700" d="M2109.772,538.877a91.821,91.821,0,0,1,10.761-29.136,73.1,73.1,0,0,1,11.129-14.587c10.025-10.089,22.514-16.075,36.056-16.075,33.025,0,59.8,35.592,59.8,79.5q0,4.067-.3,8.031a101.015,101.015,0,0,1-3.837,21.086,88.71,88.71,0,0,1-8.787,20.25c-6.479,10.858-15.048,19.413-24.9,24.589a46.957,46.957,0,0,1-21.974,5.539c-30.941,0-56.393-31.243-59.482-71.292q-.312-4.044-.315-8.2A104.785,104.785,0,0,1,2109.772,538.877Z" transform="translate(-1511.225)" fill="#839bff"/>
    <g id="Group_632" data-name="Group 632" transform="translate(601.339 479.872)">
      <path id="Path_701" data-name="Path 701" d="M2211.009,568.97l95.551,71.453a101.015,101.015,0,0,1-3.837,21.086L2199.88,583.555A73.162,73.162,0,0,1,2211.009,568.97Z" transform="translate(-2187.269 -552.895)" fill="#cfd8ff"/>
      <path id="Path_702" data-name="Path 702" d="M2295.256,483.3c33.026,0,59.8,35.592,59.8,79.5q0,4.067-.3,8.031L2259.2,499.375C2269.223,489.286,2281.712,483.3,2295.256,483.3Z" transform="translate(-2235.459 -483.3)" fill="#b0c3ff"/>
      <path id="Path_703" data-name="Path 703" d="M2183,866.1l-50.014-36.21q-.312-4.044-.315-8.2a104.771,104.771,0,0,1,1.85-19.7l104.816,69.066c-6.479,10.858-15.048,19.413-24.9,24.589l-60.951-37.622Z" transform="translate(-2132.67 -742.193)" fill="#cfd8ff"/>
      <path id="Path_704" data-name="Path 704" d="M2184.355,986.9l-29.511-8.081,60.951,37.622a46.958,46.958,0,0,1-21.974,5.539c-30.941,0-56.393-31.243-59.482-71.291Z" transform="translate(-2134.027 -862.992)" fill="#b0c3ff"/>
      <path id="Path_705" data-name="Path 705" d="M2153.3,646.7l102.844,77.953a88.708,88.708,0,0,1-8.787,20.25L2142.54,675.836A91.884,91.884,0,0,1,2153.3,646.7Z" transform="translate(-2140.688 -616.041)" fill="#b0c3ff"/>
    </g>
    <g id="Group_633" data-name="Group 633" transform="translate(495.629 684.352)">
      <path id="Path_706" data-name="Path 706" d="M1655.211,1586.95h-66.282c-5.483,0-6.689-6.025-6.689-6.025V1574.9h2.469v5.552a5.761,5.761,0,0,0,.841,1.771,3.878,3.878,0,0,0,3.379,1.764h66.284a4,4,0,0,0,3.452-1.764,11.072,11.072,0,0,0,.912-1.771V1574.9h2.37v6.025S1660.692,1586.95,1655.211,1586.95Z" transform="translate(-1579.668 -1574.9)" fill="#948ea2"/>
      <path id="Path_707" data-name="Path 707" d="M1571.1,1574.9v6.025s1.206,6.025,6.689,6.025h66.282c5.483,0,6.736-6.025,6.736-6.025V1574.9h2.469v6.393l-.075.357a12.894,12.894,0,0,1-1.781,4.139,8.629,8.629,0,0,1-7.35,4.126h-66.283a8.626,8.626,0,0,1-7.35-4.126,13.373,13.373,0,0,1-1.807-4.139l-.1-.357V1574.9Z" transform="translate(-1568.53 -1574.9)" fill="#b6bccc"/>
    </g>
    <g id="Group_634" data-name="Group 634" transform="translate(508.85 689.779)">
      <path id="Path_708" data-name="Path 708" d="M1845.1,1653.548l-2.723,1.683h0l0,0,.563-2.711,2.518-12.2h-.008v-.047l0,0,.008-.026-3.274,1.552,3.068-13.923h0l-.028-.034.006-.045-.024-.024v-.006l-2.843.955,2.158-13.427,0,0v0l-.011.009v0l.009-.006h0l0-.006,0,.011-2.456,1.82,2.175-12.752h9.363l-2.141,12.579,0,0v.006l2.456-1.824-2.171,13.423-.013,0,.011.007.026-.009,0,.022h0l2.867-.955-2.3,10.543-.747,3.415,0,0v-.079h-.011l.008.043,0,.011.009-.037,0-.017h0l.745-.3,2.5-1.079,0,.009-2.445,1.083,2.475-1.133-2.471,12.04-.61,2.966h0l2.732-1.715-.073.539-1.833,13.761h0l2.161-1.8-1.7,12.095,2.043-1.486-.013,7.687-.3-.043a30.8,30.8,0,0,0-9.1.084l.013-7.55-2.043,1.486,1.7-12.1h0l-2.158,1.8,1.831-13.8Z" transform="translate(-1803.949 -1604.344)" fill="#ffe05c"/>
      <path id="Path_709" data-name="Path 709" d="M1895.219,1653.419l-2.723,1.683h0l0,0,.563-2.721,2.518-12.213h.073v-.017l-.043-.007-.013-.028-3.286,1.509,3.062-13.964h0l-.028.009.023-.023-.008-.013h0l-2.859.959,2.151-13.425-.006,0,.019,0,.007.01v0l-.011-.006-.013,0-.01-.006,0,.011-2.456,1.82,2.143-12.573h5.263a2.385,2.385,0,0,1,1.364.906,3.1,3.1,0,0,1,.482,2.349c0,27.312,1.4,56.844,6.387,80.356-.931-1.107-3.772-2.64-11.982-3.8l.024-7.687v-.019h-.011l-2.049,1.507,1.7-12.076h0l-2.158,1.784,1.831-13.8Z" transform="translate(-1844.665 -1604.392)" fill="#3657ff"/>
      <path id="Path_710" data-name="Path 710" d="M1718.542,1680.848l-2.154,1.6,1.865-12.909-2.271,1.91,2.077-15.221-2.884,1.869,3.336-15.956,0,0,0,0,.008-.032-.017-.036,0-.056h-.028v.064l-3.428,1.642,3.2-14.429.109-.469,0,0-.022.009-.015-.019-.039-.011h0l-2.985,1.051,2.362-14.324,0,0,0,0-.009.008,0,0,.008-.006,0,0,0,0,0,.008-2.6,1.965,2.28-13.114H1727.9l-1.415,8.284v0h0l-.008,0-.007.006,1.477-1.122,1.124-.852-2.357,14.348h0l.03-.011-.009.024,3.008-1.019h0l-.034.013-2.972,1.008.015.007,2.961-1.013.039-.039-3.3,14.838h0l0,.024.015.015.017.013h0l.542-.255,2.873-1.323h-.006l-2.88,1.323-.541.248,3.434-1.617-.385,1.841-2.961,14.165,0-.013h0v.019l1.786-1.163,1.085-.694-2.1,15.213,0,0,.043-.034-.006.052h0l2.257-1.916-1.848,12.874.009-.007,0,.011,2.152-1.6-.081,12.166a47.3,47.3,0,0,1-11.378,3.443v0h-.006Z" transform="translate(-1700.779 -1604.36)" fill="#fff"/>
      <path id="Path_711" data-name="Path 711" d="M1777.167,1677.61l1.859-12.885-.021.019,0-.026-2.255,1.927,2.077-15.151h-.008v-.049l-.019,0,0-.019-1.083.7-1.781,1.143,3.092-14.825.246-1.18h.034v-.006l-3.473,1.636.2-.94,3.119-13.932.028,0,0,.009h0l-.024-.024-.006.021-.032.007.011-.053h0l-3.019,1.045,2.34-14.335-.009,0,0-.006,0,0v0l0,0v0l-2.6,1.968,1.439-8.278h10.746l-.013.049-.006,0h0l.023.008.007.039h0l0-.023.075-.077h2.317l-2.171,12.757,0,0v.005l2.456-1.824-2.171,13.423-.013,0,.011.008.026-.009,0,.023h0l2.867-.955-2.3,10.543-.737,3.415.006,0v-.058h-.028l.007.034,0,.007.009-.03,0-.009h0l.745-.308,2.5-1.083,0,.006-2.445,1.081,2.475-1.133-2.473,12.022-.63,2.948h-.058v.036l2.773-1.715-.052.55-1.82,13.772h0l2.164-1.809-1.7,12.091,2.043-1.49-.013,7.549a57.837,57.837,0,0,0-12.675,3.959l.09-12.172,0,0v-.006Z" transform="translate(-1750.162 -1604.36)" fill="#3657ff"/>
      <path id="Path_712" data-name="Path 712" d="M1655.543,1604.291l-2.278,13.117,0,0,0,.006,2.6-1.968-2.362,14.322-.011,0,.009.008.021-.008,0,.019h0l3.026-1.049-3.252,14.808-.039.249h0l.017-.084-.03-.022-.013-.03h0l.122-.045,3.34-1.51-3.323,16.012h0l-.017-.058-.026-.051h0l2.9-1.871-2.06,15.215h0l2.28-1.908-1.859,12.909,2.156-1.6-.081,10.78c-.556.069-1.118.122-1.685.15-11.3.561-15.992-4.984-15.992-4.984s2.409-41.647,3.359-80.153a2.134,2.134,0,0,1,.557-1.595,1.989,1.989,0,0,1,1.8-.666h10.838Z" transform="translate(-1638.99 -1604.272)" fill="#3657ff"/>
    </g>
    <g id="Group_637" data-name="Group 637" transform="translate(603.133 655.148)">
      <path id="Path_713" data-name="Path 713" d="M2199.344,1422.109a3.764,3.764,0,0,0-1.171-1.351,4.654,4.654,0,0,0-3.267-.788h-10.044v-.889H2181.8v5.432h3.063v-1.779h10.146l.108-.017.143-.039a1.658,1.658,0,0,1,1.03.219,1.813,1.813,0,0,1,.523,1.34l3.038-.137A4.976,4.976,0,0,0,2199.344,1422.109Z" transform="translate(-2174.293 -1419.08)" fill="#948ea2"/>
      <g id="Group_635" data-name="Group 635" transform="translate(1.582 5.389)">
        <path id="Path_714" data-name="Path 714" d="M2155.6,1449.23a6.857,6.857,0,0,0-5.378,6.434V1470.6a6.812,6.812,0,0,0,4.938,6.3v-21.563A21.518,21.518,0,0,1,2155.6,1449.23Z" transform="translate(-2150.22 -1448.962)" fill="#9fb1ff"/>
        <path id="Path_715" data-name="Path 715" d="M2178.827,1447.8a8.172,8.172,0,0,0-2.085.268,21.663,21.663,0,0,0-.439,6.106v21.563a8.081,8.081,0,0,0,2.529.4c4.123,0,7.447-3,7.447-6.7V1454.5C2186.28,1450.8,2182.948,1447.8,2178.827,1447.8Z" transform="translate(-2171.367 -1447.8)" fill="#3657ff"/>
      </g>
      <g id="Group_636" data-name="Group 636" transform="translate(0 25.186)">
        <rect id="Rectangle_481" data-name="Rectangle 481" width="12.446" height="10.47" fill="#3657ff"/>
        <rect id="Rectangle_482" data-name="Rectangle 482" width="5.728" height="10.47" transform="translate(12.444)" fill="#052fdd"/>
      </g>
    </g>
  </g>
</svg>
