<svg xmlns="http://www.w3.org/2000/svg" xmlns:xlink="http://www.w3.org/1999/xlink" width="450" height="314" viewBox="0 0 450 314">
  <defs>
    <linearGradient id="linear-gradient" x1="0.5" y1="1" x2="0.5" gradientUnits="objectBoundingBox">
      <stop offset="0" stop-color="gray" stop-opacity="0.251"/>
      <stop offset="0.54" stop-color="gray" stop-opacity="0.122"/>
      <stop offset="1" stop-color="gray" stop-opacity="0.102"/>
    </linearGradient>
  </defs>
  <g id="undraw_booking_33fn" transform="translate(0 0.005)">
    <path id="Path_589" data-name="Path 589" d="M297.543,106.3c-28.839-1-56.305-10.321-82.536-20.514S162.8,64.3,134.645,58.9c-18.1-3.476-38.809-3.967-53.4,5.747C67.208,74,62.674,90.132,60.233,105.107c-1.835,11.267-2.911,23.12,2.114,33.669,3.49,7.32,9.687,13.474,13.959,20.486,14.912,24.406,4.387,54.494-11.789,78.325-7.578,11.175-16.376,21.839-22.222,33.737s-8.543,25.531-3.4,37.688c5.073,12.029,17.149,21.065,30.259,27.423,26.577,12.887,57.921,16.583,88.482,18.674,67.656,4.63,135.675,2.626,203.51.619,25.1-.746,50.319-1.5,75.014-5.384,13.715-2.155,27.874-5.588,37.832-13.845,12.639-10.493,15.773-28.261,7.3-41.42-14.206-22.071-53.486-27.539-63.412-51.238-5.468-13.035.148-27.558,8.092-39.647,17.038-25.942,45.6-48.691,47.1-78.341,1.037-20.355-12.694-40.757-33.924-50.392-22.254-10.1-53.107-8.828-69.526,7.89C352.716,100.565,323.008,107.186,297.543,106.3Z" transform="translate(-36.037 -56.63)" fill="#3657ff" opacity="0.1"/>
    <path id="Path_590" data-name="Path 590" d="M928.794,737.641a12.3,12.3,0,0,0-5.025-.535,1.616,1.616,0,0,0,.3,3.217,14.827,14.827,0,0,0,3.057-.563Z" transform="translate(-568.801 -465.487)" fill="#3657ff"/>
    <path id="Path_591" data-name="Path 591" d="M937,738.61a12.277,12.277,0,0,1,1.229,4.905,1.617,1.617,0,0,1-3.229.152,15.005,15.005,0,0,1,.136-3.105Z" transform="translate(-576.382 -466.429)" fill="#3657ff"/>
    <path id="Path_592" data-name="Path 592" d="M937.9,718.423s-1.01-3.169-7.184-1.94a2.53,2.53,0,0,0,.08,4.985h.12C934.987,722.035,936.4,720.419,937.9,718.423Z" transform="translate(-572.588 -452.963)" fill="#3657ff"/>
    <path id="Path_593" data-name="Path 593" d="M950.35,721.3s3.317.26,3.524,6.545a2.53,2.53,0,0,1-4.869,1.062.345.345,0,0,0-.044-.116C947.5,724.956,948.746,723.208,950.35,721.3Z" transform="translate(-584.461 -456.027)" fill="#3657ff"/>
    <path id="Path_594" data-name="Path 594" d="M951.084,693.24a6.6,6.6,0,0,0-4.454-4.973c-4.179-1.317-6.386,4.933-2.3,6.521a13.04,13.04,0,0,0,5.284.766Z" transform="translate(-580.765 -436.07)" fill="#3657ff"/>
    <path id="Path_595" data-name="Path 595" d="M961.723,667.531a8.673,8.673,0,0,0-6.067-4.789c-4.642-.85-6.046,6.122-1.461,7.236a15.309,15.309,0,0,0,6.25.052Z" transform="translate(-586.308 -420.797)" fill="#3657ff"/>
    <path id="Path_596" data-name="Path 596" d="M969.719,642.392a9.906,9.906,0,0,0-6.386-4.39c-3.991-.75-5.336,5.224-1.417,6.246a14.9,14.9,0,0,0,7.479-.1Z" transform="translate(-591.227 -405.935)" fill="#3657ff"/>
    <path id="Path_597" data-name="Path 597" d="M977.594,617.067a10.3,10.3,0,0,0-5.588-4.442c-3.991-1.225-5.963,4.825-2,6.142a11.362,11.362,0,0,0,7.24-.028Z" transform="translate(-596.199 -390.628)" fill="#3657ff"/>
    <path id="Path_598" data-name="Path 598" d="M980.444,591.732a13.861,13.861,0,0,0-4.849-5.723c-3.624-2.207-7.076,3.193-3.592,5.623a10.112,10.112,0,0,0,8.11,1.848Z" transform="translate(-597.828 -374.42)" fill="#3657ff"/>
    <path id="Path_599" data-name="Path 599" d="M981.535,564.945a13.575,13.575,0,0,0-5.136-5.588c-3.776-2-7.06,3.52-3.5,5.9,2.327,1.552,5.232,2.558,8.317,1.345Z" transform="translate(-598.317 -358.461)" fill="#3657ff"/>
    <path id="Path_600" data-name="Path 600" d="M982.114,540.107a24.48,24.48,0,0,0-4.789-5.448c-2.642-2.159-5.987,1.728-3.484,4.035,2.311,2.119,5.188,3.9,8.162,3.756Z" transform="translate(-599.271 -343.497)" fill="#3657ff"/>
    <path id="Path_601" data-name="Path 601" d="M979.51,514.013a35.873,35.873,0,0,0-5.412-6.992c-2.067-2-5.125,1.046-3.193,3.149a20.766,20.766,0,0,0,8.856,5.963Z" transform="translate(-597.669 -326.878)" fill="#3657ff"/>
    <path id="Path_602" data-name="Path 602" d="M976.214,488.533a31.984,31.984,0,0,0-4.322-5.352,2.255,2.255,0,0,0-3.225,3.149,16.5,16.5,0,0,0,8.09,5.085Z" transform="translate(-596.308 -312.541)" fill="#3657ff"/>
    <path id="Path_603" data-name="Path 603" d="M973.166,463.23a51,51,0,0,0-4.155-4.937,1.867,1.867,0,0,0-2.762,2.51c1.848,2.131,4.219,4.019,6.944,4.322Z" transform="translate(-594.953 -297.635)" fill="#3657ff"/>
    <path id="Path_604" data-name="Path 604" d="M969.416,436.478a52.009,52.009,0,0,0-3.991-6.565,1.634,1.634,0,0,0-2.674,1.876,14.548,14.548,0,0,0,6.49,5.679Z" transform="translate(-592.958 -280.525)" fill="#3657ff"/>
    <path id="Path_605" data-name="Path 605" d="M967.937,408.739s-.986-1.672-2.395-3.616a1.714,1.714,0,0,0-2.842,1.916c1.357,2.079,3.057,3.851,5.037,4.2Z" transform="translate(-592.928 -265.602)" fill="#3657ff"/>
    <path id="Path_606" data-name="Path 606" d="M968.736,383l-1.249-6.246a1.314,1.314,0,0,0-2.594.4c.447,3.337,1.6,6.693,4.1,8.9Z" transform="translate(-594.418 -248.358)" fill="#3657ff"/>
    <path id="Path_607" data-name="Path 607" d="M972.855,348.392h0a1.225,1.225,0,0,0-2.339.67,31.614,31.614,0,0,0,1.261,5.109Z" transform="translate(-597.795 -231.5)" fill="#3657ff"/>
    <path id="Path_608" data-name="Path 608" d="M963.285,700.189a6.6,6.6,0,0,1,6.529,1.405c3.193,2.981-1.125,7.982-4.53,5.232A13.116,13.116,0,0,1,962,702.616Z" transform="translate(-592.687 -443.142)" fill="#3657ff"/>
    <path id="Path_609" data-name="Path 609" d="M976.1,673.656a8.665,8.665,0,0,1,7.447,2.027c3.444,3.225-1.317,8.505-4.945,5.484a15.28,15.28,0,0,1-3.764-4.993Z" transform="translate(-600.402 -427.301)" fill="#3657ff"/>
    <path id="Path_610" data-name="Path 610" d="M985.185,648.072a9.91,9.91,0,0,1,7.583-1.684c3.991.8,3,6.837-1.022,6.322a14.931,14.931,0,0,1-6.9-2.894Z" transform="translate(-606.417 -410.912)" fill="#3657ff"/>
    <path id="Path_611" data-name="Path 611" d="M992.283,621.038A10.291,10.291,0,0,1,999.116,619c4.175.363,3.728,6.705-.451,6.442a11.338,11.338,0,0,1-6.7-2.734Z" transform="translate(-610.689 -394.543)" fill="#3657ff"/>
    <path id="Path_612" data-name="Path 612" d="M995.2,594.144a13.9,13.9,0,0,1,5.751-4.813c3.923-1.553,6.442,4.326,2.63,6.134a10.116,10.116,0,0,1-8.345.459Z" transform="translate(-612.636 -376.573)" fill="#3657ff"/>
    <path id="Path_613" data-name="Path 613" d="M995.55,565.921a13.524,13.524,0,0,1,5.819-4.853c3.991-1.5,6.542,4.41,2.706,6.306-2.51,1.237-5.524,1.852-8.421.247Z" transform="translate(-612.847 -359.601)" fill="#3657ff"/>
    <path id="Path_614" data-name="Path 614" d="M993.67,537.9a24.475,24.475,0,0,1,3.512-6.346c2.115-2.678,6.23.4,4.266,3.193-1.8,2.566-4.215,4.917-7.184,5.416Z" transform="translate(-611.717 -341.39)" fill="#3657ff"/>
    <path id="Path_615" data-name="Path 615" d="M992.9,511.378a35.734,35.734,0,0,1,3.241-8.246,2.237,2.237,0,0,1,3.927,2.135,20.688,20.688,0,0,1-6.841,8.2Z" transform="translate(-611.254 -324.258)" fill="#3657ff"/>
    <path id="Path_616" data-name="Path 616" d="M987.1,485.319a32.007,32.007,0,0,1,3.3-6.294,2.249,2.249,0,0,1,3.784,2.427,16.575,16.575,0,0,1-7.036,6.785Z" transform="translate(-607.769 -309.845)" fill="#3657ff"/>
    <path id="Path_617" data-name="Path 617" d="M982.48,460.182a51.3,51.3,0,0,1,1.728-6.214,1.867,1.867,0,0,1,3.556,1.134c-.8,2.706-2.167,5.408-4.518,6.817Z" transform="translate(-604.993 -294.642)" fill="#3657ff"/>
    <path id="Path_618" data-name="Path 618" d="M979.27,434.42a51.811,51.811,0,0,1,2.395-7.308,1.635,1.635,0,0,1,3.033,1.217,14.542,14.542,0,0,1-5.021,7.008Z" transform="translate(-603.064 -278.655)" fill="#3657ff"/>
    <path id="Path_619" data-name="Path 619" d="M974.46,409.29s.375-1.9,1.058-4.207a1.714,1.714,0,0,1,3.317.862c-.583,2.395-1.6,4.65-3.353,5.639Z" transform="translate(-600.174 -265.274)" fill="#3657ff"/>
    <path id="Path_620" data-name="Path 620" d="M974.516,382.607l2.171-5.987a1.314,1.314,0,0,1,2.5.8c-.938,3.233-2.566,6.386-5.38,8.182Z" transform="translate(-599.783 -248.385)" fill="#3657ff"/>
    <path id="Path_621" data-name="Path 621" d="M976.934,349.644s.339-.271.858-.7a1.076,1.076,0,0,1,1.441,1.6,20.354,20.354,0,0,1-5.9,3.744Z" transform="translate(-599.495 -232.125)" fill="#3657ff"/>
    <path id="Path_622" data-name="Path 622" d="M981.333,329.026a78.637,78.637,0,0,1,4.33-7.711.8.8,0,0,0-1.293-.914,23.151,23.151,0,0,0-3.48,8.066Z" transform="translate(-604.038 -214.976)" fill="#3657ff"/>
    <path id="Path_623" data-name="Path 623" d="M974.2,372.5l.463-.048c-2-18.6-1.154-30.073,2.335-32.3l-.251-.4C973.047,342.127,972.169,353.445,974.2,372.5Z" transform="translate(-599.376 -226.763)" fill="#444053"/>
    <path id="Path_624" data-name="Path 624" d="M982.454,463.727l.69-.1c-.259-1.72-.559-3.468-.894-5.188-2.906-15.1-5.165-29.055-6.294-39.655l-.507-.4c1.134,10.62,3.193,25.06,6.118,40.178C981.9,460.267,982.195,462.011,982.454,463.727Z" transform="translate(-600.769 -274.005)" fill="#444053"/>
    <path id="Path_625" data-name="Path 625" d="M911.153,623.787c.1-.084,10.736-8.218,20.071-23.819a100.58,100.58,0,0,0,11.814-29.45c2.949-12.975,3.033-28.085.906-42.238l-.623.5c4.789,31.761-4.346,56.422-12.871,70.678-9.243,15.458-19.752,23.507-19.86,23.587Z" transform="translate(-561.795 -340.043)" fill="#444053"/>
    <ellipse id="Ellipse_52" data-name="Ellipse 52" cx="26.561" cy="5.109" rx="26.561" ry="5.109" transform="translate(50.874 273.454)" fill="#3657ff"/>
    <ellipse id="Ellipse_53" data-name="Ellipse 53" cx="3.093" cy="4.047" rx="3.093" ry="4.047" transform="translate(73.895 272.345)" fill="#3f3d56"/>
    <ellipse id="Ellipse_54" data-name="Ellipse 54" cx="3.093" cy="4.047" rx="3.093" ry="4.047" transform="translate(73.895 267.396)" fill="#3f3d56"/>
    <ellipse id="Ellipse_55" data-name="Ellipse 55" cx="3.093" cy="4.047" rx="3.093" ry="4.047" transform="translate(73.895 262.451)" fill="#3f3d56"/>
    <ellipse id="Ellipse_56" data-name="Ellipse 56" cx="3.093" cy="4.047" rx="3.093" ry="4.047" transform="translate(73.895 257.502)" fill="#3f3d56"/>
    <ellipse id="Ellipse_57" data-name="Ellipse 57" cx="3.093" cy="4.047" rx="3.093" ry="4.047" transform="translate(73.895 252.553)" fill="#3f3d56"/>
    <ellipse id="Ellipse_58" data-name="Ellipse 58" cx="3.093" cy="4.047" rx="3.093" ry="4.047" transform="translate(73.895 247.608)" fill="#3f3d56"/>
    <ellipse id="Ellipse_59" data-name="Ellipse 59" cx="3.093" cy="4.047" rx="3.093" ry="4.047" transform="translate(73.895 242.659)" fill="#3f3d56"/>
    <path id="Path_626" data-name="Path 626" d="M217.874,553.827a14.569,14.569,0,0,0,1.153-1.7L210.9,550.8l8.78.064a14.823,14.823,0,0,0,.283-11.734l-11.79,6.114,10.872-7.982a14.815,14.815,0,1,0-24.465,16.575,14.963,14.963,0,0,0-1.688,2.7l10.548,5.48L192.2,558.241A14.819,14.819,0,0,0,194.6,572.15a14.815,14.815,0,1,0,23.284,0,14.8,14.8,0,0,0,0-18.315Z" transform="translate(-129.312 -340.981)" fill="#3657ff"/>
    <path id="Path_627" data-name="Path 627" d="M191.454,612.561a14.767,14.767,0,0,0,3.169,9.156,14.815,14.815,0,1,0,23.284,0C219.894,619.2,191.454,610.9,191.454,612.561Z" transform="translate(-129.344 -390.555)" opacity="0.1"/>
    <path id="Path_628" data-name="Path 628" d="M267.81,317.87V494.16a6.151,6.151,0,0,0,6.147,6.154H526.63a6.15,6.15,0,0,0,6.147-6.154V317.87Z" transform="translate(-175.229 -213.61)" fill="#fff"/>
    <rect id="Rectangle_470" data-name="Rectangle 470" width="63.418" height="37.225" rx="8.65" transform="translate(113.479 120.041)" opacity="0.1"/>
    <rect id="Rectangle_471" data-name="Rectangle 471" width="63.418" height="37.225" rx="8.65" transform="translate(193.357 120.041)" opacity="0.1"/>
    <rect id="Rectangle_472" data-name="Rectangle 472" width="61.634" height="36.175" rx="8.65" transform="translate(114.369 120.564)" fill="#3657ff"/>
    <rect id="Rectangle_473" data-name="Rectangle 473" width="61.634" height="36.175" rx="8.65" transform="translate(335.76 156.739) rotate(180)" fill="#444053" opacity="0.1"/>
    <rect id="Rectangle_474" data-name="Rectangle 474" width="61.634" height="36.175" rx="8.65" transform="translate(255.882 156.739) rotate(180)" fill="#3657ff"/>
    <rect id="Rectangle_475" data-name="Rectangle 475" width="61.634" height="36.175" rx="8.65" transform="translate(114.369 172.819)" fill="#444053" opacity="0.1"/>
    <rect id="Rectangle_476" data-name="Rectangle 476" width="61.634" height="36.175" rx="8.65" transform="translate(335.76 208.994) rotate(180)" fill="#444053" opacity="0.1"/>
    <rect id="Rectangle_477" data-name="Rectangle 477" width="61.634" height="36.175" rx="8.65" transform="translate(255.882 208.994) rotate(180)" fill="#444053" opacity="0.1"/>
    <rect id="Rectangle_478" data-name="Rectangle 478" width="61.634" height="36.175" rx="8.65" transform="translate(114.369 225.074)" fill="#444053" opacity="0.1"/>
    <rect id="Rectangle_479" data-name="Rectangle 479" width="61.634" height="36.175" rx="8.65" transform="translate(335.76 261.254) rotate(180)" fill="#444053" opacity="0.1"/>
    <rect id="Rectangle_480" data-name="Rectangle 480" width="61.634" height="36.175" rx="8.65" transform="translate(255.882 261.254) rotate(180)" fill="#444053" opacity="0.1"/>
    <path id="Path_629" data-name="Path 629" d="M267.81,230.588v32.028H532.776V230.588a6.15,6.15,0,0,0-6.147-6.158H273.957A6.15,6.15,0,0,0,267.81,230.588Zm65.573,9.475a4.913,4.913,0,1,1,4.907-4.913A4.91,4.91,0,0,1,333.383,240.063Zm133.821,0a4.912,4.912,0,1,0-.008,0Z" transform="translate(-175.229 -157.463)" fill="#3657ff"/>
    <path id="Path_630" data-name="Path 630" d="M423.561,236.74a5.807,5.807,0,1,0,5.8,5.806A5.807,5.807,0,0,0,423.561,236.74Zm0,10.72a4.913,4.913,0,1,1,4.913-4.913A4.913,4.913,0,0,1,423.561,247.46Z" transform="translate(-265.439 -164.86)" opacity="0.1"/>
    <path id="Path_631" data-name="Path 631" d="M759.257,236.74a5.807,5.807,0,1,0,5.807,5.807A5.807,5.807,0,0,0,759.257,236.74Zm0,10.72a4.913,4.913,0,1,1,4.913-4.913A4.913,4.913,0,0,1,759.257,247.46Z" transform="translate(-467.258 -164.86)" opacity="0.1"/>
    <circle id="Ellipse_60" data-name="Ellipse 60" cx="6.094" cy="6.094" r="6.094" transform="translate(405.9 161.504)" fill="#3657ff" opacity="0.1"/>
    <circle id="Ellipse_61" data-name="Ellipse 61" cx="10.217" cy="10.217" r="10.217" transform="translate(423.58 130.202)" fill="#3657ff" opacity="0.1"/>
    <circle id="Ellipse_62" data-name="Ellipse 62" cx="10.217" cy="10.217" r="10.217" transform="translate(410.054 179.78)" fill="#3657ff" opacity="0.1"/>
    <circle id="Ellipse_63" data-name="Ellipse 63" cx="14.468" cy="14.468" r="14.468" transform="translate(0 123.445)" fill="#3657ff" opacity="0.1"/>
    <path id="Path_632" data-name="Path 632" d="M853.874,557.785a12.776,12.776,0,0,0-2.961-1.664.61.61,0,0,0-.259-.068,45.557,45.557,0,0,1-6.106-5.26c.4-.319.766-.631,1.157-.938-2.395-1.141-3.724-3.756-5.017-6.114a60.32,60.32,0,0,0-13.306-16.579c-.132-.507-.9-.4-1.313-.726a1.054,1.054,0,0,1-.291-1.018c.064-.367.232-.707.323-1.066a7.2,7.2,0,0,0-.068-2.594,3.177,3.177,0,0,1,.519-2.478c.184-.212.419-.375.6-.591a2.25,2.25,0,0,0,.4-1.792,6.358,6.358,0,0,0-.4-1.816q2.933-7.982,5.863-15.992c1.369-3.728,2.75-7.535,2.89-11.51a13.757,13.757,0,0,0-2.642-8.948c.351-.084.7-.172,1.05-.271-2.283-3.025-2.53-7.032-2.59-10.844q-.048-2.85-.2-5.7c.663.291,1.333.551,2.02.774l.639.2a22.016,22.016,0,0,0,3.165.679c.471.068.95.12,1.425.152h0q-1.03-2.578-2.055-5.164a7.052,7.052,0,0,1-.639-2.423h0v-.16a1.4,1.4,0,0,1,.02-.287,3.144,3.144,0,0,1,.156-.67,3.008,3.008,0,0,1,.124-.315,5.591,5.591,0,0,1,.511-.9c.144-.22.3-.431.463-.647a8.82,8.82,0,0,0,1.433-2.319,4.389,4.389,0,0,0,.22-1.321,6.506,6.506,0,0,0-.12-1.357c-.056-.3-.128-.595-.208-.882h0c-.052-.18-.108-.359-.164-.535l-.048-.144c-.044-.136-.088-.267-.135-.4l-.048-.136c-.052-.144-.1-.283-.16-.427l-.032-.084c-.762-1.96-1.776-3.828-2.395-5.843a15.42,15.42,0,0,1-.4-1.632c-.028-.14-.048-.283-.072-.423s-.036-.24-.052-.359-.036-.279-.052-.419l-.036-.4c0-.128-.02-.255-.028-.4,0-.243-.024-.487-.028-.73v-1.109c0-.184.028-.367.044-.547a.81.81,0,0,1,.028-.259q.04-.4.108-.8h0c.04-.235.084-.475.132-.714a9.533,9.533,0,0,0,.223-2,1.977,1.977,0,0,0-.028-.4c-.028-.14-.032-.216-.052-.319a.783.783,0,0,1,0-.1,1.064,1.064,0,0,0-.052-.216.4.4,0,0,0-.032-.1c-.012-.032-.044-.14-.068-.208s-.02-.06-.032-.092-.056-.144-.088-.212l-.028-.072c-.04-.088-.084-.172-.128-.255h0a5.871,5.871,0,0,0-.535-.83h0c-1.313-1.724-3.5-3.037-4.7-4.937a11,11,0,0,1-1.345-3.991c-.06-.319-.112-.639-.168-.954s-.1-.627-.16-.938c-.036-.192-.072-.4-.112-.575l-.024-.124c-.032-.152-.064-.307-.1-.459l-.024-.108c-.036-.16-.072-.319-.112-.479l-.024-.084c-.04-.168-.084-.335-.128-.5a.35.35,0,0,1,0-.06c-.048-.176-.1-.351-.152-.527v-.036c-.056-.184-.112-.363-.172-.543h0c-.06-.184-.124-.371-.192-.555h0c-.072-.188-.14-.375-.216-.559h0A14.765,14.765,0,0,0,824.878,408a9.533,9.533,0,0,0-7.583-3.919,15.021,15.021,0,0,0-4.562,1.157l-3.844,1.417,1.074-.495a9.184,9.184,0,0,0-3.269.7,3.175,3.175,0,0,0-1.9,2.6c-.02.659.239,1.313.156,1.968-.14,1.082-1.133,1.816-1.648,2.774a3.569,3.569,0,0,0-.4,1.876v.255a.372.372,0,0,0,0,.064v.128c-1.6-.695-3.193-1.417-4.789-2.191-2.638-1.3-5.308-2.822-6.953-5.28-.527-.8-.934-1.66-1.457-2.451a19.393,19.393,0,0,0-2-2.395l-4.9-5.3c-.375.706.108,1.541.487,2.243a9.627,9.627,0,0,1,.906,2.339,1.11,1.11,0,0,1-.024.818,1.6,1.6,0,0,1-.671.475,2.4,2.4,0,0,0-1.01,2.742,3.034,3.034,0,0,0,2.263,1.972,4.109,4.109,0,0,1,1.01.247c.591.291.87.97,1.293,1.477a5.8,5.8,0,0,0,3.165,1.577c1.812,2.091,3.7,4.095,5.508,6.186,2.742,3.165,5.548,6.386,9.124,8.525.371.224.75.431,1.133.623a.629.629,0,0,1-.02.192,2.162,2.162,0,0,0,.172,1.4,2.194,2.194,0,0,0,1.564.762l2.706.483a9.24,9.24,0,0,1-.132,1.046c-.036.211-.08.419-.12.631h0l-.048.271v.04a.8.8,0,0,1-.028.22c-.028.076,0,.052,0,.076v.531a5.085,5.085,0,0,0,1.5,2.75l.379.459a6.384,6.384,0,0,0-1.233,2.586,8.773,8.773,0,0,0-.176,1.8,3.123,3.123,0,0,0-.8,1.245,5.688,5.688,0,0,0-.208,2.015v.8a6.7,6.7,0,0,0,.463,2.794c.036.072.076.136.112.2a38.808,38.808,0,0,1-2.311,3.193,6.928,6.928,0,0,0,.635,7.934c.547.631,1.249,1.237,1.313,2.075a7.79,7.79,0,0,1-.112,1.133,8.48,8.48,0,0,0,.575,2.63,2.717,2.717,0,0,1-.219,2.179,3.193,3.193,0,0,0-.547,2.091c.2,1.13-.263,2.259-.343,3.4-.036.491,0,.99-.044,1.481a8.324,8.324,0,0,1-.291,1.389.574.574,0,0,1-.04.152c-.986.435-1.964.886-2.906,1.409a2.55,2.55,0,0,0-1.2,1.1,2.827,2.827,0,0,0-.064,1.517l.85,5.915-.148-.064q.1,1.453.208,2.917a3.935,3.935,0,0,0,.559,2.111,5.5,5.5,0,0,1,.6.77c.335.679-.064,1.469-.359,2.163s-.4,1.68.251,2.055a5.31,5.31,0,0,0,1.09.583c-.8,3.329-.064,6.817.678,10.157q.85,3.831,1.7,7.655a18.579,18.579,0,0,1,.375,3.289v.479a18.427,18.427,0,0,0,.8,4.478c.886,2.985.036,6.569.315,9.822a29.141,29.141,0,0,0,.934,4.626,142.514,142.514,0,0,1,4.31,23A5.781,5.781,0,0,0,819.518,562c-.08.966.028,2.071,0,2.634a4.553,4.553,0,0,1-.216,1.373,3.3,3.3,0,0,1-2.087,1.776c-.279.1-.563.172-.85.239l.319-.271a7.129,7.129,0,0,0-5.312.934,2.1,2.1,0,0,0-1.05,1.237,2,2,0,0,0,.367,1.433,6.534,6.534,0,0,0,3.692,2.622,19.363,19.363,0,0,0,4.55.635l2.818.164a.774.774,0,0,0,.184,1,1.971,1.971,0,0,0,1.034.375,13.165,13.165,0,0,0,3.476.052,1.362,1.362,0,0,0,.8-.287.515.515,0,0,0,0-.762.842.842,0,0,0,.766-.559,2.268,2.268,0,0,0,.1-1.01,10.837,10.837,0,0,0-.874-4.39,1.113,1.113,0,0,0-1.233-.543,47.884,47.884,0,0,1-.8-7.08,17.314,17.314,0,0,0,2.051-.926c-1.96-3.165-2-7.184-1.4-10.864a32.9,32.9,0,0,0,.523-3.516,11.66,11.66,0,0,0-1.529-6.969,24.938,24.938,0,0,1,6.226,5.635c2.758,3.592,4.438,7.942,7.818,10.936q.667-.65,1.349-1.293,1.07,1.812,2.024,3.7a14.069,14.069,0,0,1,1.173,2.917,13.5,13.5,0,0,1,.108,4.705q-.14,1.245-.339,2.479a6.72,6.72,0,0,1-.244,1.038.717.717,0,0,0-.076-.311c-.211-.371-.8-.2-1.117.052a4.933,4.933,0,0,0-1.377,1.6,1.72,1.72,0,0,0-.248,1.018,1.5,1.5,0,0,0,.8,1c1.481.866,3.341.24,4.929-.4a5.774,5.774,0,0,0,1.245-.627c.8-.575,1.233-1.521,2.028-2.079a11.743,11.743,0,0,0,1.225-.774c.738-.674.8-1.812,1.337-2.666.894-1.473,2.894-1.852,3.676-3.412C856.3,561.086,855.239,558.911,853.874,557.785Z" transform="translate(-484.696 -262.3)" fill="url(#linear-gradient)"/>
    <path id="Path_633" data-name="Path 633" d="M865.49,807.93a4.449,4.449,0,0,1-.22,1.357,3.281,3.281,0,0,1-2.083,1.752c-.886.307-1.828.4-2.73.667a2.393,2.393,0,0,0-1.066.551c-.8.8-.319,2.235.615,2.83a5.3,5.3,0,0,0,3.233.5,42.6,42.6,0,0,0,6.992-.994c.83-.2,1.8-.579,1.932-1.421a2.323,2.323,0,0,0-.064-.8,47.179,47.179,0,0,1-.9-8.673,18.024,18.024,0,0,0-5.061-.036C865.175,804.3,865.542,806.948,865.49,807.93Z" transform="translate(-530.707 -505.421)" fill="#a1616a"/>
    <path id="Path_634" data-name="Path 634" d="M925.666,782.995q1.149,1.9,2.159,3.883A13.759,13.759,0,0,1,929,789.756a13.226,13.226,0,0,1,.108,4.641q-.14,1.226-.343,2.447a3.09,3.09,0,0,1-1.026,2.163,2.363,2.363,0,0,0,2.036.18,5.861,5.861,0,0,0,1.792-1.1c3.42-2.822,5.987-6.92,6.114-11.355a1.8,1.8,0,0,0-.188-1.006,1.993,1.993,0,0,0-.6-.535,46,46,0,0,1-7.076-5.943.866.866,0,0,0-.519-.331.9.9,0,0,0-.463.132c-1.313.659-3.508,1.6-4.055,3.093A2.091,2.091,0,0,1,925.666,782.995Z" transform="translate(-570.26 -490.651)" fill="#a1616a"/>
    <path id="Path_635" data-name="Path 635" d="M866.172,823.631a35.523,35.523,0,0,1-9.1,2.039,1.243,1.243,0,0,1-1.089-.2.83.83,0,0,1-.072-.934,2.432,2.432,0,0,1,.667-.734l2.063-1.728a7.184,7.184,0,0,0-5.244.9,2.087,2.087,0,0,0-1.046,1.2,1.948,1.948,0,0,0,.367,1.417,6.521,6.521,0,0,0,3.688,2.586,19.709,19.709,0,0,0,4.546.627l2.794.16a.754.754,0,0,0,.188.99,2,2,0,0,0,1.038.379,13.3,13.3,0,0,0,3.472.048,1.329,1.329,0,0,0,.8-.283.5.5,0,0,0,0-.75.842.842,0,0,0,.766-.555,2.309,2.309,0,0,0,.1-.994,10.456,10.456,0,0,0-.874-4.322C868.558,822.346,867.138,823.232,866.172,823.631Z" transform="translate(-526.711 -516.488)" fill="#3f3d56"/>
    <path id="Path_636" data-name="Path 636" d="M940.732,795.041a12.842,12.842,0,0,0-2.961-1.64.351.351,0,0,0-.535.136,30.391,30.391,0,0,0-4.362,8.409,14.612,14.612,0,0,1-2.179,4.933c-.152.184-.4.371-.607.264-.3-.152-.116-.635-.283-.926-.207-.367-.774-.2-1.113.052a4.788,4.788,0,0,0-1.373,1.6,1.6,1.6,0,0,0-.248,1,1.477,1.477,0,0,0,.778.982c1.481.858,3.341.24,4.925-.4a5.634,5.634,0,0,0,1.241-.619c.8-.563,1.233-1.5,2.027-2.047a11.683,11.683,0,0,0,1.225-.766c.734-.667.8-1.788,1.333-2.634.894-1.449,2.893-1.824,3.676-3.365C943.151,798.3,942.1,796.151,940.732,795.041Z" transform="translate(-571.635 -499.308)" fill="#3f3d56"/>
    <path id="Path_637" data-name="Path 637" d="M865.937,594.8c3.137,2.355,4.454,6.542,4.314,10.461s-1.517,7.679-2.881,11.355q-2.934,7.89-5.859,15.777a6.5,6.5,0,0,1,.4,1.8,2.207,2.207,0,0,1-.4,1.764c-.184.211-.4.375-.6.583a3.125,3.125,0,0,0-.519,2.447,7.085,7.085,0,0,1,.068,2.558c-.092.355-.259.69-.323,1.05a1.042,1.042,0,0,0,.291,1.006c.4.319,1.2.216,1.313.718a59.653,59.653,0,0,1,13.29,16.364c1.293,2.327,2.6,4.905,5.013,6.031a87.54,87.54,0,0,0-6.757,5.943c-3.373-2.953-5.053-7.252-7.807-10.776a24.743,24.743,0,0,0-6.218-5.56,11.374,11.374,0,0,1,1.529,6.873,31.9,31.9,0,0,1-.523,3.468c-.619,3.632-.563,7.583,1.4,10.72a11.731,11.731,0,0,1-6.829,1.568,5.811,5.811,0,0,1-3.72-2.123,140.344,140.344,0,0,0-4.306-22.7,27.9,27.9,0,0,1-.93-4.594c-.279-3.193.571-6.745-.319-9.691a18.056,18.056,0,0,1-.8-4.414v-.475a18.091,18.091,0,0,0-.375-3.241l-1.7-7.551c-.742-3.3-1.485-6.741-.682-10.026a5.335,5.335,0,0,1-1.086-.571c-.651-.371-.547-1.341-.251-2.027s.69-1.465.359-2.135a5.215,5.215,0,0,0-.6-.762,3.834,3.834,0,0,1-.559-2.079l-.208-2.882a5.639,5.639,0,0,1,2.842,2.487c-1.573-2.435-.8-5.907.363-8.565a3.9,3.9,0,0,1,3.664-2.9C852.926,593.6,860.741,590.891,865.937,594.8Z" transform="translate(-519.103 -378.787)" fill="#3f3d56"/>
    <path id="Path_638" data-name="Path 638" d="M891.9,638.93s-3.145,2.1-3.145,3.672-.8,15.725-.8,15.725V668.3s.523,5.244,0,6.553,0,7.34,0,8.126.8-8.126.8-8.126v-9.451l.8-21.5Z" transform="translate(-547.98 -406.532)" opacity="0.1"/>
    <path id="Path_639" data-name="Path 639" d="M811.095,425.616l-1.832-.714c-3.744-1.5-7.491-3.005-11.115-4.765-2.634-1.281-5.3-2.794-6.944-5.208-.527-.8-.934-1.636-1.457-2.423a19.327,19.327,0,0,0-2-2.367l-4.893-5.228c-.375.7.1,1.521.487,2.211a9.574,9.574,0,0,1,.906,2.311,1.069,1.069,0,0,1-.028.8,1.552,1.552,0,0,1-.667.471,2.343,2.343,0,0,0-1.01,2.7,3.013,3.013,0,0,0,2.259,1.948,4.287,4.287,0,0,1,1.01.243c.591.291.87.958,1.293,1.457a5.808,5.808,0,0,0,3.161,1.557c1.812,2.063,3.692,4.039,5.5,6.1,2.738,3.121,5.54,6.3,9.116,8.413A13.35,13.35,0,0,0,809,434.775,66.689,66.689,0,0,1,811.095,425.616Z" transform="translate(-484.694 -265.911)" fill="#a1616a"/>
    <path id="Path_640" data-name="Path 640" d="M811.095,425.616l-1.832-.714c-3.744-1.5-7.491-3.005-11.115-4.765-2.634-1.281-5.3-2.794-6.944-5.208-.527-.8-.934-1.636-1.457-2.423a19.327,19.327,0,0,0-2-2.367l-4.893-5.228c-.375.7.1,1.521.487,2.211a9.574,9.574,0,0,1,.906,2.311,1.069,1.069,0,0,1-.028.8,1.552,1.552,0,0,1-.667.471,2.343,2.343,0,0,0-1.01,2.7,3.013,3.013,0,0,0,2.259,1.948,4.287,4.287,0,0,1,1.01.243c.591.291.87.958,1.293,1.457a5.808,5.808,0,0,0,3.161,1.557c1.812,2.063,3.692,4.039,5.5,6.1,2.738,3.121,5.54,6.3,9.116,8.413A13.35,13.35,0,0,0,809,434.775,66.689,66.689,0,0,1,811.095,425.616Z" transform="translate(-484.694 -265.911)" opacity="0.15"/>
    <path id="Path_641" data-name="Path 641" d="M843.155,466.418a2.2,2.2,0,0,1-1.565-.75,2.1,2.1,0,0,1-.172-1.377,38.615,38.615,0,0,1,2-8.82c.89,1.648,2.642,2.61,4.3,3.476a31.909,31.909,0,0,0,4.622,2.107c-.4-.128-1.377,6.011-1.928,6.386-.694.487-2.371-.172-3.141-.3Z" transform="translate(-520.115 -296.292)" fill="#3657ff"/>
    <circle id="Ellipse_64" data-name="Ellipse 64" cx="8.389" cy="8.389" r="8.389" transform="translate(318.9 151.535)" fill="#a1616a"/>
    <path id="Path_642" data-name="Path 642" d="M852.22,466s5.5,4.717,3.145,7.862-3.672,5.244-.527,5.508,13.63-5.244,13.63-5.244-9.7-7.862-8.126-12.58S852.22,466,852.22,466Z" transform="translate(-526.64 -299.135)" fill="#fbbebe"/>
    <path id="Path_643" data-name="Path 643" d="M852.339,484.356a6.51,6.51,0,0,0-4.817,4.845c-.619,2.826.694,5.987-.543,8.589a34.1,34.1,0,0,1-2.395,3.325,6.785,6.785,0,0,0,.631,7.827c.547.623,1.249,1.225,1.313,2.047a7.526,7.526,0,0,1-.112,1.117,8.289,8.289,0,0,0,.575,2.6,2.643,2.643,0,0,1-.22,2.147,3.109,3.109,0,0,0-.543,2.063c.2,1.118-.267,2.231-.347,3.36-.036.487,0,.974-.044,1.461a8.518,8.518,0,0,1-.287,1.369l-.7,2.59a28.79,28.79,0,0,0,11.973,2.139,58.681,58.681,0,0,0,10.932-1.6c1.1-.231,2.2-.463,3.277-.762-2.283-2.985-2.526-6.94-2.59-10.7a159.644,159.644,0,0,0-1.4-18.718,24.071,24.071,0,0,0,2.052-6.733,11.4,11.4,0,0,0,.255-2.846,15.14,15.14,0,0,0-1.928-5.7c-.822-1.652-1.712-3.393-3.544-4.107a2.818,2.818,0,0,0-2.726.3c-1.385,1.046-.974,2.85-1.329,4.39a5.893,5.893,0,0,1-4.266,3.991,13.868,13.868,0,0,1-4.486.419.8.8,0,0,1-.567-1.309C851.141,485.757,851.788,485.035,852.339,484.356Z" transform="translate(-521.482 -310.104)" fill="#3657ff"/>
    <path id="Path_644" data-name="Path 644" d="M855.3,574.49a54.622,54.622,0,0,1-9.83,6.9c-2.1,1.054-4.338,1.832-6.386,2.965a2.55,2.55,0,0,0-1.2,1.086,2.683,2.683,0,0,0-.064,1.5l.91,6.274c.251,1.7,1.884,2.794,3.193,3.879a2.3,2.3,0,0,1,.084-1.521,5.07,5.07,0,0,1,.307-.459,4.306,4.306,0,0,0,.443-2.949,16.388,16.388,0,0,1-.347-3.025.99.99,0,0,1,.423-.878c4.458-2.143,9.259-3.788,13.765-5.823a14.583,14.583,0,0,0,3.341-1.9,5.14,5.14,0,0,0,1.94-3.221.632.632,0,0,0-.08-.491.667.667,0,0,0-.339-.2C859.444,575.891,857.312,575.216,855.3,574.49Z" transform="translate(-517.943 -367.811)" fill="#a1616a"/>
    <path id="Path_645" data-name="Path 645" d="M854.237,508.5c-1.541.259-3.161,1.058-3.684,2.534a5.632,5.632,0,0,0-.208,2,6.488,6.488,0,0,0,.467,2.766,7.8,7.8,0,0,0,.934,1.357c3.688,4.726,5.54,10.66,9.132,15.462.319.423.9.974.722,1.473a3.532,3.532,0,0,0-.172.4.8.8,0,0,0,.264.7,1.707,1.707,0,0,1,.435.635c.068.251-.1.579-.359.559.431,1.333,1.752,2.111,3.005,2.742a12.513,12.513,0,0,0,6.709,1.648,15.311,15.311,0,0,0,.8-5.492,14.264,14.264,0,0,0-1.337-3.9l-1.561-3.408a50.75,50.75,0,0,0-4.522-8.445,12.766,12.766,0,0,1-1.672-2.694c-.475-1.233-1.78-2.1-2.57-3.157a19.56,19.56,0,0,0-3.967-4.346A3.585,3.585,0,0,0,854.237,508.5Z" transform="translate(-525.507 -328.144)" opacity="0.1"/>
    <path id="Path_646" data-name="Path 646" d="M854.238,506.528c-1.541.259-3.161,1.058-3.684,2.53a5.663,5.663,0,0,0-.208,2,6.489,6.489,0,0,0,.467,2.766,7.8,7.8,0,0,0,.934,1.357c3.688,4.725,5.54,10.66,9.131,15.462.319.423.9.974.722,1.473a3.61,3.61,0,0,0-.172.4.8.8,0,0,0,.264.7,1.705,1.705,0,0,1,.435.635c.068.251-.1.579-.359.559.431,1.333,1.752,2.111,3.005,2.742a12.514,12.514,0,0,0,6.709,1.648,15.308,15.308,0,0,0,.8-5.492,14.257,14.257,0,0,0-1.337-3.9L869.384,526a50.748,50.748,0,0,0-4.522-8.445,12.706,12.706,0,0,1-1.672-2.7c-.475-1.229-1.78-2.1-2.57-3.153a19.56,19.56,0,0,0-3.967-4.346A3.6,3.6,0,0,0,854.238,506.528Z" transform="translate(-525.507 -326.96)" fill="#3657ff"/>
    <path id="Path_647" data-name="Path 647" d="M840.686,419.688a9.239,9.239,0,0,0-3.265.686,3.141,3.141,0,0,0-1.9,2.562,15.231,15.231,0,0,1,.156,1.94c-.14,1.07-1.134,1.792-1.644,2.738-.894,1.644-.2,3.736.958,5.188s2.726,2.57,3.915,4.015a10.377,10.377,0,0,1,2.163,8.349,6.622,6.622,0,0,0-.212,1.744,5.012,5.012,0,0,0,1.5,2.71,125.184,125.184,0,0,1,9.467,12.6,34.032,34.032,0,0,1,2.331,3.991,24.215,24.215,0,0,0,2.139,4.219,11.141,11.141,0,0,0,3.141,2.694,22.183,22.183,0,0,0,10.058,3.245l-2.055-5.1a5.852,5.852,0,0,1-.619-2.83c.227-1.836,2.079-3.041,2.682-4.789a5.808,5.808,0,0,0-.108-3.512c-.726-2.582-2.179-4.905-2.961-7.471a15.166,15.166,0,0,1-.447-6.948,10.733,10.733,0,0,0,.323-3.073c-.379-3.121-4.039-4.614-5.731-7.26-1.094-1.7-1.305-3.8-1.672-5.783a18.251,18.251,0,0,0-3.3-8.114,9.525,9.525,0,0,0-7.583-3.867,15.325,15.325,0,0,0-4.558,1.141l-3.847,1.4" transform="translate(-515.475 -273.545)" fill="#3f3d56"/>
    <g id="Group_602" data-name="Group 602" transform="translate(318.166 151.495)" opacity="0.1">
      <path id="Path_648" data-name="Path 648" d="M893.986,437.385a18.466,18.466,0,0,0,1.377,5.272c-.116-.623-.212-1.249-.327-1.864a23.246,23.246,0,0,0-1.285-4.574C893.85,436.607,893.918,436.994,893.986,437.385Z" transform="translate(-869.767 -436.22)"/>
      <path id="Path_649" data-name="Path 649" d="M911.763,476.419a15.242,15.242,0,0,0,.447,6.953,18,18,0,0,0,.655,1.8,15.2,15.2,0,0,1-.052-5.34,10.737,10.737,0,0,0,.323-3.073,4.791,4.791,0,0,0-1.038-2.395C912.039,475.054,911.879,475.737,911.763,476.419Z" transform="translate(-880.464 -459.138)"/>
      <path id="Path_650" data-name="Path 650" d="M917.747,520.873a19.277,19.277,0,0,0-.8-2.2,4.9,4.9,0,0,1-.152,2.307c-.6,1.744-2.459,2.953-2.682,4.789a5.8,5.8,0,0,0,.619,2.83c.136.339.271.682.4,1.022a3.271,3.271,0,0,1,0-.443c.227-1.836,2.079-3.041,2.682-4.789A5.57,5.57,0,0,0,917.747,520.873Z" transform="translate(-881.99 -485.763)"/>
      <path id="Path_651" data-name="Path 651" d="M869.273,512.145a11.173,11.173,0,0,1-3.141-2.7,24.091,24.091,0,0,1-2.143-4.219,33.642,33.642,0,0,0-2.331-3.991,125.358,125.358,0,0,0-9.463-12.6c-.124-.14-.243-.283-.363-.427a4.1,4.1,0,0,0-.092,1.125,5.011,5.011,0,0,0,1.5,2.71,125.148,125.148,0,0,1,9.467,12.6,34.027,34.027,0,0,1,2.331,3.991,24.194,24.194,0,0,0,2.139,4.219,11.14,11.14,0,0,0,3.141,2.694,22.181,22.181,0,0,0,10.057,3.245l-1.4-3.432A22.207,22.207,0,0,1,869.273,512.145Z" transform="translate(-844.519 -467.46)"/>
      <path id="Path_652" data-name="Path 652" d="M837.877,450.554c-1.2-1.445-2.758-2.542-3.915-4.011-.1-.136-.2-.275-.3-.423a5.812,5.812,0,0,0,1.353,3.827c1.158,1.473,2.726,2.57,3.915,4.015a9.973,9.973,0,0,1,1.2,1.82A10.374,10.374,0,0,0,837.877,450.554Z" transform="translate(-833.658 -442.169)"/>
    </g>
    <path id="Path_653" data-name="Path 653" d="M398.962,349.514l-2.894-2.909a1.536,1.536,0,0,0-2.183,0l-18.171,18-7.687-7.743a1.532,1.532,0,0,0-2.167,0l-2.925,2.893a1.553,1.553,0,0,0,0,2.183L374.609,373.7a1.548,1.548,0,0,0,2.179,0L398.962,351.7a1.536,1.536,0,0,0,0-2.183Z" transform="translate(-232.222 -230.603)" fill="#3acc6c"/>
    <path id="Path_654" data-name="Path 654" d="M599.962,349.514l-2.894-2.909a1.536,1.536,0,0,0-2.183,0l-18.171,18-7.687-7.743a1.532,1.532,0,0,0-2.167,0l-2.926,2.893a1.553,1.553,0,0,0,0,2.183L575.609,373.7a1.549,1.549,0,0,0,2.179,0L599.962,351.7a1.537,1.537,0,0,0,0-2.183Z" transform="translate(-353.064 -230.603)" fill="#3acc6c"/>
  </g>
</svg>
