<svg xmlns="http://www.w3.org/2000/svg" xmlns:xlink="http://www.w3.org/1999/xlink" width="490.439" height="298.597" viewBox="0 0 490.439 298.597">
  <defs>
    <filter id="Path_775" x="213.371" y="83.419" width="277.067" height="194.746" filterUnits="userSpaceOnUse">
      <feOffset dx="7" dy="3" input="SourceAlpha"/>
      <feGaussianBlur stdDeviation="12" result="blur"/>
      <feFlood flood-opacity="0.078"/>
      <feComposite operator="in" in2="blur"/>
      <feComposite in="SourceGraphic"/>
    </filter>
  </defs>
  <g id="profile" transform="translate(-0.007 -34.585)">
    <path id="Path_715" data-name="Path 715" d="M173.067,121.081l-3.307,26.752c4.062,7.95,8.364,16.981,12.465,26.728l7.789-40.342.395.36a80.079,80.079,0,0,0-17.74-13.819Z" transform="translate(-87.065 -61.937)" fill="#e0e4f5"/>
    <path id="Path_716" data-name="Path 716" d="M149.216,140.182l3.205-25.914c-6.81-3.717-13.688-5.748-20.3-5.709-.346,0-.682.015-1.023.024C132.43,110.615,140.146,122.583,149.216,140.182Z" transform="translate(-67.237 -55.679)" fill="#e0e4f5"/>
    <path id="Path_717" data-name="Path 717" d="M251.9,248.538l.356.482q-1.775-5.4-3.916-10.58L228.25,283.449l-.17-.214q.76,3.324,1.408,6.581Z" transform="translate(-116.977 -122.294)" fill="#3657ff"/>
    <path id="Path_718" data-name="Path 718" d="M222.184,173.249l.38.429A126.17,126.17,0,0,0,204.6,149.96l-7.94,41.107q5.706,13.729,9.83,26.8Z" transform="translate(-100.862 -76.913)" fill="#e0e4f5"/>
    <path id="Path_719" data-name="Path 719" d="M66.023,193.44a105.308,105.308,0,0,0,.56,21.2l70.075,19.679c-2.538-7.511-5.271-14.618-7.989-21.136L66.106,194.034Z" transform="translate(-33.71 -99.214)" fill="#e0e4f5"/>
    <path id="Path_720" data-name="Path 720" d="M68.818,245.74l-.1-.594,71.1,18.885q-.869-2.784-1.773-5.509L67.713,238.774l-.093-.594Q68.095,241.9,68.818,245.74Z" transform="translate(-34.678 -122.161)" fill="#e0e4f5"/>
    <path id="Path_721" data-name="Path 721" d="M242.469,217.5l.37.458a150.152,150.152,0,0,0-9.06-18.154L217.87,245.028q2.7,8.731,4.671,17.107Z" transform="translate(-111.74 -102.476)" fill="#3657ff"/>
    <path id="Path_722" data-name="Path 722" d="M234.68,353.8a122.771,122.771,0,0,1-2.82,35.656c5.524-7.906,27.034-40.9,27.03-75.107Z" transform="translate(-118.916 -161.228)" fill="#3657ff"/>
    <path id="Path_723" data-name="Path 723" d="M88.37,309.94A145.5,145.5,0,0,0,98.3,326.711l-.068-.653,61.95,24.3a180.756,180.756,0,0,0-2.713-21.525Z" transform="translate(-45.321 -158.966)" fill="#e0e4f5"/>
    <path id="Path_724" data-name="Path 724" d="M123.507,140.56c-9.82-19.036-18.028-31.414-18.145-31.594l.229-.326c-10.039.526-17.994,5.923-23.391,14.789Z" transform="translate(-42.156 -55.721)" fill="#e0e4f5"/>
    <path id="Path_725" data-name="Path 725" d="M231.63,303.39c.127.672.258,1.349.38,2.022a179.55,179.55,0,0,1,2.431,19.421l23.98-39.076.336.482a71.388,71.388,0,0,0-2.421-17.833q-.935-3.427-2.021-6.776Z" transform="translate(-118.798 -134.188)" fill="#3657ff"/>
    <path id="Path_726" data-name="Path 726" d="M128.478,184.432c-4.062-9.63-8.315-18.559-12.329-26.411L73.892,140.49l-.054-.58c-3.994,6.756-6.532,15.461-7.409,25.524Z" transform="translate(-34.068 -71.759)" fill="#e0e4f5"/>
    <path id="Path_727" data-name="Path 727" d="M171.192,369.876,109.7,345.75c22.066,32.159,55.939,59.753,58.107,61.5A118.865,118.865,0,0,0,171.192,369.876Z" transform="translate(-56.261 -177.333)" fill="#e0e4f5"/>
    <path id="Path_728" data-name="Path 728" d="M147.95,299.418l.019-.039a244.391,244.391,0,0,0-6.391-25.51L70.31,254.94q1,5.2,2.465,10.585a87.453,87.453,0,0,0,5.685,14.886Z" transform="translate(-36.058 -130.757)" fill="#e0e4f5"/>
    <path id="Path_729" data-name="Path 729" d="M394.719,352.412l-19.611,18.5c-1.944,8.709-4.389,18.413-7.448,28.535l31.73-26.1.073.526a80.214,80.214,0,0,0-4.847-21.959Z" transform="translate(-188.567 -180.492)" fill="#e0e4f5"/>
    <path id="Path_730" data-name="Path 730" d="M383.64,349.975l19-17.916c-2.874-7.2-6.878-13.157-11.993-17.346-.268-.219-.536-.424-.8-.633C389.568,316.5,387.873,330.637,383.64,349.975Z" transform="translate(-196.763 -161.089)" fill="#e0e4f5"/>
    <path id="Path_731" data-name="Path 731" d="M366.8,512.519l-.034.6q2.075-5.29,3.731-10.648l-44.181,21.852,0-.273q-1.534,3.047-3.113,5.962Z" transform="translate(-165.769 -257.713)" fill="#e0e4f5"/>
    <path id="Path_732" data-name="Path 732" d="M387.657,427.3l.02.57a125.989,125.989,0,0,0,1.291-29.723l-32.334,26.6q-4.362,14.211-9.523,26.913Z" transform="translate(-178.027 -204.208)" fill="#e0e4f5"/>
    <path id="Path_733" data-name="Path 733" d="M278.583,338.12a105.183,105.183,0,0,0-13.093,16.688l41.419,59.851c2.835-7.4,5.266-14.623,7.326-21.374l-35.968-54.653Z" transform="translate(-136.164 -173.419)" fill="#e0e4f5"/>
    <path id="Path_734" data-name="Path 734" d="M256.83,379.986l.307-.516,42.714,59.895q1.111-2.7,2.148-5.373L260.42,373.916l.307-.516Q258.725,376.564,256.83,379.986Z" transform="translate(-131.723 -191.514)" fill="#e0e4f5"/>
    <path id="Path_735" data-name="Path 735" d="M374.615,479.673l-.01.589a150.829,150.829,0,0,0,4.6-19.762l-41.1,24.687q-3.485,8.446-7.311,16.157Z" transform="translate(-169.661 -236.187)" fill="#e0e4f5"/>
    <path id="Path_736" data-name="Path 736" d="M269.321,587.154a122.759,122.759,0,0,1-24.911,25.661c9.3-2.567,46.9-14.258,68.721-40.605Z" transform="translate(-125.353 -293.482)" fill="#e0e4f5"/>
    <path id="Path_737" data-name="Path 737" d="M231.839,441.9a145.227,145.227,0,0,0-3.049,19.25l.365-.546,32.212,58.229A180.17,180.17,0,0,0,273,500.523Z" transform="translate(-117.341 -226.647)" fill="#e0e4f5"/>
    <path id="Path_738" data-name="Path 738" d="M360.207,343.788c4.579-20.926,6.152-35.7,6.172-35.9l.385-.107c-8.067-6-17.633-6.917-27.444-3.532Z" transform="translate(-174.031 -155.044)" fill="#e0e4f5"/>
    <path id="Path_739" data-name="Path 739" d="M309.4,543.452c-.331.6-.662,1.208-1,1.8a180.086,180.086,0,0,1-10.512,16.508l43.392-14.8-.044.585a71.289,71.289,0,0,0,9.508-15.281q1.469-3.23,2.767-6.508Z" transform="translate(-152.782 -269.653)" fill="#e0e4f5"/>
    <path id="Path_740" data-name="Path 740" d="M328.851,375.79c3.015-10.01,5.431-19.6,7.35-28.208l-21.365-40.449.331-.482c-7.385,2.655-14.891,7.745-21.988,14.93Z" transform="translate(-150.366 -157.279)" fill="#e0e4f5"/>
    <path id="Path_741" data-name="Path 741" d="M259.708,540.885l-31.974-57.8c-3.517,38.842,4.973,81.7,5.524,84.43A118.8,118.8,0,0,0,259.708,540.885Z" transform="translate(-116.364 -247.768)" fill="#e0e4f5"/>
    <path id="Path_742" data-name="Path 742" d="M277.139,471.8l.044-.015a243.965,243.965,0,0,0,11.35-23.722L245.716,388.02q-2.543,4.64-4.856,9.723a87.824,87.824,0,0,0-5.119,15.091Z" transform="translate(-120.906 -199.013)" fill="#e0e4f5"/>
    <path id="Path_743" data-name="Path 743" d="M86.3,354.635,91.427,381.1c6.318,6.3,13.2,13.566,20.113,21.564l-5.061-40.771.487.219A80.086,80.086,0,0,0,85.82,354.45Z" transform="translate(-44.013 -181.795)" fill="#e0e4f5"/>
    <path id="Path_744" data-name="Path 744" d="M66.61,378.933,61.647,353.3c-7.623-1.432-14.793-1.237-21.072.843-.326.107-.648.224-.964.341C41.5,356,52.543,365,66.61,378.933Z" transform="translate(-20.312 -180.729)" fill="#e0e4f5"/>
    <path id="Path_745" data-name="Path 745" d="M212.344,445.845l.487.346q-3.361-4.589-6.995-8.851l-5.2,49.018-.229-.151q1.754,2.923,3.371,5.821Z" transform="translate(-102.785 -224.309)" fill="#e0e4f5"/>
    <path id="Path_746" data-name="Path 746" d="M154.172,387.438s6.472,4.469.492.292-15.636-12.319-24.414-17l5.154,41.55q9.667,11.289,17.633,22.451Z" transform="translate(-66.801 -190.145)" fill="#e0e4f5"/>
    <path id="Path_747" data-name="Path 747" d="M4.24,456.779a104.922,104.922,0,0,0,7.087,19.991l72.725-2.947c-4.735-6.357-9.533-12.275-14.131-17.633L4.508,457.31Z" transform="translate(-2.171 -233.977)" fill="#e0e4f5"/>
    <path id="Path_748" data-name="Path 748" d="M22.778,503.82l-.273-.536,73.456-4.014q-1.688-2.382-3.39-4.691l-72.993,2.957L19.31,497Q20.9,500.391,22.778,503.82Z" transform="translate(-9.9 -253.667)" fill="#e0e4f5"/>
    <path id="Path_749" data-name="Path 749" d="M193.906,420.656l.492.321A150.532,150.532,0,0,0,180.17,406.51l-1.15,47.926q5.268,7.467,9.732,14.823Z" transform="translate(-91.815 -208.496)" fill="#e0e4f5"/>
    <path id="Path_750" data-name="Path 750" d="M229.58,549.074a122.731,122.731,0,0,1,8.339,34.779c2.811-9.226,13.069-47.249,2.489-79.783Z" transform="translate(-117.746 -258.534)" fill="#e0e4f5"/>
    <path id="Path_751" data-name="Path 751" d="M61.21,557.815a145.134,145.134,0,0,0,14.628,12.879l-.263-.6L142,574.06a181.06,181.06,0,0,0-9.236-19.63Z" transform="translate(-31.391 -284.363)" fill="#e0e4f5"/>
    <path id="Path_752" data-name="Path 752" d="M47.1,381.828c-15.227-15.071-26.854-24.3-27.02-24.438l.117-.38C10.811,360.61,4.912,368.2,2.52,378.3Z" transform="translate(-1.289 -183.108)" fill="#e0e4f5"/>
    <path id="Path_753" data-name="Path 753" d="M209.03,503.483c.331.6.662,1.2.984,1.807a179.848,179.848,0,0,1,8.315,17.716l10.726-44.575.468.351a71.086,71.086,0,0,0-7.818-16.211q-1.944-2.966-4.019-5.821Z" transform="translate(-107.206 -234.264)" fill="#e0e4f5"/>
    <path id="Path_754" data-name="Path 754" d="M66.83,427.211c-6.839-7.906-13.644-15.081-19.889-21.306L1.338,402.3l-.229-.536c-1.71,7.657-1.432,16.722.843,26.567Z" transform="translate(0 -206.06)" fill="#e0e4f5"/>
    <path id="Path_755" data-name="Path 755" d="M158.51,592.786,92.57,588.85c30.926,23.766,71.673,39.534,74.269,40.527A118.958,118.958,0,0,0,158.51,592.786Z" transform="translate(-47.475 -302.017)" fill="#e0e4f5"/>
    <path id="Path_756" data-name="Path 756" d="M114.627,528.719l.01-.044a244.527,244.527,0,0,0-13.96-22.285L27.04,510.413q2.557,4.632,5.616,9.309a87.467,87.467,0,0,0,10.01,12.4Z" transform="translate(-13.865 -259.724)" fill="#e0e4f5"/>
    <path id="Path_757" data-name="Path 757" d="M101.57,664.852s103.267-40.917,227.966,0" transform="translate(-52.091 -331.671)" fill="#2f2e41"/>
    <path id="Path_758" data-name="Path 758" d="M255.629,604.276a32.021,32.021,0,0,0,.4,3.269s8.885,6.045,9.6-.711c.463-4.4-.585-6.386-1.374-7.238l-.015-.015a2.762,2.762,0,0,1-.75-1.851V589.77l-7.818,2.489.356,6.751A14.014,14.014,0,0,0,255.629,604.276Z" transform="translate(-131.072 -302.489)" fill="#a1616a"/>
    <path id="Path_759" data-name="Path 759" d="M255.7,614.169a32.024,32.024,0,0,0,.4,3.268s8.885,6.045,9.6-.711c.463-4.4-.585-6.386-1.374-7.238a2.127,2.127,0,0,0-2.182-.229c-1.422-.633-2.986.424-4.282,1.788A12.822,12.822,0,0,0,255.7,614.169Z" transform="translate(-131.143 -312.382)" opacity="0.05"/>
    <path id="Path_760" data-name="Path 760" d="M259.559,610.717s3.911-2.134,4.623,7.462,1.067,8.529,1.067,8.529,3.556,8.529-3.911,7.463-11.018-1.778-10.663-6.045c.214-2.572.813-6.3,1.262-8.865a13.025,13.025,0,0,1,3.346-6.766C256.578,611.141,258.137,610.089,259.559,610.717Z" transform="translate(-128.553 -313.129)" fill="#2f2e41"/>
    <path id="Path_761" data-name="Path 761" d="M352.5,614.541l4.077,1.963s12.733,1.953,8.695-5.295a29.424,29.424,0,0,1-2.655-6.858,45.374,45.374,0,0,1-1.408-10.171l-10.77,1.5c3.512,4.676,3.069,12.265,2.523,16.24C352.739,613.528,352.5,614.541,352.5,614.541Z" transform="translate(-179.735 -304.751)" fill="#a1616a"/>
    <path id="Path_762" data-name="Path 762" d="M354.67,625.25l4.077,1.963s12.733,1.953,8.695-5.295a29.423,29.423,0,0,1-2.655-6.858c-2.474.477-4.355,4.038-4.355,4.038-1.992,6.922-3.79,5.193-5.3,3.536C354.909,624.237,354.67,625.25,354.67,625.25Z" transform="translate(-181.904 -315.46)" opacity="0.05"/>
    <path id="Path_763" data-name="Path 763" d="M358.929,620.422s3.176-6,6.7-3.468,1.773,6.157,13.181,9.7,3.868,11.072-3.113,10.5-21.857-3.288-21.857-3.288-3.868-11.072-2.07-11.325S356.04,630.466,358.929,620.422Z" transform="translate(-180.172 -316.111)" fill="#2f2e41"/>
    <path id="Path_764" data-name="Path 764" d="M377.427,650.2c4.53.375,9.294-2.669,8.958-5.821,2.163,3.556-3.317,7.589-8.49,7.16-6.98-.575-21.857-3.288-21.857-3.288s-.18-.521-.448-1.34C356.028,647,370.554,649.636,377.427,650.2Z" transform="translate(-182.376 -330.498)" fill="#fff" opacity="0.3"/>
    <path id="Path_765" data-name="Path 765" d="M250.694,646.27c.409,3.2,3.955,3.868,10.643,4.827,3.4.487,4.511-1.023,4.715-2.806.224,2.285-.429,4.842-4.715,4.228-7.462-1.067-11.018-1.778-10.663-6.045C250.679,646.411,250.684,646.338,250.694,646.27Z" transform="translate(-128.553 -331.467)" fill="#fff" opacity="0.3"/>
    <path id="Path_766" data-name="Path 766" d="M216.077,359.46l-1.179,17.7s-.945,17.935,6.371,19.353,0-22.889,0-22.889V357.58Z" transform="translate(-110.196 -183.4)" fill="#a1616a"/>
    <path id="Path_767" data-name="Path 767" d="M220.943,229.18,220,231.3s.234,14.867,0,16.045-3.3,10.385-3.3,11.325-2.358,28.32-2.83,29.972-2.6,6.844-.706,7.55,5.426-2.124,6.844,0,2.6,0,2.6-.706.473-14.16,3.3-17.935,5.426-12.27,5.9-13.922,1.179-25.485,1.417-25.958-.945-6.844-.945-6.844Z" transform="translate(-108.929 -117.545)" fill="#3f3d56"/>
    <path id="Path_768" data-name="Path 768" d="M243.1,280.53s-2.83,11.091-4.72,13.215-11.325,17.935-8.5,38.939,7.789,48.379,7.789,48.379.706,9.674-.234,12.27,4.248,43.893,4.248,43.893,7.316,5.665,11.325-1.417c0,0-.945-15.339,0-16.756s0-26.9,0-26.9.706-63.48,4.481-60.883S272.835,378,272.835,378s4.954,16.99,4.72,18.408,4.248,19.114,4.248,19.114,4.248,24.545,5.9,25.013,11.8.706,12.743-1.89l-2.83-22.183s-2.83-25.252-4.248-28.793-3.775-53.806-10.619-68.672c0,0-2.6-23.834-4.481-27.375a20.934,20.934,0,0,1,.258-9.4S245.7,282.42,243.1,280.53Z" transform="translate(-117.634 -143.882)" fill="#2f2e41"/>
    <ellipse id="Ellipse_70" data-name="Ellipse 70" cx="19.825" cy="25.135" rx="19.825" ry="25.135" transform="translate(119.681 42.135)" fill="#2f2e41"/>
    <path id="Path_769" data-name="Path 769" d="M298.776,174.021l-3.069,6.61L259.364,191.25s-25.252,7.316-27.848-4.481,9.913-12.981,9.913-12.981,4.72-3.3,10.619-6.61a5.1,5.1,0,0,0,2.621-4.793,10.223,10.223,0,0,0-.156-1.681,14.175,14.175,0,0,0-.473-1.895,21.913,21.913,0,0,0-1.992-4.379s15.578-6.138,15.339-2.83a9.424,9.424,0,0,0,.38,3.532,13.893,13.893,0,0,0,1.3,2.864c.263.453.56.926.887,1.427.424.648.911,1.34,1.452,2.09,3.069,4.248,13.215,4.248,13.215,4.248C292.639,164.815,298.776,174.021,298.776,174.021Z" transform="translate(-118.558 -77.253)" fill="#a1616a"/>
    <path id="Path_770" data-name="Path 770" d="M441.779,276.17s16.99,12.509,20.293,12.27,22.655-1.417,18.169,3.069-24.779,1.651-24.779,1.651l-18.642-11.8Z" transform="translate(-224.038 -141.646)" fill="#a1616a"/>
    <path id="Path_771" data-name="Path 771" d="M289.759,155.131a13.464,13.464,0,0,1-13.727,3.678,21.915,21.915,0,0,0-1.992-4.379s15.578-6.138,15.339-2.83A9.4,9.4,0,0,0,289.759,155.131Z" transform="translate(-140.55 -77.253)" opacity="0.1"/>
    <circle id="Ellipse_71" data-name="Ellipse 71" cx="13.449" cy="13.449" r="13.449" transform="translate(125.94 53.582)" fill="#a1616a"/>
    <path id="Path_772" data-name="Path 772" d="M239.633,205.92s58.526-13.215,58.76-11.325,2.6,5.665,2.6,5.665L287.3,215.838s1.651,7.55-1.651,9.2-3.775,14.16-6.844,14.394-38.939-.234-39.173-2.124.945-3.069,0-3.541-2.358-.473-1.179-2.83,1.179-12.27,1.179-12.27l-11.091-5.193s-1.52-4.4,1.247-5.149S239.633,205.92,239.633,205.92Z" transform="translate(-117 -99.712)" fill="#3f3d56"/>
    <path id="Path_773" data-name="Path 773" d="M359.194,205.44h2.124s6.371,4.248,8.023,8.023,7.55,8.734,8.968,10.146,20.765,14.867,20.532,16.756-5.665,3.775-5.9,5.9,2.358,3.069.706,3.069-11.8-5.9-15.578-8.023-11.564-8.261-12.509-9.913-7.316-4.481-8.023-5.665-11.8-6.61-11.8-6.61Z" transform="translate(-177.324 -105.369)" fill="#3f3d56"/>
    <circle id="Ellipse_72" data-name="Ellipse 72" cx="7.55" cy="7.55" r="7.55" transform="translate(111.025 58.29) rotate(-80.782)" fill="#2f2e41"/>
    <circle id="Ellipse_73" data-name="Ellipse 73" cx="7.55" cy="7.55" r="7.55" transform="translate(145.41 34.585)" fill="#2f2e41"/>
    <ellipse id="Ellipse_74" data-name="Ellipse 74" cx="14.043" cy="8.612" rx="14.043" ry="8.612" transform="translate(127.236 49.69)" fill="#2f2e41"/>
    <path id="Path_774" data-name="Path 774" d="M293.65,165.76a35.416,35.416,0,0,1-14.55,2.708,9.717,9.717,0,0,1,.156,1.681c.346.015.716.019,1.111.019a38.2,38.2,0,0,0,14.17-2.981Z" transform="translate(-143.145 -85.017)" fill="#2f2e41"/>
    <g transform="matrix(1, 0, 0, 1, 0.01, 34.58)" filter="url(#Path_775)">
      <path id="Path_775-2" data-name="Path 775" d="M508.019,310h184.19a10.439,10.439,0,0,1,10.439,10.439V422.307a10.439,10.439,0,0,1-10.439,10.439H508.019a10.439,10.439,0,0,1-10.439-10.439V320.439A10.436,10.436,0,0,1,508.019,310Z" transform="translate(-255.21 -193.58)" fill="#fff"/>
    </g>
    <rect id="Rectangle_528" data-name="Rectangle 528" width="160.745" height="5.845" rx="2.923" transform="translate(264.488 237.099)" fill="#3657ff" opacity="0.8"/>
    <rect id="Rectangle_529" data-name="Rectangle 529" width="160.745" height="5.845" rx="2.923" transform="translate(264.59 221.756)" fill="#3657ff" opacity="0.8"/>
    <rect id="Rectangle_530" data-name="Rectangle 530" width="28.739" height="5.845" rx="2.923" transform="translate(396.596 200.81)" fill="#3657ff" opacity="0.8"/>
    <rect id="Rectangle_531" data-name="Rectangle 531" width="105.215" height="5.845" rx="2.923" transform="translate(320.121 185.223)" fill="#3657ff" opacity="0.8"/>
    <rect id="Rectangle_532" data-name="Rectangle 532" width="80.475" height="5.845" rx="2.923" transform="translate(264.488 252.687)" fill="#3657ff" opacity="0.8"/>
    <path id="Path_776" data-name="Path 776" d="M548.134,341.25h30.527a4.955,4.955,0,0,1,4.954,4.954v30.527a4.955,4.955,0,0,1-4.954,4.954H548.134a4.955,4.955,0,0,1-4.954-4.954V346.2A4.952,4.952,0,0,1,548.134,341.25Z" transform="translate(-278.59 -175.025)" fill="#3657ff"/>
    <ellipse id="Ellipse_75" data-name="Ellipse 75" cx="8.731" cy="6.884" rx="8.731" ry="6.884" transform="translate(276.701 189.614) rotate(-75.569)" fill="#2f2e41"/>
    <path id="Path_777" data-name="Path 777" d="M571.081,391.485l-1.6,1.958-13.143.425s-9.128.276-8.979-3.92,4.459-3.507,4.459-3.507,1.873-.7,4.145-1.3a1.778,1.778,0,0,0,1.3-1.384,3.273,3.273,0,0,0,.092-.578,5.351,5.351,0,0,0,.006-.676,7.417,7.417,0,0,0-.292-1.644s5.77-.714,5.405.375a3.25,3.25,0,0,0-.178,1.219,4.967,4.967,0,0,0,.187,1.076c.051.175.108.362.175.559.086.254.19.53.308.828.663,1.695,4.078,2.574,4.078,2.574C569.815,387.857,571.081,391.485,571.081,391.485Z" transform="translate(-274.387 -195.171)" fill="#a1616a"/>
    <ellipse id="Ellipse_76" data-name="Ellipse 76" cx="4.672" cy="4.672" rx="4.672" ry="4.672" transform="translate(280.863 178.105)" fill="#a1616a"/>
    <ellipse id="Ellipse_77" data-name="Ellipse 77" cx="2.622" cy="2.622" rx="2.622" ry="2.622" transform="translate(277.584 173.411)" fill="#2f2e41"/>
    <ellipse id="Ellipse_78" data-name="Ellipse 78" cx="2.622" cy="2.622" rx="2.622" ry="2.622" transform="translate(289.055 177.468) rotate(-75.569)" fill="#2f2e41"/>
    <ellipse id="Ellipse_79" data-name="Ellipse 79" cx="2.993" cy="4.878" rx="2.993" ry="4.878" transform="translate(281.446 181.691) rotate(-75.569)" fill="#2f2e41"/>
    <path id="Path_778" data-name="Path 778" d="M583.761,389a12.322,12.322,0,0,1-5.129-.349,3.171,3.171,0,0,1-.092.578q.171.052.371.1a13.277,13.277,0,0,0,5.024.222Z" transform="translate(-295.675 -200.649)" fill="#2f2e41"/>
    <text id="Personal_Information" data-name="Personal Information" transform="translate(319.546 179.39)" fill="#3657ff" font-size="9" font-family="Sailec-Regular, Sailec"><tspan x="0" y="0">Personal Information</tspan></text>
  </g>
</svg>
