<?xml version="1.0" encoding="utf-8"?>
<!-- Generator: Adobe Illustrator 24.0.1, SVG Export Plug-In . SVG Version: 6.00 Build 0)  -->
<svg version="1.1" id="Layer_1" xmlns="http://www.w3.org/2000/svg" xmlns:xlink="http://www.w3.org/1999/xlink" x="0px" y="0px"
	 viewBox="0 0 3000 3000" style="enable-background:new 0 0 3000 3000;" xml:space="preserve">
<style type="text/css">
	.st0{fill:#E6EDFF;}
	.st1{fill:#B6B7B2;}
	.st2{fill:#E7E4E0;}
	.st3{fill:#D8D9D3;}
	.st4{fill:#FEFDFF;}
	.st5{fill:#948EA2;}
	.st6{fill:#B6BCCC;}
	.st7{fill:#F50003;}
	.st8{fill:#0100FF;}
	.st9{fill:#595563;}
	.st10{fill:#EFEDEA;}
	.st11{fill:#DDDDDB;}
	.st12{fill:#839BFF;}
	.st13{fill:#CFD8FF;}
	.st14{fill:#B0C3FF;}
	.st15{fill:#FFE05C;}
	.st16{fill:#3657FF;}
	.st17{fill:#FFFFFF;}
	.st18{fill:#9FB1FF;}
	.st19{fill:#052FDD;}
</style>
<ellipse class="st0" cx="1194.93" cy="2648.55" rx="946.82" ry="88.53"/>
<ellipse class="st0" cx="2453.12" cy="2370.4" rx="355.18" ry="79.7"/>
<g>
	<path class="st1" d="M1479.67,2590.92c0,29.16,10.72,73.77,79.96,73.77s170.79-44.62,170.79-73.77s-56.13-52.8-125.37-52.8
		C1535.8,2538.13,1479.67,2561.76,1479.67,2590.92z"/>
	<path class="st1" d="M845.88,2590.92c0,29.16-10.72,73.77-79.96,73.77s-170.79-44.62-170.79-73.77s56.13-52.8,125.37-52.8
		C789.75,2538.13,845.88,2561.76,845.88,2590.92z"/>
	<g>
		<path class="st2" d="M458.81,2187.62c44.35,91.07,199.16,278.88,721.87,278.88s728.71-187.82,797.9-278.88h107.44
			c0,232.67-179.74,422.17-401.47,422.17H673.21c-221.73,0-401.47-189.5-401.47-422.17H458.81z"/>
		<path class="st3" d="M1180.68,2466.5c-522.71,0-677.52-187.82-721.87-278.88h1519.77
			C1909.39,2278.69,1703.39,2466.5,1180.68,2466.5z"/>
	</g>
	<path class="st4" d="M271.66,2187.51c0,28.95,405.33,52.41,905.34,52.41s909.03-23.36,909.03-52.3S1677,2135.09,1177,2135.09
		S271.66,2158.56,271.66,2187.51z"/>
</g>
<g>
	<path class="st5" d="M715.79,1983.11c0-15.55-12.61-28.16-28.16-28.16h-233.2c-15.55,0-28.16,12.61-28.16,28.16v0.01
		c0,15.55,12.61,28.16,28.16,28.16h233.2c15.55,0,28.16-12.61,28.16-28.16V1983.11z"/>
	<g>
		<path class="st6" d="M404.82,1973.14c2.19-11.75,8.28-22.12,16.89-29.71c9.24,8.11,21.36,13.03,34.62,13.03
			c13.32,0,25.48-4.96,34.74-13.13c8.74,7.67,14.91,18.19,17.06,30.11c-20.58,7.11-35.36,26.65-35.36,49.65
			c0,3.2,0.29,6.33,0.84,9.38c-5.38,1.86-11.15,2.87-17.15,2.87c-5.69,0-11.17-0.91-16.3-2.58c0.58-3.13,0.89-6.36,0.89-9.66
			C441.03,1999.76,425.84,1979.99,404.82,1973.14z"/>
	</g>
	<circle class="st7" cx="455.19" cy="1983.42" r="17.66"/>
	<g>
		<path class="st6" d="M631.6,1973.14c2.19-11.75,8.28-22.12,16.89-29.71c9.24,8.11,21.36,13.03,34.62,13.03
			c13.32,0,25.48-4.96,34.74-13.13c8.74,7.67,14.91,18.19,17.06,30.11c-20.58,7.11-35.36,26.65-35.36,49.65
			c0,3.2,0.29,6.33,0.84,9.38c-5.38,1.86-11.15,2.87-17.15,2.87c-5.69,0-11.17-0.91-16.3-2.58c0.58-3.13,0.89-6.36,0.89-9.66
			C667.82,1999.76,652.62,1979.99,631.6,1973.14z"/>
	</g>
	<circle class="st8" cx="681.97" cy="1983.42" r="17.66"/>
	<g>
		<path class="st6" d="M767.45,2099.34c0,0-113.1,0.18-157.93,0c-48.17-0.19-38.4-52.1-38.4-52.1l0.06-35.44h18.8v35.24l0.08,1.03
			l-0.13,1.2c-0.48,4.61-0.39,18.86,5.9,25.86c1.82,2.02,5.22,4.56,13.7,4.56h157.93l0.41,0.15c2.75,0.06,17.21,0.97,31.74,11.75
			c12.99,9.64,28.48,29.32,28.49,68.16l-19.06,0.03C808.51,2094.97,767.45,2099.34,767.45,2099.34z"/>
		<path class="st5" d="M552.08,2046.08v-34.28h19.1l-0.06,35.44c0,0-9.77,52,38.4,52.2c44.82,0.18,157.93-0.05,157.93-0.05
			s41.06-4.37,41.58,60.45l-19.24,0c-0.01-17.29-4.11-29.98-11.87-36.56c-4.89-4.14-9.98-5.14-11.11-5.14H609.52
			c-22.09,0-35.09-9.51-42.24-17.56C549.99,2081.08,551.02,2053.08,552.08,2046.08z"/>
	</g>
	<path class="st5" d="M842.12,2153.31c0-4.02-3.26-7.28-7.28-7.28h-56.51c-4.02,0-7.28,3.26-7.28,7.28v14.39
		c0,4.02,3.26,7.28,7.28,7.28h56.51c4.02,0,7.28-3.26,7.28-7.28V2153.31z"/>
	<g>
		<path class="st6" d="M699.63,740.01c121.94-3.3,128.13,81.58,128.45,90.55l-19.14-0.05c0-0.25-0.5-25.58-20.97-45.57
			c-18.62-18.18-48.16-26.85-87.82-25.78c-44.18,1.2-76.1,31.19-94.86,89.15c-15.25,47.12-15.59,95.04-15.59,95.52l-0.24,1011.29
			l-19.15,0l0.24-1011.34C570.55,943.77,570.9,743.49,699.63,740.01z"/>
		<path class="st5" d="M551.39,943.74c0-2.17,0.29-53.65,17.18-106.39c10.27-32.06,24.62-58.03,42.63-77.17
			c23.68-25.16,53.26-38.39,87.91-39.33c26.59-0.72,50.26,2.44,70.36,9.4c17.8,6.16,33.02,15.33,45.25,27.26
			c13.35,13.03,23.19,29.59,28.47,47.89c3.97,13.79,4.06,24.07,4.06,25.2l-19.17-0.05c-0.31-8.97-6.51-93.85-128.45-90.55
			c-128.73,3.48-129.08,203.77-129.08,203.77l-0.24,1011.34l-19.15,0L551.39,943.74z"/>
	</g>
	<g>
		<g>
			<path class="st6" d="M776.52,831.26l106.8-32.07c41.24-12.38,123.53-5.89,144.06,29.94L671.91,935.86
				C669.3,894.65,735.27,843.64,776.52,831.26z"/>
		</g>
		
			<ellipse transform="matrix(0.9578 -0.2876 0.2876 0.9578 -218.1799 281.7461)" class="st5" cx="849.96" cy="883.55" rx="185.58" ry="15.49"/>
		<path class="st9" d="M997.81,839.51c0.46,1.52,4.28,1.71,8.54,0.43c4.26-1.28,7.35-3.55,6.89-5.06c-0.46-1.52-4.28-1.71-8.54-0.43
			C1000.44,835.73,997.36,838,997.81,839.51z"/>
		
			<ellipse transform="matrix(0.9578 -0.2876 0.2876 0.9578 -203.1601 310.1917)" class="st9" cx="954.3" cy="846.65" rx="8.06" ry="2.87"/>
		<path class="st9" d="M917.89,854.5c0.46,1.52,4.28,1.71,8.54,0.43c4.26-1.28,7.35-3.55,6.89-5.06c-0.46-1.52-4.28-1.71-8.54-0.43
			C920.52,850.71,917.44,852.98,917.89,854.5z"/>
		<path class="st9" d="M889.18,863.12c0.46,1.52,4.28,1.71,8.54,0.43c4.26-1.28,7.35-3.55,6.89-5.06c-0.46-1.52-4.28-1.71-8.54-0.43
			C891.81,859.34,888.72,861.6,889.18,863.12z"/>
		
			<ellipse transform="matrix(0.9578 -0.2876 0.2876 0.9578 -213.2657 286.5726)" class="st9" cx="868.84" cy="869.23" rx="8.06" ry="2.87"/>
		
			<ellipse transform="matrix(0.9578 -0.2876 0.2876 0.9578 -216.5365 279.5734)" class="st9" cx="843.39" cy="876.87" rx="8.06" ry="2.87"/>
		
			<ellipse transform="matrix(0.9578 -0.2876 0.2876 0.9578 -219.9215 272.3393)" class="st9" cx="817.07" cy="884.77" rx="8.06" ry="2.87"/>
		<path class="st9" d="M780.85,895.64c0.46,1.52,4.28,1.71,8.54,0.43c4.26-1.28,7.35-3.55,6.89-5.06c-0.46-1.52-4.28-1.71-8.54-0.43
			C783.48,891.86,780.4,894.13,780.85,895.64z"/>
		<path class="st9" d="M754.1,903.68c0.46,1.52,4.28,1.71,8.54,0.43c4.26-1.28,7.35-3.55,6.89-5.06c-0.46-1.52-4.28-1.71-8.54-0.43
			S753.64,902.16,754.1,903.68z"/>
		<path class="st9" d="M726.45,915.06c0.46,1.52,4.28,1.71,8.54,0.43c4.26-1.28,7.35-3.55,6.89-5.06c-0.46-1.52-4.28-1.71-8.54-0.43
			C729.08,911.28,725.99,913.54,726.45,915.06z"/>
		<path class="st9" d="M701.2,925.73c0.46,1.52,4.28,1.71,8.54,0.43c4.26-1.28,7.35-3.55,6.89-5.06c-0.46-1.52-4.28-1.71-8.54-0.43
			C703.83,921.94,700.74,924.21,701.2,925.73z"/>
		
			<ellipse transform="matrix(0.9578 -0.2876 0.2876 0.9578 -239.1152 237.2252)" class="st9" cx="687.95" cy="932.55" rx="8.06" ry="2.87"/>
		<path class="st9" d="M716.1,927.18c0.46,1.52,4.28,1.71,8.54,0.43c4.26-1.28,7.35-3.55,6.89-5.06c-0.46-1.52-4.28-1.71-8.54-0.43
			C718.73,923.4,715.64,925.66,716.1,927.18z"/>
		
			<ellipse transform="matrix(0.9578 -0.2876 0.2876 0.9578 -232.6695 255.0525)" class="st9" cx="751.86" cy="919.53" rx="8.06" ry="2.87"/>
		<path class="st9" d="M769.59,914.2c0.46,1.52,4.28,1.71,8.54,0.43c4.26-1.28,7.35-3.55,6.89-5.06c-0.46-1.52-4.28-1.71-8.54-0.43
			C772.22,910.42,769.13,912.69,769.59,914.2z"/>
		<path class="st9" d="M798.87,908.26c0.46,1.52,4.28,1.71,8.54,0.43c4.26-1.28,7.35-3.55,6.89-5.06c-0.46-1.52-4.28-1.71-8.54-0.43
			C801.5,904.47,798.41,906.74,798.87,908.26z"/>
		
			<ellipse transform="matrix(0.9578 -0.2876 0.2876 0.9578 -222.3173 279.2189)" class="st9" cx="839.28" cy="896.36" rx="8.06" ry="2.87"/>
		
			<ellipse transform="matrix(0.9578 -0.2876 0.2876 0.9578 -218.8477 286.6314)" class="st9" cx="866.25" cy="888.26" rx="8.06" ry="2.87"/>
		<path class="st9" d="M881.59,883.65c0.46,1.52,4.28,1.71,8.54,0.43c4.26-1.28,7.35-3.55,6.89-5.06c-0.46-1.52-4.28-1.71-8.54-0.43
			C884.22,879.87,881.14,882.14,881.59,883.65z"/>
		<path class="st9" d="M908.8,872.4c0.46,1.52,4.28,1.71,8.54,0.43c4.26-1.28,7.35-3.55,6.89-5.06c-0.46-1.52-4.28-1.71-8.54-0.43
			C911.43,868.62,908.35,870.89,908.8,872.4z"/>
		<path class="st9" d="M935.49,864.15c0.46,1.52,4.28,1.71,8.54,0.43c4.26-1.28,7.35-3.55,6.89-5.06c-0.46-1.52-4.28-1.71-8.54-0.43
			C938.12,860.37,935.04,862.64,935.49,864.15z"/>
		<path class="st9" d="M960.73,856.57c0.46,1.52,4.28,1.71,8.54,0.43c4.26-1.28,7.35-3.55,6.89-5.06s-4.28-1.71-8.54-0.43
			C963.36,852.79,960.27,855.06,960.73,856.57z"/>
		<path class="st9" d="M904.15,864.79c0.46,1.52,4.28,1.71,8.54,0.43c4.26-1.28,7.35-3.55,6.89-5.06c-0.46-1.52-4.28-1.71-8.54-0.43
			C906.78,861.01,903.69,863.27,904.15,864.79z"/>
		<path class="st9" d="M878.91,874.74c0.46,1.52,4.28,1.71,8.54,0.43c4.26-1.28,7.35-3.55,6.89-5.06c-0.46-1.52-4.28-1.71-8.54-0.43
			C881.55,870.95,878.46,873.22,878.91,874.74z"/>
		<path class="st9" d="M850.11,883.86c0.46,1.52,4.28,1.71,8.54,0.43c4.26-1.28,7.35-3.55,6.89-5.06s-4.28-1.71-8.54-0.43
			C852.75,880.08,849.66,882.34,850.11,883.86z"/>
		
			<ellipse transform="matrix(0.9578 -0.2876 0.2876 0.9578 -221.2739 275.5219)" class="st9" cx="827.23" cy="890.97" rx="8.06" ry="2.87"/>
		<path class="st9" d="M792.77,900.6c0.46,1.52,4.28,1.71,8.54,0.43c4.26-1.28,7.35-3.55,6.89-5.06c-0.46-1.52-4.28-1.71-8.54-0.43
			C795.41,896.82,792.32,899.08,792.77,900.6z"/>
		
			<ellipse transform="matrix(0.9578 -0.2876 0.2876 0.9578 -227.1263 260.9879)" class="st9" cx="774.82" cy="903.62" rx="8.06" ry="2.87"/>
		<path class="st9" d="M973.61,843.61c0.43,1.43,4.31,1.52,8.66,0.21c4.36-1.31,7.54-3.52,7.12-4.95c-0.43-1.43-4.31-1.52-8.66-0.21
			S973.18,842.18,973.61,843.61z"/>
	</g>
</g>
<g>
	<g>
		<path class="st2" d="M2209.65,1621.22c22.7,108.44,116.19,190.01,228.07,190.01s205.36-81.57,228.07-190.01h111.78
			c-16.09,136.86-92.55,243.92-339.81,243.92c-277.56,0-323.72-107.05-339.81-243.92H2209.65z"/>
		<path class="st3" d="M2437.72,1811.23c-111.88,0-205.36-81.57-228.07-190.01h456.13
			C2643.08,1729.66,2549.59,1811.23,2437.72,1811.23z"/>
	</g>
	<ellipse class="st4" cx="2437.75" cy="1628.26" rx="339.81" ry="48.76"/>
	<g>
		<path class="st2" d="M2372.37,2046.08c22.97-48.78,49.99-89.55,78.94-101.11v441.66c-80.01,0-125.28-54.91-125.28-54.91
			C2372.55,2255.29,2378.71,2142.81,2372.37,2046.08z"/>
		<path class="st3" d="M2372.37,2046.08c-6.94-106.03-28.88-193.15-28.88-193.15l107.82-0.04v92.08
			C2422.36,1956.53,2395.35,1997.3,2372.37,2046.08z"/>
		<path class="st10" d="M2535.35,1991.61c-12.1,105.91-14.27,248.76,41.33,340.1c0,0-44.83,54.91-125.36,54.91v-441.66
			C2487.1,1930.7,2515.12,1956.67,2535.35,1991.61z"/>
		<path class="st11" d="M2451.31,1944.97v-92.08l107.94,0.04c0,0-14.84,58.85-23.95,138.69
			C2515.07,1956.67,2487.1,1930.7,2451.31,1944.97z"/>
	</g>
</g>
<g>
	<path class="st5" d="M2565.01,1405.4c0-12.21-9.9-22.11-22.11-22.11h-185.29c-12.21,0-22.11,9.9-22.11,22.11l0,0
		c0,12.21,9.9,22.11,22.11,22.11h185.29C2555.11,1427.51,2565.01,1417.61,2565.01,1405.4L2565.01,1405.4z"/>
	<g>
		<path class="st6" d="M2319.03,1397.33c1.73-9.31,6.56-17.53,13.38-23.55c7.33,6.43,16.93,10.33,27.44,10.33
			c10.56,0,20.19-3.93,27.53-10.41c6.93,6.08,11.82,14.41,13.52,23.86c-16.31,5.64-28.02,21.12-28.02,39.35
			c0,2.54,0.23,5.02,0.66,7.43c-4.26,1.47-8.83,2.27-13.6,2.27c-4.51,0-8.85-0.72-12.92-2.05c0.46-2.48,0.71-5.04,0.71-7.66
			C2347.73,1418.43,2335.69,1402.77,2319.03,1397.33z"/>
	</g>
	
		<ellipse transform="matrix(0.7071 -0.7071 0.7071 0.7071 -302.9055 2079.6882)" class="st7" cx="2358.95" cy="1405.48" rx="14" ry="14"/>
	<g>
		<path class="st6" d="M2498.77,1397.33c1.73-9.31,6.56-17.53,13.38-23.55c7.33,6.43,16.93,10.33,27.44,10.33
			c10.56,0,20.19-3.93,27.53-10.41c6.93,6.08,11.82,14.41,13.52,23.86c-16.31,5.64-28.02,21.12-28.02,39.35
			c0,2.54,0.23,5.02,0.66,7.43c-4.26,1.47-8.83,2.27-13.6,2.27c-4.51,0-8.85-0.72-12.92-2.05c0.46-2.48,0.71-5.04,0.71-7.66
			C2527.48,1418.43,2515.44,1402.77,2498.77,1397.33z"/>
	</g>
	
		<ellipse transform="matrix(0.9732 -0.2298 0.2298 0.9732 -255.0015 620.872)" class="st8" cx="2538.7" cy="1405.48" rx="14" ry="14"/>
	<g>
		<path class="st6" d="M2606.45,1497.36c0,0-89.64,0.14-125.17,0c-38.18-0.15-30.44-41.53-30.44-41.53l0.05-28.32h15.16v28.41
			l-0.07,0.81l-0.17,0.95c-0.38,3.65-0.34,15.17,4.64,20.72c1.44,1.6,4.11,3.84,10.82,3.84h125.17l0.32-0.11
			c2.18,0.05,13.64,0.66,25.16,9.2c10.3,7.64,22.57,23.18,22.58,53.97l-15.11-0.01C2638.99,1493.93,2606.45,1497.36,2606.45,1497.36
			z"/>
		<path class="st5" d="M2434.99,1455.15v-27.64h15.9l-0.05,28.32c0,0-7.74,41.34,30.44,41.49c35.53,0.14,125.17,0.02,125.17,0.02
			s32.54-3.44,32.95,47.94l-15.25,0.01c-0.01-13.7-3.26-23.76-9.41-28.97c-3.87-3.28-7.91-4.07-8.81-4.07h-124.66
			c-17.51,0-28.19-7.54-33.85-13.92C2433.71,1482.89,2434.99,1460.7,2434.99,1455.15z"/>
	</g>
	<path class="st5" d="M2665.55,1540.13c0-3.19-2.58-5.77-5.77-5.77H2615c-3.19,0-5.77,2.58-5.77,5.77v11.1
		c0,3.19,2.58,5.77,5.77,5.77h44.79c3.19,0,5.77-2.58,5.77-5.77V1540.13z"/>
</g>
<path class="st12" d="M2117.79,797.77c10.99-57.33,30.78-109.99,57.35-155.28c17.13-29.22,37.08-55.37,59.31-77.74
	c53.43-53.77,119.99-85.67,192.16-85.67c176.01,0,318.69,189.69,318.69,423.68c0,14.45-0.55,28.72-1.61,42.8
	c-2.96,39.29-9.97,77-20.45,112.38c-11.6,39.16-27.47,75.47-46.83,107.92c-34.53,57.87-80.2,103.46-132.69,131.05
	c-36.25,19.05-75.76,29.52-117.11,29.52c-164.9,0-300.55-166.51-317.01-379.95c-1.11-14.37-1.68-28.96-1.68-43.72
	C2107.93,866.52,2111.35,831.35,2117.79,797.77z"/>
<g>
	<path class="st13" d="M2259.19,568.97l509.24,380.81c-2.96,39.29-9.97,77-20.45,112.38L2199.88,646.7
		C2217.01,617.49,2236.97,591.33,2259.19,568.97z"/>
	<path class="st14" d="M2451.36,483.3c176.01,0,318.69,189.69,318.69,423.68c0,14.45-0.55,28.72-1.61,42.8l-509.24-380.81
		C2312.62,515.2,2379.18,483.3,2451.36,483.3z"/>
	<path class="st13" d="M2400.9,1143.68L2134.35,950.7c-1.11-14.37-1.68-28.96-1.68-43.72c0-36.24,3.43-71.42,9.86-104.99
		l558.62,368.09c-34.53,57.87-80.2,103.46-132.69,131.05l-324.84-200.51L2400.9,1143.68z"/>
	<path class="st14" d="M2400.9,1143.68l-157.28-43.07l324.84,200.51c-36.25,19.05-75.76,29.52-117.11,29.52
		c-164.9,0-300.55-166.51-317.01-379.95L2400.9,1143.68z"/>
	<path class="st14" d="M2199.88,646.7l548.11,415.45c-11.6,39.16-27.47,75.47-46.83,107.92l-558.62-368.09
		C2153.53,744.65,2173.32,692,2199.88,646.7z"/>
</g>
<g>
	<path class="st5" d="M1971.14,1639.12c-29.22,0-176.19,0-176.19,0h-0.87c0,0-146.97,0-176.19,0s-35.65-32.11-35.65-32.11v-32.11
		h13.16v29.59c0.53,2.04,1.92,5.83,4.48,9.44c4.48,6.32,10.26,9.4,18.01,9.4h353.26c7.75,0,13.92-3.07,18.4-9.4
		c2.56-3.61,3.81-7.4,4.86-9.44v-29.59h12.63v32.11C2007.03,1607.01,2000.35,1639.12,1971.14,1639.12z"/>
	<path class="st6" d="M1582.23,1574.9v32.11c0,0,6.43,32.11,35.65,32.11s176.19,0,176.19,0h0.87c0,0,146.97,0,176.19,0
		s35.9-32.11,35.9-32.11v-32.11h13.16v34.07l-0.4,1.9c-0.24,1.16-2.57,11.65-9.49,22.06c-6.66,10.03-18.87,21.99-39.17,21.99
		h-353.26c-20.31,0-32.51-11.96-39.17-21.99c-6.91-10.41-9.38-20.9-9.63-22.06l-0.54-1.9v-34.07H1582.23z"/>
</g>
<g>
	<path class="st15" d="M1858.32,1866.51l-14.51,8.97l0,0l-0.01-0.01l3-14.45l13.42-65.04h-0.04v-0.25l-0.01-0.01l0.04-0.14
		l-17.45,8.27l16.35-74.2h0l-0.15-0.18l0.03-0.24l-0.13-0.13l0-0.03l-15.15,5.09l11.5-71.56l-0.01,0.01l0-0.02l-0.06,0.05l0-0.02
		l0.05-0.03l-0.02,0l-0.02-0.03l-0.01,0.06l-13.09,9.7l11.59-67.96h49.9l-11.41,67.04l0.02-0.01l0,0.03l13.09-9.72l-11.57,71.54
		l-0.07,0.02l0.06,0.04l0.14-0.05l-0.02,0.12l0.01,0l0,0l15.28-5.09l-12.24,56.19l-3.98,18.2l-0.02,0.02v-0.42h-0.06l0.04,0.23
		l0.01,0.06l0.05-0.2l-0.02-0.09h0l3.97-1.59l13.34-5.75l-0.02,0.05l-13.03,5.77l13.19-6.04l-13.17,64.17l-3.25,15.81v0v0
		l14.56-9.14l-0.39,2.87l-9.77,73.34h0l11.52-9.58l-9.04,64.46l10.89-7.92l-0.07,40.97c-0.54-0.08-1.06-0.15-1.6-0.23
		c-17.59-2.43-33.58-1.89-48.49,0.45l0.07-40.24l-10.89,7.92l9.06-64.47l0,0l-11.5,9.57l9.76-73.53L1858.32,1866.51z"/>
	<path class="st16" d="M1908.42,1865.56l-14.51,8.97l0,0l-0.01-0.01l3-14.5l13.42-65.09h0.39v-0.09l-0.23-0.04l-0.07-0.15
		l-17.51,8.04l16.32-74.42l-0.02,0l-0.15,0.05l0.12-0.12l-0.04-0.07v0l-15.24,5.11l11.46-71.55l-0.03,0.01l0.1-0.01l0.04,0.05v-0.02
		l-0.06-0.03l-0.07,0.01l-0.05-0.03l-0.02,0.06l-13.09,9.7l11.42-67.01h28.05c0,0,3.57,0.44,7.27,4.83
		c3.7,4.39,2.57,9.28,2.57,12.52c0,145.56,7.44,302.95,34.04,428.26c-4.96-5.9-20.1-14.07-63.86-20.26l0.13-40.97v-0.1h-0.06
		l-10.92,8.03l9.04-64.36h-0.01l-11.5,9.51l9.76-73.56L1908.42,1865.56z"/>
	<path class="st17" d="M1733.66,2011.92l-11.48,8.51l9.94-68.8l-12.1,10.18l11.07-81.12l-15.37,9.96l17.78-85.04l0.02-0.01
		l-0.01-0.01l0.04-0.17l-0.09-0.19l0.01-0.3h-0.15v0.34l-18.27,8.75l17.05-76.9l0.58-2.5l0.01,0.01l-0.12,0.05l-0.08-0.1l-0.21-0.06
		v0l-15.91,5.6l12.59-76.34l0.02,0.01l0.02-0.01l-0.05,0.04l0.01-0.02l0.04-0.03l-0.01,0.01l-0.01-0.02l-0.01,0.04l-13.84,10.47
		l12.15-69.89h56.23l-7.54,44.15v0.01v0l-0.04-0.02l-0.04,0.03l7.87-5.98l5.99-4.54l-12.56,76.47l0,0l0,0l0.16-0.06l-0.05,0.13
		l16.03-5.43v0l-0.18,0.07l-15.84,5.37l0.08,0.04l15.78-5.4l0.21-0.21l-17.6,79.08h0l0.01,0.13l0.08,0.08l0.09,0.07v0l2.89-1.36
		l15.31-7.05l-0.03,0l-15.35,7.05l-2.88,1.32l18.3-8.62l-2.05,9.81l-15.78,75.49l-0.01-0.07h0l0,0.07l0,0.03l9.52-6.2l5.78-3.7
		l-11.17,81.08l0.01-0.01l0.23-0.18l-0.03,0.28v0l12.03-10.21l-9.85,68.61l0.05-0.04l-0.01,0.06l11.47-8.52l-0.43,64.84
		c-20.18,8.06-40.11,15.75-60.64,18.35v-0.01c0,0-0.04,0-0.03,0L1733.66,2011.92z"/>
	<path class="st16" d="M1782.91,1994.66l9.91-68.67l-0.11,0.1l0.02-0.14l-12.02,10.27l11.07-80.75h-0.04v-0.26l-0.1,0.02l0.02-0.1
		l-5.77,3.75l-9.49,6.09l16.48-79.01l1.31-6.29h0h0.01h0.17v-0.03l-18.51,8.72l1.07-5.01l16.62-74.25l0.15-0.01l-0.01,0.05h0
		l-0.13-0.13l-0.03,0.11l-0.17,0.04l0.06-0.28l0,0l-16.09,5.57l12.47-76.4l-0.05-0.01l-0.01-0.03l-0.01,0.01l0-0.01l-0.01,0.01
		l0-0.01l-13.88,10.49l7.67-44.12h57.27l-0.07,0.26l-0.03,0.02v0l0.12,0.04l0.04,0.21h-0.02l-0.01-0.12l0.4-0.41h12.35l-11.57,67.99
		l0.02-0.01l0,0.03l13.09-9.72l-11.57,71.54l-0.07,0.02l0.06,0.04l0.14-0.05l-0.02,0.12l0.01,0l0,0l15.28-5.09l-12.24,56.19
		l-3.93,18.2l0.03,0.02v-0.31h-0.15l0.04,0.18l0.01,0.04l0.05-0.16l-0.02-0.05h0l3.97-1.64l13.34-5.77l-0.02,0.03l-13.03,5.76
		l13.19-6.04l-13.18,64.07l-3.36,15.71h-0.31v0.19l14.78-9.14l-0.28,2.93l-9.7,73.4h0.01l11.53-9.64l-9.04,64.44l10.89-7.94
		l-0.07,40.23c-24.74,3.87-46.49,12.69-67.55,21.1l0.48-64.87l-0.02,0.02v-0.03L1782.91,1994.66z"/>
	<path class="st16" d="M1727.21,1604.37l-12.14,69.91l0.02-0.01l-0.01,0.03l13.84-10.49l-12.59,76.33l-0.06,0.02l0.05,0.04
		l0.11-0.04l-0.02,0.1l0.01,0l0,0l16.13-5.59l-17.33,78.92l-0.21,1.33h0l0.09-0.45l-0.16-0.12l-0.07-0.16v0l0.65-0.24l17.8-8.05
		l-17.71,85.34h0.01h0.01l-0.09-0.31l-0.14-0.27v0l15.47-9.97l-10.98,81.09h0.01l12.15-10.17l-9.91,68.8l11.49-8.51l-0.43,57.45
		c-2.96,0.37-5.96,0.65-8.98,0.8c-60.22,2.99-85.23-26.56-85.23-26.56s12.84-221.96,17.9-427.18c0.07-2.81-0.2-3.98,2.97-8.5
		c3.17-4.52,9.59-3.55,9.59-3.55H1727.21z"/>
</g>
<g>
	<path class="st5" d="M2275.3,1435.22c-1.5-2.91-3.6-5.31-6.24-7.2c-6.73-4.83-14.69-4.72-17.41-4.2h-53.53v-4.74h-16.32v28.95
		h16.32v-9.48h54.07l0.58-0.09l0.76-0.21c0.46-0.04,3.52-0.29,5.49,1.17c2.06,1.53,2.65,4.72,2.79,7.14l16.19-0.73
		C2277.76,1441.83,2276.86,1438.25,2275.3,1435.22z"/>
	<g>
		<path class="st18" d="M2178.88,1449.23c-16.53,4.33-28.66,18.04-28.66,34.29v79.59c0,15.45,11.05,28.61,26.32,33.59v-114.92
			C2176.53,1481.77,2175.06,1464.81,2178.88,1449.23z"/>
		<path class="st16" d="M2189.98,1447.8c-3.88,0-7.56,0.5-11.11,1.43c-3.81,15.58-2.34,32.54-2.34,32.54v114.92
			c4.21,1.38,8.71,2.13,13.48,2.13c21.97,0,39.69-15.99,39.69-35.72v-79.59C2229.7,1463.79,2211.94,1447.8,2189.98,1447.8z"/>
	</g>
	<g>
		<rect x="2141.79" y="1553.31" class="st16" width="66.33" height="55.8"/>
		<rect x="2208.11" y="1553.31" class="st19" width="30.53" height="55.8"/>
	</g>
</g>
</svg>
